# Blender v2.79 (sub 0) OBJ File: ''
# www.blender.org
mtllib bin1.mtl
o Cube_Cube.004_Cube_Cube.003
v -0.392160 0.532421 -3.007062
v -0.392160 1.862988 -3.007061
v -0.392160 1.862991 -4.155869
v -0.392160 0.532424 -4.155872
v 0.905620 1.862991 -4.155869
v 0.905620 0.532424 -4.155872
v 0.905620 1.862988 -3.007061
v 0.905620 0.532421 -3.007062
vn -1.0000 0.0000 0.0000
vn 0.0000 0.0000 -1.0000
vn 1.0000 0.0000 0.0000
vn 0.0000 -0.0000 1.0000
vn 0.0000 -1.0000 -0.0000
vn 0.0000 1.0000 0.0000
usemtl None.003
s 1
f 1//1 2//1 3//1 4//1
f 4//2 3//2 5//2 6//2
f 6//3 5//3 7//3 8//3
f 8//4 7//4 2//4 1//4
f 4//5 6//5 8//5 1//5
f 5//6 3//6 2//6 7//6
o Cube_Cube.004_Cube_Cube.005_Cube_Cube.004_Cube_Cube.006
v -9.867474 1.693941 -0.583618
v -9.867474 3.024508 -0.583618
v -9.867474 3.024508 -1.732429
v -9.867474 1.693941 -1.732429
v -8.569694 3.024508 -1.732429
v -8.569694 1.693941 -1.732429
v -8.569694 3.024508 -0.583618
v -8.569694 1.693941 -0.583618
vn -1.0000 -0.0000 0.0000
vn 0.0000 0.0000 -1.0000
vn 1.0000 0.0000 0.0000
vn 0.0000 -0.0000 1.0000
vn 0.0000 -1.0000 0.0000
vn 0.0000 1.0000 0.0000
usemtl None.016
s 1
f 9//7 10//7 11//7 12//7
f 12//8 11//8 13//8 14//8
f 14//9 13//9 15//9 16//9
f 16//10 15//10 10//10 9//10
f 12//11 14//11 16//11 9//11
f 13//12 11//12 10//12 15//12
o Cube_Cube.004_Cube_Cube.001
v -1.834264 0.532421 -3.007062
v -1.834264 1.862988 -3.007061
v -1.834264 1.862991 -4.155869
v -1.834264 0.532424 -4.155872
v -0.536484 1.862991 -4.155869
v -0.536484 0.532424 -4.155872
v -0.536484 1.862988 -3.007061
v -0.536484 0.532421 -3.007062
vn -1.0000 -0.0000 0.0000
vn 0.0000 0.0000 -1.0000
vn 1.0000 0.0000 0.0000
vn 0.0000 -0.0000 1.0000
vn 0.0000 -1.0000 -0.0000
vn 0.0000 1.0000 0.0000
usemtl None.001
s 1
f 17//13 18//13 19//13 20//13
f 20//14 19//14 21//14 22//14
f 22//15 21//15 23//15 24//15
f 24//16 23//16 18//16 17//16
f 20//17 22//17 24//17 17//17
f 21//18 19//18 18//18 23//18
o Cube_Cube.004_Cube_Cube.002
v -0.392160 0.532421 -1.219243
v -0.392160 1.862988 -1.219242
v -0.392160 1.862991 -2.368051
v -0.392160 0.532424 -2.368053
v 0.905620 1.862991 -2.368051
v 0.905620 0.532424 -2.368053
v 0.905620 1.862988 -1.219242
v 0.905620 0.532421 -1.219243
vn -1.0000 -0.0000 0.0000
vn 0.0000 0.0000 -1.0000
vn 1.0000 0.0000 0.0000
vn 0.0000 -0.0000 1.0000
vn 0.0000 -1.0000 -0.0000
vn 0.0000 1.0000 0.0000
usemtl None.002
s 1
f 25//19 26//19 27//19 28//19
f 28//20 27//20 29//20 30//20
f 30//21 29//21 31//21 32//21
f 32//22 31//22 26//22 25//22
f 28//23 30//23 32//23 25//23
f 29//24 27//24 26//24 31//24
o Cube_Cube.004_Cube_Cube.004
v 6.239202 2.920762 -9.472778
v 6.239202 4.251328 -9.472777
v 6.239202 4.251331 -10.621586
v 6.239202 2.920764 -10.621589
v 7.536982 4.251331 -10.621586
v 7.536982 2.920764 -10.621589
v 7.536982 4.251328 -9.472777
v 7.536982 2.920762 -9.472778
vn -1.0000 0.0000 0.0000
vn 0.0000 0.0000 -1.0000
vn 1.0000 -0.0000 0.0000
vn 0.0000 -0.0000 1.0000
vn 0.0000 -1.0000 -0.0000
vn 0.0000 1.0000 0.0000
usemtl None.004
s 1
f 33//25 34//25 35//25 36//25
f 36//26 35//26 37//26 38//26
f 38//27 37//27 39//27 40//27
f 40//28 39//28 34//28 33//28
f 36//29 38//29 40//29 33//29
f 37//30 35//30 34//30 39//30
