# Blender v2.79 (sub 0) OBJ File: ''
# www.blender.org
mtllib bin3.mtl
o Cube_Cube.004_Cube_Cube.005_Cube_Cube.004_Cube_Cube.006
v 0.992035 9.985334 -11.461361
v 0.992035 11.315901 -11.461361
v 0.992035 11.315902 -12.610172
v 0.992035 9.985334 -12.610172
v 2.289815 11.315902 -12.610172
v 2.289815 9.985334 -12.610172
v 2.289815 11.315901 -11.461361
v 2.289815 9.985334 -11.461361
vn -1.0000 0.0000 0.0000
vn 0.0000 0.0000 -1.0000
vn 1.0000 0.0000 0.0000
vn 0.0000 0.0000 1.0000
vn 0.0000 -1.0000 0.0000
vn 0.0000 1.0000 0.0000
usemtl None.016
s 1
f 1//1 2//1 3//1 4//1
f 4//2 3//2 5//2 6//2
f 6//3 5//3 7//3 8//3
f 8//4 7//4 2//4 1//4
f 4//5 6//5 8//5 1//5
f 5//6 3//6 2//6 7//6
o Cube_Cube.004_Cube_Cube.001
v 1.289611 0.532421 -1.471143
v 1.289611 1.862988 -1.471142
v 1.289611 1.862991 -2.619951
v 1.289611 0.532424 -2.619953
v 2.587391 1.862991 -2.619951
v 2.587391 0.532424 -2.619953
v 2.587391 1.862988 -1.471142
v 2.587391 0.532421 -1.471143
vn -1.0000 -0.0000 0.0000
vn 0.0000 0.0000 -1.0000
vn 1.0000 -0.0000 0.0000
vn 0.0000 -0.0000 1.0000
vn 0.0000 -1.0000 -0.0000
vn 0.0000 1.0000 0.0000
usemtl None.001
s 1
f 9//7 10//7 11//7 12//7
f 12//8 11//8 13//8 14//8
f 14//9 13//9 15//9 16//9
f 16//10 15//10 10//10 9//10
f 12//11 14//11 16//11 9//11
f 13//12 11//12 10//12 15//12
o Cube_Cube.004_Cube_Cube.002
v -0.441726 9.879000 3.471843
v -0.441726 11.209567 3.471844
v -0.441726 11.209569 2.323036
v -0.441726 9.879003 2.323033
v 0.856054 11.209569 2.323036
v 0.856054 9.879003 2.323033
v 0.856054 11.209567 3.471844
v 0.856054 9.879000 3.471843
vn -1.0000 0.0000 0.0000
vn 0.0000 0.0000 -1.0000
vn 1.0000 0.0000 0.0000
vn 0.0000 -0.0000 1.0000
vn 0.0000 -1.0000 -0.0000
vn 0.0000 1.0000 0.0000
usemtl None.002
s 1
f 17//13 18//13 19//13 20//13
f 20//14 19//14 21//14 22//14
f 22//15 21//15 23//15 24//15
f 24//16 23//16 18//16 17//16
f 20//17 22//17 24//17 17//17
f 21//18 19//18 18//18 23//18
o Cube_Cube.004_Cube_Cube.004
v 1.765599 0.422598 -9.472778
v 1.765599 1.753165 -9.472777
v 1.765599 1.753167 -10.621586
v 1.765599 0.422600 -10.621589
v 3.063378 1.753167 -10.621586
v 3.063378 0.422600 -10.621589
v 3.063378 1.753165 -9.472777
v 3.063378 0.422598 -9.472778
vn -1.0000 0.0000 0.0000
vn 0.0000 0.0000 -1.0000
vn 1.0000 0.0000 0.0000
vn 0.0000 -0.0000 1.0000
vn 0.0000 -1.0000 -0.0000
vn 0.0000 1.0000 0.0000
usemtl None.004
s 1
f 25//19 26//19 27//19 28//19
f 28//20 27//20 29//20 30//20
f 30//21 29//21 31//21 32//21
f 32//22 31//22 26//22 25//22
f 28//23 30//23 32//23 25//23
f 29//24 27//24 26//24 31//24
o Cube_Cube.004_Cube_Cube.005_Cube_Cube.004_Cube_Cube.000
v 0.992035 9.985334 -6.989044
v 0.992035 11.315901 -6.989044
v 0.992035 11.315902 -8.137855
v 0.992035 9.985334 -8.137855
v 2.289815 11.315902 -8.137855
v 2.289815 9.985334 -8.137855
v 2.289815 11.315901 -6.989044
v 2.289815 9.985334 -6.989044
vn -1.0000 0.0000 0.0000
vn 0.0000 0.0000 -1.0000
vn 1.0000 0.0000 0.0000
vn 0.0000 0.0000 1.0000
vn 0.0000 -1.0000 0.0000
vn 0.0000 1.0000 0.0000
usemtl None.041
s 1
f 33//25 34//25 35//25 36//25
f 36//26 35//26 37//26 38//26
f 38//27 37//27 39//27 40//27
f 40//28 39//28 34//28 33//28
f 36//29 38//29 40//29 33//29
f 37//30 35//30 34//30 39//30
