# Blender v2.79 (sub 0) OBJ File: ''
# www.blender.org
mtllib bin4.mtl
o Cube_Cube.004_Cube_Cube.005_Cube_Cube.004_Cube_Cube.006
v -16.803493 1.669308 12.280695
v -16.803493 2.999875 12.280695
v -16.803493 2.999875 11.131884
v -16.803493 1.669308 11.131884
v -15.505713 2.999875 11.131884
v -15.505713 1.669308 11.131884
v -15.505713 2.999875 12.280695
v -15.505713 1.669308 12.280695
vn -1.0000 0.0000 0.0000
vn 0.0000 0.0000 -1.0000
vn 1.0000 0.0000 0.0000
vn 0.0000 0.0000 1.0000
vn 0.0000 -1.0000 -0.0000
vn 0.0000 1.0000 0.0000
usemtl None.016
s 1
f 1//1 2//1 3//1 4//1
f 4//2 3//2 5//2 6//2
f 6//3 5//3 7//3 8//3
f 8//4 7//4 2//4 1//4
f 4//5 6//5 8//5 1//5
f 5//6 3//6 2//6 7//6
o Cube_Cube.004_Cube_Cube.001
v 15.799017 0.532421 3.264568
v 15.799017 1.862988 3.264569
v 15.799017 1.862991 2.115760
v 15.799017 0.532424 2.115758
v 17.096798 1.862991 2.115760
v 17.096798 0.532424 2.115758
v 17.096798 1.862988 3.264569
v 17.096798 0.532421 3.264568
vn -1.0000 0.0000 0.0000
vn 0.0000 0.0000 -1.0000
vn 1.0000 -0.0000 0.0000
vn 0.0000 -0.0000 1.0000
vn 0.0000 -1.0000 -0.0000
vn 0.0000 1.0000 0.0000
usemtl None.001
s 1
f 9//7 10//7 11//7 12//7
f 12//8 11//8 13//8 14//8
f 14//9 13//9 15//9 16//9
f 16//10 15//10 10//10 9//10
f 12//11 14//11 16//11 9//11
f 13//12 11//12 10//12 15//12
o Cube_Cube.004_Cube_Cube.002
v -0.441726 7.841435 3.471843
v -0.441726 9.172002 3.471844
v -0.441726 9.172004 2.323036
v -0.441726 7.841437 2.323033
v 0.856054 9.172004 2.323036
v 0.856054 7.841437 2.323033
v 0.856054 9.172002 3.471844
v 0.856054 7.841435 3.471843
vn -1.0000 0.0000 0.0000
vn 0.0000 0.0000 -1.0000
vn 1.0000 0.0000 0.0000
vn 0.0000 -0.0000 1.0000
vn 0.0000 -1.0000 -0.0000
vn 0.0000 1.0000 0.0000
usemtl None.002
s 1
f 17//13 18//13 19//13 20//13
f 20//14 19//14 21//14 22//14
f 22//15 21//15 23//15 24//15
f 24//16 23//16 18//16 17//16
f 20//17 22//17 24//17 17//17
f 21//18 19//18 18//18 23//18
o Cube_Cube.004_Cube_Cube.004
v 6.620122 4.655552 -21.278828
v 6.620122 5.986119 -21.278826
v 6.620122 5.986121 -22.427635
v 6.620122 4.655554 -22.427637
v 7.917902 5.986121 -22.427635
v 7.917902 4.655554 -22.427637
v 7.917902 5.986119 -21.278826
v 7.917902 4.655552 -21.278828
vn -1.0000 0.0000 0.0000
vn 0.0000 0.0000 -1.0000
vn 1.0000 -0.0000 0.0000
vn 0.0000 -0.0000 1.0000
vn 0.0000 -1.0000 -0.0000
vn 0.0000 1.0000 0.0000
usemtl None.004
s 1
f 25//19 26//19 27//19 28//19
f 28//20 27//20 29//20 30//20
f 30//21 29//21 31//21 32//21
f 32//22 31//22 26//22 25//22
f 28//23 30//23 32//23 25//23
f 29//24 27//24 26//24 31//24
o Cube_Cube.004_Cube_Cube.005_Cube_Cube.004_Cube_Cube.000
v 0.992035 6.375933 -6.989044
v 0.992035 7.706500 -6.989044
v 0.992035 7.706500 -8.137855
v 0.992035 6.375933 -8.137855
v 2.289815 7.706500 -8.137855
v 2.289815 6.375933 -8.137855
v 2.289815 7.706500 -6.989044
v 2.289815 6.375933 -6.989044
vn -1.0000 0.0000 0.0000
vn 0.0000 0.0000 -1.0000
vn 1.0000 0.0000 0.0000
vn 0.0000 0.0000 1.0000
vn 0.0000 -1.0000 0.0000
vn 0.0000 1.0000 0.0000
usemtl None.041
s 1
f 33//25 34//25 35//25 36//25
f 36//26 35//26 37//26 38//26
f 38//27 37//27 39//27 40//27
f 40//28 39//28 34//28 33//28
f 36//29 38//29 40//29 33//29
f 37//30 35//30 34//30 39//30
o Cube_Cube.004_Cube_Cube.005_Cube_Cube.004_Cube_Cube.001
v -1.183413 6.375933 -6.989044
v -1.183413 7.706500 -6.989044
v -1.183413 7.706500 -8.137855
v -1.183413 6.375933 -8.137855
v 0.114367 7.706500 -8.137855
v 0.114367 6.375933 -8.137855
v 0.114367 7.706500 -6.989044
v 0.114367 6.375933 -6.989044
vn -1.0000 0.0000 0.0000
vn 0.0000 0.0000 -1.0000
vn 1.0000 0.0000 0.0000
vn 0.0000 0.0000 1.0000
vn 0.0000 -1.0000 0.0000
vn 0.0000 1.0000 0.0000
usemtl None.370
s 1
f 41//31 42//31 43//31 44//31
f 44//32 43//32 45//32 46//32
f 46//33 45//33 47//33 48//33
f 48//34 47//34 42//34 41//34
f 44//35 46//35 48//35 41//35
f 45//36 43//36 42//36 47//36
o Cube_Cube.004_Cube_Cube.005_Cube_Cube.004_Cube_Cube.002
v 0.992035 6.375933 -5.236752
v 0.992035 7.706500 -5.236752
v 0.992035 7.706500 -6.385563
v 0.992035 6.375933 -6.385563
v 2.289815 7.706500 -6.385563
v 2.289815 6.375933 -6.385563
v 2.289815 7.706500 -5.236752
v 2.289815 6.375933 -5.236752
vn -1.0000 0.0000 0.0000
vn 0.0000 0.0000 -1.0000
vn 1.0000 0.0000 0.0000
vn 0.0000 0.0000 1.0000
vn 0.0000 -1.0000 0.0000
vn 0.0000 1.0000 0.0000
usemtl None.371
s 1
f 49//37 50//37 51//37 52//37
f 52//38 51//38 53//38 54//38
f 54//39 53//39 55//39 56//39
f 56//40 55//40 50//40 49//40
f 52//41 54//41 56//41 49//41
f 53//42 51//42 50//42 55//42
