# Blender v2.79 (sub 0) OBJ File: ''
# www.blender.org
mtllib bin9.mtl
o Cube_Cube.004_Cube_Cube.001
v -1.795720 0.532421 -3.808091
v -1.795720 1.862988 -3.808089
v -1.795720 1.862992 -4.956897
v -1.795720 0.532425 -4.956901
v -0.497940 1.862992 -4.956897
v -0.497940 0.532425 -4.956901
v -0.497940 1.862988 -3.808089
v -0.497940 0.532421 -3.808091
vn -1.0000 0.0000 0.0000
vn 0.0000 0.0000 -1.0000
vn 1.0000 0.0000 0.0000
vn 0.0000 -0.0000 1.0000
vn 0.0000 -1.0000 -0.0000
vn 0.0000 1.0000 0.0000
usemtl None.030
s 1
f 1//1 2//1 3//1 4//1
f 4//2 3//2 5//2 6//2
f 6//3 5//3 7//3 8//3
f 8//4 7//4 2//4 1//4
f 4//5 6//5 8//5 1//5
f 5//6 3//6 2//6 7//6
o Cube_Cube.004_Cube_Cube.002
v -0.353616 0.532421 -2.020272
v -0.353616 1.862988 -2.020270
v -0.353616 1.862991 -3.169080
v -0.353616 0.532424 -3.169082
v 0.944164 1.862991 -3.169080
v 0.944164 0.532424 -3.169082
v 0.944164 1.862988 -2.020270
v 0.944164 0.532421 -2.020272
vn -1.0000 0.0000 0.0000
vn 0.0000 0.0000 -1.0000
vn 1.0000 0.0000 0.0000
vn 0.0000 -0.0000 1.0000
vn 0.0000 -1.0000 -0.0000
vn 0.0000 1.0000 0.0000
usemtl None.028
s 1
f 9//7 10//7 11//7 12//7
f 12//8 11//8 13//8 14//8
f 14//9 13//9 15//9 16//9
f 16//10 15//10 10//10 9//10
f 12//11 14//11 16//11 9//11
f 13//12 11//12 10//12 15//12
o Cube_Cube.004_Cube_Cube.003
v -0.353616 0.532421 -3.808091
v -0.353616 1.862988 -3.808089
v -0.353616 1.862992 -4.956897
v -0.353616 0.532425 -4.956901
v 0.944164 1.862992 -4.956897
v 0.944164 0.532425 -4.956901
v 0.944164 1.862988 -3.808089
v 0.944164 0.532421 -3.808091
vn -1.0000 0.0000 0.0000
vn 0.0000 0.0000 -1.0000
vn 1.0000 0.0000 0.0000
vn 0.0000 -0.0000 1.0000
vn 0.0000 -1.0000 -0.0000
vn 0.0000 1.0000 0.0000
usemtl None.027
s 1
f 17//13 18//13 19//13 20//13
f 20//14 19//14 21//14 22//14
f 22//15 21//15 23//15 24//15
f 24//16 23//16 18//16 17//16
f 20//17 22//17 24//17 17//17
f 21//18 19//18 18//18 23//18
o Cube_Cube.004_Cube_Cube.014
v -2.836406 0.532421 24.597878
v -2.836406 1.862988 24.597878
v -2.836406 1.862992 23.449070
v -2.836406 0.532425 23.449066
v -1.538626 1.862992 23.449070
v -1.538626 0.532425 23.449066
v -1.538626 1.862988 24.597878
v -1.538626 0.532421 24.597878
vn -1.0000 -0.0000 0.0000
vn 0.0000 0.0000 -1.0000
vn 1.0000 0.0000 0.0000
vn 0.0000 0.0000 1.0000
vn 0.0000 -1.0000 -0.0000
vn 0.0000 1.0000 0.0000
usemtl None.560
s 1
f 25//19 26//19 27//19 28//19
f 28//20 27//20 29//20 30//20
f 30//21 29//21 31//21 32//21
f 32//22 31//22 26//22 25//22
f 28//23 30//23 32//23 25//23
f 29//24 27//24 26//24 31//24
o Cube_Cube.004_Cube_Cube.013
v -1.394302 0.532421 26.385696
v -1.394302 1.862988 26.385696
v -1.394302 1.862991 25.236887
v -1.394302 0.532424 25.236885
v -0.096522 1.862991 25.236887
v -0.096522 0.532424 25.236885
v -0.096522 1.862988 26.385696
v -0.096522 0.532421 26.385696
vn -1.0000 0.0000 0.0000
vn 0.0000 0.0000 -1.0000
vn 1.0000 0.0000 0.0000
vn 0.0000 0.0000 1.0000
vn 0.0000 -1.0000 -0.0000
vn 0.0000 1.0000 0.0000
usemtl None.559
s 1
f 33//25 34//25 35//25 36//25
f 36//26 35//26 37//26 38//26
f 38//27 37//27 39//27 40//27
f 40//28 39//28 34//28 33//28
f 36//29 38//29 40//29 33//29
f 37//30 35//30 34//30 39//30
o Cube_Cube.004_Cube_Cube.012
v -1.394302 0.532421 24.597878
v -1.394302 1.862988 24.597878
v -1.394302 1.862992 23.449070
v -1.394302 0.532425 23.449066
v -0.096522 1.862992 23.449070
v -0.096522 0.532425 23.449066
v -0.096522 1.862988 24.597878
v -0.096522 0.532421 24.597878
vn -1.0000 0.0000 0.0000
vn 0.0000 0.0000 -1.0000
vn 1.0000 0.0000 0.0000
vn 0.0000 0.0000 1.0000
vn 0.0000 -1.0000 -0.0000
vn 0.0000 1.0000 0.0000
usemtl None.558
s 1
f 41//31 42//31 43//31 44//31
f 44//32 43//32 45//32 46//32
f 46//33 45//33 47//33 48//33
f 48//34 47//34 42//34 41//34
f 44//35 46//35 48//35 41//35
f 45//36 43//36 42//36 47//36
o Cube_Cube.004_Cube_Cube.017
v -16.320911 3.543003 17.477386
v -16.320911 4.873570 17.477386
v -16.320911 4.873573 16.328579
v -16.320911 3.543006 16.328575
v -15.023131 4.873573 16.328579
v -15.023131 3.543006 16.328575
v -15.023131 4.873570 17.477386
v -15.023131 3.543003 17.477386
vn -1.0000 0.0000 0.0000
vn 0.0000 0.0000 -1.0000
vn 1.0000 0.0000 0.0000
vn 0.0000 0.0000 1.0000
vn 0.0000 -1.0000 -0.0000
vn 0.0000 1.0000 0.0000
usemtl None.563
s 1
f 49//37 50//37 51//37 52//37
f 52//38 51//38 53//38 54//38
f 54//39 53//39 55//39 56//39
f 56//40 55//40 50//40 49//40
f 52//41 54//41 56//41 49//41
f 53//42 51//42 50//42 55//42
o Cube_Cube.004_Cube_Cube.016
v -16.320911 3.543003 19.265205
v -16.320911 4.873570 19.265205
v -16.320911 4.873573 18.116396
v -16.320911 3.543006 18.116394
v -15.023131 4.873573 18.116396
v -15.023131 3.543006 18.116394
v -15.023131 4.873570 19.265205
v -15.023131 3.543003 19.265205
vn -1.0000 0.0000 0.0000
vn 0.0000 0.0000 -1.0000
vn 1.0000 0.0000 0.0000
vn 0.0000 0.0000 1.0000
vn 0.0000 -1.0000 -0.0000
vn 0.0000 1.0000 0.0000
usemtl None.562
s 1
f 57//43 58//43 59//43 60//43
f 60//44 59//44 61//44 62//44
f 62//45 61//45 63//45 64//45
f 64//46 63//46 58//46 57//46
f 60//47 62//47 64//47 57//47
f 61//48 59//48 58//48 63//48
o Cube_Cube.004_Cube_Cube.015
v -17.763016 3.543003 17.477386
v -17.763016 4.873570 17.477386
v -17.763016 4.873573 16.328579
v -17.763016 3.543006 16.328575
v -16.465235 4.873573 16.328579
v -16.465235 3.543006 16.328575
v -16.465235 4.873570 17.477386
v -16.465235 3.543003 17.477386
vn -1.0000 -0.0000 0.0000
vn 0.0000 0.0000 -1.0000
vn 1.0000 0.0000 0.0000
vn 0.0000 0.0000 1.0000
vn 0.0000 -1.0000 -0.0000
vn 0.0000 1.0000 0.0000
usemtl None.561
s 1
f 65//49 66//49 67//49 68//49
f 68//50 67//50 69//50 70//50
f 70//51 69//51 71//51 72//51
f 72//52 71//52 66//52 65//52
f 68//53 70//53 72//53 65//53
f 69//54 67//54 66//54 71//54
