# Blender v2.79 (sub 0) OBJ File: ''
# www.blender.org
mtllib bomb3.mtl
o Cube_Cube.004_Cube_Cube.005_Cube_Cube.004_Cube_Cube.001
v 0.326198 10.169446 0.447570
v 0.326198 11.500013 0.447571
v 0.326198 11.500013 -0.701240
v 0.326198 10.169446 -0.701241
v 1.623978 11.500013 -0.701240
v 1.623978 10.169446 -0.701241
v 1.623978 11.500013 0.447571
v 1.623978 10.169446 0.447570
vn -1.0000 0.0000 0.0000
vn 0.0000 0.0000 -1.0000
vn 1.0000 0.0000 0.0000
vn 0.0000 -0.0000 1.0000
vn 0.0000 -1.0000 0.0000
vn 0.0000 1.0000 0.0000
usemtl None.033
s 1
f 1//1 2//1 3//1 4//1
f 4//2 3//2 5//2 6//2
f 6//3 5//3 7//3 8//3
f 8//4 7//4 2//4 1//4
f 4//5 6//5 8//5 1//5
f 5//6 3//6 2//6 7//6
o Cube_Cube.004_Cube_Cube.007
v 0.419408 10.143600 -9.811525
v 0.419408 11.474167 -9.811524
v 0.419408 11.474167 -10.960336
v 0.419408 10.143600 -10.960337
v 1.717188 11.474167 -10.960336
v 1.717188 10.143600 -10.960337
v 1.717188 11.474167 -9.811524
v 1.717188 10.143600 -9.811525
vn -1.0000 0.0000 0.0000
vn 0.0000 0.0000 -1.0000
vn 1.0000 -0.0000 0.0000
vn 0.0000 -0.0000 1.0000
vn 0.0000 -1.0000 0.0000
vn 0.0000 1.0000 0.0000
usemtl None.030
s 1
f 9//7 10//7 11//7 12//7
f 12//8 11//8 13//8 14//8
f 14//9 13//9 15//9 16//9
f 16//10 15//10 10//10 9//10
f 12//11 14//11 16//11 9//11
f 13//12 11//12 10//12 15//12
o Cube_Cube.004_Cube_Cube.006
v 0.080613 19.448984 -12.169637
v 0.080613 20.779551 -12.169637
v 0.080613 20.779551 -13.318447
v 0.080613 19.448984 -13.318448
v 1.378393 20.779551 -13.318447
v 1.378393 19.448984 -13.318448
v 1.378393 20.779551 -12.169637
v 1.378393 19.448984 -12.169637
vn -1.0000 0.0000 0.0000
vn 0.0000 0.0000 -1.0000
vn 1.0000 0.0000 0.0000
vn 0.0000 0.0000 1.0000
vn 0.0000 -1.0000 0.0000
vn 0.0000 1.0000 0.0000
usemtl None.029
s 1
f 17//13 18//13 19//13 20//13
f 20//14 19//14 21//14 22//14
f 22//15 21//15 23//15 24//15
f 24//16 23//16 18//16 17//16
f 20//17 22//17 24//17 17//17
f 21//18 19//18 18//18 23//18
o Cube_Cube.004_Cube_Cube.005
v 0.125718 0.532421 -12.605204
v 0.125718 1.862988 -12.605204
v 0.125718 1.862988 -13.754015
v 0.125718 0.532421 -13.754015
v 1.423498 1.862988 -13.754015
v 1.423498 0.532421 -13.754015
v 1.423498 1.862988 -12.605204
v 1.423498 0.532421 -12.605204
vn -1.0000 0.0000 0.0000
vn 0.0000 0.0000 -1.0000
vn 1.0000 0.0000 0.0000
vn 0.0000 0.0000 1.0000
vn 0.0000 -1.0000 -0.0000
vn 0.0000 1.0000 0.0000
usemtl None.031
s 1
f 25//19 26//19 27//19 28//19
f 28//20 27//20 29//20 30//20
f 30//21 29//21 31//21 32//21
f 32//22 31//22 26//22 25//22
f 28//23 30//23 32//23 25//23
f 29//24 27//24 26//24 31//24
o Cube_Cube.022
v -23.147097 5.016459 1.946012
v -23.147097 6.347026 1.946013
v -23.147097 6.347029 0.797201
v -23.147097 5.016461 0.797200
v -21.849318 6.347029 0.797201
v -21.849318 5.016461 0.797200
v -21.849318 6.347026 1.946013
v -21.849318 5.016459 1.946012
vn -1.0000 0.0000 0.0000
vn 0.0000 0.0000 -1.0000
vn 1.0000 -0.0000 0.0000
vn 0.0000 -0.0000 1.0000
vn 0.0000 -1.0000 -0.0000
vn 0.0000 1.0000 0.0000
usemtl None.032
s 1
f 33//25 34//25 35//25 36//25
f 36//26 35//26 37//26 38//26
f 38//27 37//27 39//27 40//27
f 40//28 39//28 34//28 33//28
f 36//29 38//29 40//29 33//29
f 37//30 35//30 34//30 39//30
