# Blender v2.79 (sub 0) OBJ File: ''
# www.blender.org
mtllib magnet8.mtl
o Cube.001_Cube.004
v -9.519020 2.484416 6.968499
v -9.519020 4.484416 6.968499
v -9.519020 2.484416 4.968499
v -9.519020 4.484416 4.968499
v -4.252550 2.484416 6.968499
v -4.252550 4.484416 6.968499
v -4.252550 2.484416 4.968499
v -4.252550 4.484416 4.968499
vn -1.0000 0.0000 0.0000
vn 0.0000 0.0000 -1.0000
vn 1.0000 0.0000 0.0000
vn 0.0000 0.0000 1.0000
vn 0.0000 -1.0000 0.0000
vn 0.0000 1.0000 0.0000
usemtl None
s off
f 1//1 2//1 4//1 3//1
f 3//2 4//2 8//2 7//2
f 7//3 8//3 6//3 5//3
f 5//4 6//4 2//4 1//4
f 3//5 7//5 5//5 1//5
f 8//6 4//6 2//6 6//6
o Cube.000_Cube.005
v -9.519020 2.484416 13.399092
v -9.519020 4.484416 13.399092
v -9.519020 2.484416 11.399092
v -9.519020 4.484416 11.399092
v -4.252550 2.484416 13.399092
v -4.252550 4.484416 13.399092
v -4.252550 2.484416 11.399092
v -4.252550 4.484416 11.399092
vn -1.0000 0.0000 0.0000
vn 0.0000 0.0000 -1.0000
vn 1.0000 0.0000 0.0000
vn 0.0000 0.0000 1.0000
vn 0.0000 -1.0000 0.0000
vn 0.0000 1.0000 0.0000
usemtl None
s off
f 9//7 10//7 12//7 11//7
f 11//8 12//8 16//8 15//8
f 15//9 16//9 14//9 13//9
f 13//10 14//10 10//10 9//10
f 11//11 15//11 13//11 9//11
f 16//12 12//12 10//12 14//12
o Cube.002_Cube.006
v -9.519020 2.484416 19.267986
v -9.519020 4.484416 19.267986
v -9.519020 2.484416 17.267986
v -9.519020 4.484416 17.267986
v -4.252550 2.484416 19.267986
v -4.252550 4.484416 19.267986
v -4.252550 2.484416 17.267986
v -4.252550 4.484416 17.267986
vn -1.0000 0.0000 0.0000
vn 0.0000 0.0000 -1.0000
vn 1.0000 0.0000 0.0000
vn 0.0000 0.0000 1.0000
vn 0.0000 -1.0000 0.0000
vn 0.0000 1.0000 0.0000
usemtl None
s off
f 17//13 18//13 20//13 19//13
f 19//14 20//14 24//14 23//14
f 23//15 24//15 22//15 21//15
f 21//16 22//16 18//16 17//16
f 19//17 23//17 21//17 17//17
f 24//18 20//18 18//18 22//18
