# Blender v2.79 (sub 0) OBJ File: ''
# www.blender.org
mtllib trap7.mtl
o Cube_Cube.004_Cube_Cube.018
v -0.749386 -0.505480 18.962851
v -0.749386 0.825087 18.962852
v -0.749386 0.825090 17.814043
v -0.749386 -0.505477 17.814041
v 0.548394 0.825090 17.814043
v 0.548394 -0.505477 17.814041
v 0.548394 0.825087 18.962852
v 0.548394 -0.505480 18.962851
vn -1.0000 0.0000 0.0000
vn 0.0000 0.0000 -1.0000
vn 1.0000 -0.0000 0.0000
vn 0.0000 -0.0000 1.0000
vn 0.0000 -1.0000 -0.0000
vn 0.0000 1.0000 0.0000
usemtl None.579
s 1
f 1//1 2//1 3//1 4//1
f 4//2 3//2 5//2 6//2
f 6//3 5//3 7//3 8//3
f 8//4 7//4 2//4 1//4
f 4//5 6//5 8//5 1//5
f 5//6 3//6 2//6 7//6
