# Blender v2.79 (sub 0) OBJ File: ''
# www.blender.org
mtllib trap9.mtl
o Cube_Cube.004_Cube_Cube.010
v -6.250726 -0.505480 1.842270
v -6.250726 0.825087 1.842272
v -6.250726 0.825090 0.693462
v -6.250726 -0.505477 0.693460
v -4.952946 0.825090 0.693462
v -4.952946 -0.505477 0.693460
v -4.952946 0.825087 1.842272
v -4.952946 -0.505480 1.842270
vn -1.0000 -0.0000 0.0000
vn 0.0000 0.0000 -1.0000
vn 1.0000 -0.0000 0.0000
vn 0.0000 -0.0000 1.0000
vn 0.0000 -1.0000 -0.0000
vn 0.0000 1.0000 0.0000
usemtl None.013
s 1
f 1//1 2//1 3//1 4//1
f 4//2 3//2 5//2 6//2
f 6//3 5//3 7//3 8//3
f 8//4 7//4 2//4 1//4
f 4//5 6//5 8//5 1//5
f 5//6 3//6 2//6 7//6
o Cube_Cube.004_Cube_Cube.013
v -6.632220 -0.505484 29.265240
v -6.632220 0.825083 29.265240
v -6.632220 0.825086 28.116430
v -6.632220 -0.505481 28.116428
v -5.334440 0.825086 28.116430
v -5.334440 -0.505481 28.116428
v -5.334440 0.825083 29.265240
v -5.334440 -0.505484 29.265240
vn -1.0000 -0.0000 0.0000
vn 0.0000 0.0000 -1.0000
vn 1.0000 0.0000 0.0000
vn 0.0000 0.0000 1.0000
vn 0.0000 -1.0000 -0.0000
vn 0.0000 1.0000 0.0000
usemtl None.559
s 1
f 9//7 10//7 11//7 12//7
f 12//8 11//8 13//8 14//8
f 14//9 13//9 15//9 16//9
f 16//10 15//10 10//10 9//10
f 12//11 14//11 16//11 9//11
f 13//12 11//12 10//12 15//12
