# Blender v2.79 (sub 0) OBJ File: ''
# www.blender.org
mtllib bomb19.mtl
o Cube_Cube.191
v -49.853279 11.017780 -1.175025
v -49.853279 13.017779 -1.175025
v -47.853294 13.017780 -1.167670
v -47.853294 11.017781 -1.167670
v -47.860649 13.017780 0.832316
v -47.860649 11.017781 0.832316
v -49.860634 13.017779 0.824962
v -49.860634 11.017780 0.824962
vn 0.0037 0.0000 -1.0000
vn 1.0000 0.0000 0.0037
vn -0.0037 0.0000 1.0000
vn -1.0000 0.0000 -0.0037
vn 0.0000 -1.0000 0.0000
vn -0.0000 1.0000 -0.0000
usemtl None.1266
s 1
f 1//1 2//1 3//1 4//1
f 4//2 3//2 5//2 6//2
f 6//3 5//3 7//3 8//3
f 8//4 7//4 2//4 1//4
f 4//5 6//5 8//5 1//5
f 5//6 3//6 2//6 7//6
o Cube_Cube.000_Cube_Cube.192
v -65.258514 11.017780 -1.231681
v -65.258514 13.017779 -1.231681
v -63.258530 13.017780 -1.224326
v -63.258530 11.017781 -1.224326
v -63.265884 13.017780 0.775661
v -63.265884 11.017781 0.775661
v -65.265869 13.017779 0.768306
v -65.265869 11.017780 0.768306
vn 0.0037 0.0000 -1.0000
vn 1.0000 0.0000 0.0037
vn -0.0037 0.0000 1.0000
vn -1.0000 0.0000 -0.0037
vn 0.0000 -1.0000 0.0000
vn -0.0000 1.0000 -0.0000
usemtl None.1268
s 1
f 9//7 10//7 11//7 12//7
f 12//8 11//8 13//8 14//8
f 14//9 13//9 15//9 16//9
f 16//10 15//10 10//10 9//10
f 12//11 14//11 16//11 9//11
f 13//12 11//12 10//12 15//12
o Cube_Cube.002_Cube_Cube.194
v -72.976822 11.017780 -1.231681
v -72.976822 13.017779 -1.231681
v -70.976837 13.017780 -1.224326
v -70.976837 11.017781 -1.224326
v -70.984192 13.017780 0.775661
v -70.984192 11.017781 0.775661
v -72.984177 13.017779 0.768306
v -72.984177 11.017780 0.768306
vn 0.0037 0.0000 -1.0000
vn 1.0000 0.0000 0.0037
vn -0.0037 0.0000 1.0000
vn -1.0000 0.0000 -0.0037
vn 0.0000 -1.0000 0.0000
vn -0.0000 1.0000 -0.0000
usemtl None.1270
s 1
f 17//13 18//13 19//13 20//13
f 20//14 19//14 21//14 22//14
f 22//15 21//15 23//15 24//15
f 24//16 23//16 18//16 17//16
f 20//17 22//17 24//17 17//17
f 21//18 19//18 18//18 23//18
o Cube_Cube.001_Cube_Cube.193
v -57.571587 11.017780 -1.175025
v -57.571587 13.017779 -1.175025
v -55.571602 13.017780 -1.167670
v -55.571602 11.017781 -1.167670
v -55.578957 13.017780 0.832316
v -55.578957 11.017781 0.832316
v -57.578941 13.017779 0.824962
v -57.578941 11.017780 0.824962
vn 0.0037 0.0000 -1.0000
vn 1.0000 0.0000 0.0037
vn -0.0037 0.0000 1.0000
vn -1.0000 0.0000 -0.0037
vn 0.0000 -1.0000 0.0000
vn -0.0000 1.0000 -0.0000
usemtl None.1269
s 1
f 25//19 26//19 27//19 28//19
f 28//20 27//20 29//20 30//20
f 30//21 29//21 31//21 32//21
f 32//22 31//22 26//22 25//22
f 28//23 30//23 32//23 25//23
f 29//24 27//24 26//24 31//24
