# Blender v2.79 (sub 0) OBJ File: ''
# www.blender.org
mtllib finish18.mtl
o Icosphere.000
v -0.676248 1.599894 15.959083
v -0.250925 1.749238 16.268095
v -0.838704 1.749238 16.459076
v 0.047360 2.152673 16.484808
v 0.174400 2.074157 15.959083
v -1.201978 1.749241 15.959083
v -0.838704 1.749239 15.459086
v -0.250925 1.749240 15.650072
v 0.274810 2.599894 16.268095
v -0.952636 2.152673 16.809732
v -0.413379 2.074154 16.768095
v -0.676248 2.599893 16.959084
v -1.570673 2.152677 15.959083
v -1.364437 2.074155 16.459080
v -1.627305 2.599894 16.268095
v -0.952636 2.152674 15.108434
v -1.364437 2.074157 15.459085
v -1.264034 2.599894 15.150065
v 0.047360 2.152674 15.433357
v -0.413379 2.074156 15.150072
v -0.088460 2.599894 15.150065
v -0.088460 2.599893 16.768101
v -1.264034 2.599893 16.768101
v -1.627305 2.599894 15.650070
v -0.676248 2.599894 14.959083
v 0.274810 2.599894 15.650070
v -0.399858 3.047111 16.809732
v 0.011942 3.125629 16.459080
v -0.513792 3.450547 16.459078
v -1.399855 3.047112 16.484808
v -0.939116 3.125630 16.768095
v -1.101571 3.450547 16.268095
v -1.399855 3.047113 15.433358
v -1.526895 3.125628 15.959083
v -1.101571 3.450548 15.650072
v -0.399858 3.047113 15.108434
v -0.939116 3.125631 15.150072
v -0.513792 3.450548 15.459087
v 0.218178 3.047109 15.959083
v 0.011942 3.125630 15.459085
v -0.150517 3.450544 15.959083
v -0.676248 3.599894 15.959083
vn 0.1024 -0.9435 0.3151
vn 0.7002 -0.6617 0.2680
vn -0.2680 -0.9435 0.1947
vn -0.2680 -0.9435 -0.1947
vn 0.1024 -0.9435 -0.3151
vn 0.9050 -0.3304 0.2680
vn 0.0247 -0.3304 0.9435
vn -0.8897 -0.3304 0.3151
vn -0.5746 -0.3304 -0.7488
vn 0.5346 -0.3304 -0.7779
vn 0.8026 -0.1256 0.5831
vn -0.3066 -0.1256 0.9435
vn -0.9921 -0.1256 0.0000
vn -0.3066 -0.1256 -0.9435
vn 0.8026 -0.1256 -0.5831
vn 0.4089 0.6617 0.6284
vn -0.4713 0.6617 0.5831
vn -0.7002 0.6617 -0.2680
vn 0.0385 0.6617 -0.7488
vn 0.7240 0.6617 -0.1947
vn 0.2680 0.9435 -0.1947
vn 0.4911 0.7947 -0.3568
vn 0.4089 0.6617 -0.6284
vn -0.1024 0.9435 -0.3151
vn -0.1876 0.7947 -0.5773
vn -0.4713 0.6617 -0.5831
vn -0.3313 0.9435 0.0000
vn -0.6071 0.7947 0.0000
vn -0.7002 0.6617 0.2680
vn -0.1024 0.9435 0.3151
vn -0.1876 0.7947 0.5773
vn 0.0385 0.6617 0.7488
vn 0.2680 0.9435 0.1947
vn 0.4911 0.7947 0.3568
vn 0.7240 0.6617 0.1947
vn 0.8897 0.3304 -0.3151
vn 0.7947 0.1876 -0.5773
vn 0.5746 0.3304 -0.7488
vn -0.0247 0.3304 -0.9435
vn -0.3035 0.1876 -0.9342
vn -0.5346 0.3304 -0.7779
vn -0.9050 0.3304 -0.2680
vn -0.9822 0.1876 0.0000
vn -0.9050 0.3304 0.2680
vn -0.5346 0.3304 0.7779
vn -0.3035 0.1876 0.9342
vn -0.0247 0.3304 0.9435
vn 0.5746 0.3304 0.7488
vn 0.7947 0.1876 0.5773
vn 0.8897 0.3304 0.3151
vn 0.3066 0.1256 -0.9435
vn 0.3035 -0.1876 -0.9342
vn 0.0247 -0.3304 -0.9435
vn -0.8026 0.1256 -0.5831
vn -0.7947 -0.1876 -0.5773
vn -0.8897 -0.3304 -0.3151
vn -0.8026 0.1256 0.5831
vn -0.7947 -0.1876 0.5773
vn -0.5746 -0.3304 0.7488
vn 0.3066 0.1256 0.9435
vn 0.3035 -0.1876 0.9342
vn 0.5346 -0.3304 0.7779
vn 0.9921 0.1256 0.0000
vn 0.9822 -0.1876 0.0000
vn 0.9050 -0.3304 -0.2680
vn 0.4713 -0.6617 -0.5831
vn 0.1876 -0.7947 -0.5773
vn -0.0385 -0.6617 -0.7488
vn -0.4089 -0.6617 -0.6284
vn -0.4911 -0.7947 -0.3568
vn -0.7240 -0.6617 -0.1947
vn -0.7240 -0.6617 0.1947
vn -0.4911 -0.7947 0.3568
vn -0.4089 -0.6617 0.6284
vn 0.7002 -0.6617 -0.2680
vn 0.6071 -0.7947 -0.0000
vn 0.3313 -0.9435 -0.0000
vn -0.0385 -0.6617 0.7488
vn 0.1876 -0.7947 0.5773
vn 0.4713 -0.6617 0.5831
usemtl None.862
s 1
f 1//1 2//1 3//1
f 4//2 2//2 5//2
f 1//3 3//3 6//3
f 1//4 6//4 7//4
f 1//5 7//5 8//5
f 4//6 5//6 9//6
f 10//7 11//7 12//7
f 13//8 14//8 15//8
f 16//9 17//9 18//9
f 19//10 20//10 21//10
f 4//11 9//11 22//11
f 10//12 12//12 23//12
f 13//13 15//13 24//13
f 16//14 18//14 25//14
f 19//15 21//15 26//15
f 27//16 28//16 29//16
f 30//17 31//17 32//17
f 33//18 34//18 35//18
f 36//19 37//19 38//19
f 39//20 40//20 41//20
f 41//21 38//21 42//21
f 41//22 40//22 38//22
f 40//23 36//23 38//23
f 38//24 35//24 42//24
f 38//25 37//25 35//25
f 37//26 33//26 35//26
f 35//27 32//27 42//27
f 35//28 34//28 32//28
f 34//29 30//29 32//29
f 32//30 29//30 42//30
f 32//31 31//31 29//31
f 31//32 27//32 29//32
f 29//33 41//33 42//33
f 29//34 28//34 41//34
f 28//35 39//35 41//35
f 26//36 40//36 39//36
f 26//37 21//37 40//37
f 21//38 36//38 40//38
f 25//39 37//39 36//39
f 25//40 18//40 37//40
f 18//41 33//41 37//41
f 24//42 34//42 33//42
f 24//43 15//43 34//43
f 15//44 30//44 34//44
f 23//45 31//45 30//45
f 23//46 12//46 31//46
f 12//47 27//47 31//47
f 22//48 28//48 27//48
f 22//49 9//49 28//49
f 9//50 39//50 28//50
f 21//51 25//51 36//51
f 21//52 20//52 25//52
f 20//53 16//53 25//53
f 18//54 24//54 33//54
f 18//55 17//55 24//55
f 17//56 13//56 24//56
f 15//57 23//57 30//57
f 15//58 14//58 23//58
f 14//59 10//59 23//59
f 12//60 22//60 27//60
f 12//61 11//61 22//61
f 11//62 4//62 22//62
f 9//63 26//63 39//63
f 9//64 5//64 26//64
f 5//65 19//65 26//65
f 8//66 20//66 19//66
f 8//67 7//67 20//67
f 7//68 16//68 20//68
f 7//69 17//69 16//69
f 7//70 6//70 17//70
f 6//71 13//71 17//71
f 6//72 14//72 13//72
f 6//73 3//73 14//73
f 3//74 10//74 14//74
f 5//75 8//75 19//75
f 5//76 2//76 8//76
f 2//77 1//77 8//77
f 3//78 11//78 10//78
f 3//79 2//79 11//79
f 2//80 4//80 11//80
