# Blender v2.79 (sub 0) OBJ File: ''
# www.blender.org
mtllib finish19.mtl
o Icosphere.003
v -2.317151 11.831498 46.896133
v -1.891828 11.980842 47.205147
v -2.479607 11.980842 47.396126
v -1.593543 12.384277 47.421860
v -1.466503 12.305761 46.896133
v -2.842881 11.980844 46.896133
v -2.479607 11.980843 46.396137
v -1.891828 11.980844 46.587120
v -1.366093 12.831498 47.205147
v -2.593539 12.384277 47.746780
v -2.054282 12.305758 47.705147
v -2.317151 12.831497 47.896133
v -3.211576 12.384281 46.896133
v -3.005340 12.305759 47.396130
v -3.268208 12.831498 47.205147
v -2.593539 12.384278 46.045483
v -3.005340 12.305761 46.396133
v -2.904937 12.831498 46.087116
v -1.593543 12.384277 46.370407
v -2.054282 12.305760 46.087120
v -1.729363 12.831498 46.087116
v -1.729363 12.831497 47.705151
v -2.904937 12.831497 47.705151
v -3.268208 12.831498 46.587120
v -2.317151 12.831498 45.896133
v -1.366093 12.831498 46.587120
v -2.040761 13.278715 47.746780
v -1.628961 13.357233 47.396130
v -2.154695 13.682151 47.396126
v -3.040758 13.278716 47.421860
v -2.580019 13.357234 47.705147
v -2.742474 13.682151 47.205147
v -3.040758 13.278717 46.370407
v -3.167798 13.357232 46.896133
v -2.742474 13.682152 46.587124
v -2.040761 13.278717 46.045486
v -2.580019 13.357235 46.087124
v -2.154695 13.682152 46.396137
v -1.422725 13.278713 46.896133
v -1.628961 13.357234 46.396137
v -1.791420 13.682148 46.896133
v -2.317151 13.831498 46.896133
vn 0.1024 -0.9435 0.3151
vn 0.7002 -0.6617 0.2680
vn -0.2680 -0.9435 0.1947
vn -0.2680 -0.9435 -0.1947
vn 0.1024 -0.9435 -0.3151
vn 0.9050 -0.3304 0.2680
vn 0.0247 -0.3304 0.9435
vn -0.8897 -0.3304 0.3151
vn -0.5746 -0.3304 -0.7488
vn 0.5346 -0.3304 -0.7779
vn 0.8026 -0.1256 0.5831
vn -0.3066 -0.1256 0.9435
vn -0.9921 -0.1256 0.0000
vn -0.3066 -0.1256 -0.9435
vn 0.8026 -0.1256 -0.5831
vn 0.4089 0.6617 0.6284
vn -0.4713 0.6617 0.5831
vn -0.7002 0.6617 -0.2680
vn 0.0385 0.6617 -0.7488
vn 0.7240 0.6617 -0.1947
vn 0.2680 0.9435 -0.1947
vn 0.4911 0.7947 -0.3568
vn 0.4089 0.6617 -0.6284
vn -0.1024 0.9435 -0.3151
vn -0.1876 0.7947 -0.5773
vn -0.4713 0.6617 -0.5831
vn -0.3313 0.9435 0.0000
vn -0.6071 0.7947 0.0000
vn -0.7002 0.6617 0.2680
vn -0.1024 0.9435 0.3151
vn -0.1876 0.7947 0.5773
vn 0.0385 0.6617 0.7488
vn 0.2680 0.9435 0.1947
vn 0.4911 0.7947 0.3568
vn 0.7240 0.6617 0.1947
vn 0.8897 0.3304 -0.3151
vn 0.7947 0.1876 -0.5773
vn 0.5746 0.3304 -0.7488
vn -0.0247 0.3304 -0.9435
vn -0.3035 0.1876 -0.9342
vn -0.5346 0.3304 -0.7779
vn -0.9050 0.3304 -0.2680
vn -0.9822 0.1876 0.0000
vn -0.9050 0.3304 0.2680
vn -0.5346 0.3304 0.7779
vn -0.3035 0.1876 0.9342
vn -0.0247 0.3304 0.9435
vn 0.5746 0.3304 0.7488
vn 0.7947 0.1876 0.5773
vn 0.8897 0.3304 0.3151
vn 0.3066 0.1256 -0.9435
vn 0.3035 -0.1876 -0.9342
vn 0.0247 -0.3304 -0.9435
vn -0.8026 0.1256 -0.5831
vn -0.7947 -0.1876 -0.5773
vn -0.8897 -0.3304 -0.3151
vn -0.8026 0.1256 0.5831
vn -0.7947 -0.1876 0.5773
vn -0.5746 -0.3304 0.7488
vn 0.3066 0.1256 0.9435
vn 0.3035 -0.1876 0.9342
vn 0.5346 -0.3304 0.7779
vn 0.9921 0.1256 0.0000
vn 0.9822 -0.1876 0.0000
vn 0.9050 -0.3304 -0.2680
vn 0.4713 -0.6617 -0.5831
vn 0.1876 -0.7947 -0.5773
vn -0.0385 -0.6617 -0.7488
vn -0.4089 -0.6617 -0.6284
vn -0.4911 -0.7947 -0.3568
vn -0.7240 -0.6617 -0.1947
vn -0.7240 -0.6617 0.1947
vn -0.4911 -0.7947 0.3568
vn -0.4089 -0.6617 0.6284
vn 0.7002 -0.6617 -0.2680
vn 0.6071 -0.7947 -0.0000
vn 0.3313 -0.9435 -0.0000
vn -0.0385 -0.6617 0.7488
vn 0.1876 -0.7947 0.5773
vn 0.4713 -0.6617 0.5831
usemtl None.1272
s 1
f 1//1 2//1 3//1
f 4//2 2//2 5//2
f 1//3 3//3 6//3
f 1//4 6//4 7//4
f 1//5 7//5 8//5
f 4//6 5//6 9//6
f 10//7 11//7 12//7
f 13//8 14//8 15//8
f 16//9 17//9 18//9
f 19//10 20//10 21//10
f 4//11 9//11 22//11
f 10//12 12//12 23//12
f 13//13 15//13 24//13
f 16//14 18//14 25//14
f 19//15 21//15 26//15
f 27//16 28//16 29//16
f 30//17 31//17 32//17
f 33//18 34//18 35//18
f 36//19 37//19 38//19
f 39//20 40//20 41//20
f 41//21 38//21 42//21
f 41//22 40//22 38//22
f 40//23 36//23 38//23
f 38//24 35//24 42//24
f 38//25 37//25 35//25
f 37//26 33//26 35//26
f 35//27 32//27 42//27
f 35//28 34//28 32//28
f 34//29 30//29 32//29
f 32//30 29//30 42//30
f 32//31 31//31 29//31
f 31//32 27//32 29//32
f 29//33 41//33 42//33
f 29//34 28//34 41//34
f 28//35 39//35 41//35
f 26//36 40//36 39//36
f 26//37 21//37 40//37
f 21//38 36//38 40//38
f 25//39 37//39 36//39
f 25//40 18//40 37//40
f 18//41 33//41 37//41
f 24//42 34//42 33//42
f 24//43 15//43 34//43
f 15//44 30//44 34//44
f 23//45 31//45 30//45
f 23//46 12//46 31//46
f 12//47 27//47 31//47
f 22//48 28//48 27//48
f 22//49 9//49 28//49
f 9//50 39//50 28//50
f 21//51 25//51 36//51
f 21//52 20//52 25//52
f 20//53 16//53 25//53
f 18//54 24//54 33//54
f 18//55 17//55 24//55
f 17//56 13//56 24//56
f 15//57 23//57 30//57
f 15//58 14//58 23//58
f 14//59 10//59 23//59
f 12//60 22//60 27//60
f 12//61 11//61 22//61
f 11//62 4//62 22//62
f 9//63 26//63 39//63
f 9//64 5//64 26//64
f 5//65 19//65 26//65
f 8//66 20//66 19//66
f 8//67 7//67 20//67
f 7//68 16//68 20//68
f 7//69 17//69 16//69
f 7//70 6//70 17//70
f 6//71 13//71 17//71
f 6//72 14//72 13//72
f 6//73 3//73 14//73
f 3//74 10//74 14//74
f 5//75 8//75 19//75
f 5//76 2//76 8//76
f 2//77 1//77 8//77
f 3//78 11//78 10//78
f 3//79 2//79 11//79
f 2//80 4//80 11//80
