# Blender v2.79 (sub 0) OBJ File: ''
# www.blender.org
mtllib movingU18.mtl
o Cube.339_Cube.052
v -4.501326 -3.193421 31.154293
v -4.501326 -2.002421 31.154293
v -5.692246 -2.002421 31.140491
v -5.692246 -3.193421 31.140491
v -5.678448 -2.002420 29.949574
v -5.678448 -3.193419 29.949574
v -4.487528 -2.002420 29.963375
v -4.487528 -3.193419 29.963375
vn -0.0116 0.0000 0.9999
vn -0.9999 0.0000 -0.0116
vn 0.0116 0.0000 -0.9999
vn 0.9999 0.0000 0.0116
vn 0.0000 -1.0000 -0.0000
vn -0.0000 1.0000 0.0000
usemtl None.985
s 1
f 1//1 2//1 3//1 4//1
f 4//2 3//2 5//2 6//2
f 6//3 5//3 7//3 8//3
f 8//4 7//4 2//4 1//4
f 4//5 6//5 8//5 1//5
f 5//6 3//6 2//6 7//6
o Cube.377_Cube.052
v -2.121836 -3.193424 33.534267
v -2.121836 -2.002424 33.534267
v -0.930838 -2.002424 33.537128
v -0.930838 -3.193424 33.537128
v -0.933701 -2.002425 34.728130
v -0.933701 -3.193425 34.728130
v -2.124697 -2.002425 34.725269
v -2.124697 -3.193425 34.725269
vn 0.0024 0.0000 -1.0000
vn 1.0000 0.0000 0.0024
vn -0.0024 0.0000 1.0000
vn -1.0000 0.0000 -0.0024
vn 0.0000 -1.0000 -0.0000
vn -0.0000 1.0000 0.0000
usemtl None.985
s 1
f 9//7 10//7 11//7 12//7
f 12//8 11//8 13//8 14//8
f 14//9 13//9 15//9 16//9
f 16//10 15//10 10//10 9//10
f 12//11 14//11 16//11 9//11
f 13//12 11//12 10//12 15//12
o Cube.340_Cube.052
v -3.313290 -3.193421 31.168056
v -3.313290 -2.002421 31.168056
v -4.504210 -2.002421 31.154255
v -4.504210 -3.193421 31.154255
v -4.490412 -2.002420 29.963337
v -4.490412 -3.193419 29.963337
v -3.299492 -2.002420 29.977139
v -3.299492 -3.193419 29.977139
vn -0.0116 0.0000 0.9999
vn -0.9999 0.0000 -0.0116
vn 0.0116 0.0000 -0.9999
vn 0.9999 0.0000 0.0116
vn 0.0000 -1.0000 -0.0000
vn -0.0000 1.0000 0.0000
usemtl None.985
s 1
f 17//13 18//13 19//13 20//13
f 20//14 19//14 21//14 22//14
f 22//15 21//15 23//15 24//15
f 24//16 23//16 18//16 17//16
f 20//17 22//17 24//17 17//17
f 21//18 19//18 18//18 23//18
o Cube.365_Cube.052
v -2.115040 -3.193423 32.344563
v -2.115040 -2.002424 32.344563
v -0.924042 -2.002424 32.347424
v -0.924042 -3.193423 32.347424
v -0.926905 -2.002424 33.538425
v -0.926905 -3.193424 33.538418
v -2.117901 -2.002424 33.535557
v -2.117901 -3.193424 33.535557
vn 0.0024 0.0000 -1.0000
vn 1.0000 -0.0000 0.0024
vn -0.0024 -0.0000 1.0000
vn -1.0000 0.0000 -0.0024
vn 0.0000 -1.0000 -0.0000
vn -0.0000 1.0000 0.0000
usemtl None.985
s 1
f 25//19 26//19 27//19 28//19
f 28//20 27//20 29//20 30//20
f 30//21 29//21 31//21 32//21
f 32//22 31//22 26//22 25//22
f 28//23 30//23 32//23 25//23
f 29//24 27//24 26//24 31//24
o Cube.332_Cube.052
v -0.931097 -3.193421 31.195660
v -0.931097 -2.002421 31.195660
v -2.122017 -2.002421 31.181858
v -2.122017 -3.193421 31.181858
v -2.108220 -2.002420 29.990940
v -2.108220 -3.193419 29.990940
v -0.917300 -2.002420 30.004742
v -0.917300 -3.193419 30.004742
vn -0.0116 0.0000 0.9999
vn -0.9999 0.0000 -0.0116
vn 0.0116 0.0000 -0.9999
vn 0.9999 0.0000 0.0116
vn 0.0000 -1.0000 -0.0000
vn -0.0000 1.0000 0.0000
usemtl None.985
s 1
f 33//25 34//25 35//25 36//25
f 36//26 35//26 37//26 38//26
f 38//27 37//27 39//27 40//27
f 40//28 39//28 34//28 33//28
f 36//29 38//29 40//29 33//29
f 37//30 35//30 34//30 39//30
o Cube.370_Cube.052
v -4.504105 -3.193425 34.702808
v -4.504105 -2.002425 34.702808
v -3.313107 -2.002425 34.705669
v -3.313107 -3.193425 34.705669
v -3.315970 -2.002427 35.896671
v -3.315970 -3.193427 35.896664
v -4.506966 -2.002427 35.893803
v -4.506966 -3.193427 35.893803
vn 0.0024 0.0000 -1.0000
vn 1.0000 -0.0000 0.0024
vn -0.0024 -0.0000 1.0000
vn -1.0000 0.0000 -0.0024
vn 0.0000 -1.0000 -0.0000
vn -0.0000 1.0000 0.0000
usemtl None.985
s 1
f 41//31 42//31 43//31 44//31
f 44//32 43//32 45//32 46//32
f 46//33 45//33 47//33 48//33
f 48//34 47//34 42//34 41//34
f 44//35 46//35 48//35 41//35
f 45//36 43//36 42//36 47//36
o Cube.363_Cube.048
v 0.263656 -3.193423 32.350277
v 0.263656 -2.002424 32.350277
v 1.454654 -2.002424 32.353138
v 1.454654 -3.193423 32.353138
v 1.451791 -2.002424 33.544132
v 1.451791 -3.193424 33.544132
v 0.260795 -2.002424 33.541279
v 0.260795 -3.193424 33.541271
vn 0.0024 0.0000 -1.0000
vn 1.0000 0.0000 0.0024
vn -0.0024 -0.0000 1.0000
vn -1.0000 0.0000 -0.0024
vn 0.0000 -1.0000 -0.0000
vn -0.0000 1.0000 0.0000
usemtl None.985
s 1
f 49//37 50//37 51//37 52//37
f 52//38 51//38 53//38 54//38
f 54//39 53//39 55//39 56//39
f 56//40 55//40 50//40 49//40
f 52//41 54//41 56//41 49//41
f 53//42 51//42 50//42 55//42
o Cube.333_Cube.052
v -0.917492 -3.193419 30.021473
v -0.917492 -2.002420 30.021473
v -2.108412 -2.002420 30.007679
v -2.108412 -3.193419 30.007679
v -2.094614 -2.002419 28.816761
v -2.094614 -3.193419 28.816761
v -0.903695 -2.002419 28.830555
v -0.903695 -3.193419 28.830555
vn -0.0116 0.0000 0.9999
vn -0.9999 0.0000 -0.0116
vn 0.0116 0.0000 -0.9999
vn 0.9999 0.0000 0.0116
vn 0.0000 -1.0000 -0.0000
vn -0.0000 1.0000 0.0000
usemtl None.985
s 1
f 57//43 58//43 59//43 60//43
f 60//44 59//44 61//44 62//44
f 62//45 61//45 63//45 64//45
f 64//46 63//46 58//46 57//46
f 60//47 62//47 64//47 57//47
f 61//48 59//48 58//48 63//48
o Cube.331_Cube.052
v 0.256938 -3.193421 31.209423
v 0.256938 -2.002421 31.209423
v -0.933979 -2.002421 31.195621
v -0.933979 -3.193421 31.195621
v -0.920182 -2.002420 30.004704
v -0.920182 -3.193419 30.004704
v 0.270738 -2.002420 30.018505
v 0.270738 -3.193419 30.018505
vn -0.0116 0.0000 0.9999
vn -0.9999 0.0000 -0.0116
vn 0.0116 0.0000 -0.9999
vn 0.9999 0.0000 0.0116
vn 0.0000 -1.0000 -0.0000
vn -0.0000 1.0000 0.0000
usemtl None.985
s 1
f 65//49 66//49 67//49 68//49
f 68//50 67//50 69//50 70//50
f 70//51 69//51 71//51 72//51
f 72//52 71//52 66//52 65//52
f 68//53 70//53 72//53 65//53
f 69//54 67//54 66//54 71//54
o Cube.329_Cube.052
v -2.136569 -3.193424 32.371494
v -2.136569 -2.002424 32.371494
v -3.327487 -2.002424 32.357693
v -3.327487 -3.193423 32.357693
v -3.313689 -2.002421 31.166775
v -3.313689 -3.193421 31.166775
v -2.122769 -2.002421 31.180576
v -2.122769 -3.193421 31.180576
vn -0.0116 0.0000 0.9999
vn -0.9999 0.0000 -0.0116
vn 0.0116 0.0000 -0.9999
vn 0.9999 0.0000 0.0116
vn -0.0000 -1.0000 -0.0000
vn -0.0000 1.0000 0.0000
usemtl None.985
s 1
f 73//55 74//55 75//55 76//55
f 76//56 75//56 77//56 78//56
f 78//57 77//57 79//57 80//57
f 80//58 79//58 74//58 73//58
f 76//59 78//59 80//59 73//59
f 77//60 75//60 74//60 79//60
o Cube.375_Cube.048
v 0.260797 -3.193424 33.539997
v 0.260797 -2.002424 33.539997
v 1.451795 -2.002424 33.542858
v 1.451795 -3.193424 33.542858
v 1.448932 -2.002425 34.733852
v 1.448932 -3.193425 34.733852
v 0.257936 -2.002425 34.730991
v 0.257936 -3.193425 34.730991
vn 0.0024 0.0000 -1.0000
vn 1.0000 0.0000 0.0024
vn -0.0024 0.0000 1.0000
vn -1.0000 0.0000 -0.0024
vn 0.0000 -1.0000 -0.0000
vn -0.0000 1.0000 0.0000
usemtl None.985
s 1
f 81//61 82//61 83//61 84//61
f 84//62 83//62 85//62 86//62
f 86//63 85//63 87//63 88//63
f 88//64 87//64 82//64 81//64
f 84//65 86//65 88//65 81//65
f 85//66 83//66 82//66 87//66
o Cube.374_Cube.048
v 0.257974 -3.193425 34.714252
v 0.257974 -2.002425 34.714252
v 1.448972 -2.002425 34.717113
v 1.448972 -3.193425 34.717113
v 1.446109 -2.002427 35.908115
v 1.446109 -3.193427 35.908108
v 0.255113 -2.002427 35.905247
v 0.255113 -3.193427 35.905247
vn 0.0024 0.0000 -1.0000
vn 1.0000 -0.0000 0.0024
vn -0.0024 -0.0000 1.0000
vn -1.0000 0.0000 -0.0024
vn 0.0000 -1.0000 -0.0000
vn -0.0000 1.0000 0.0000
usemtl None.985
s 1
f 89//67 90//67 91//67 92//67
f 92//68 91//68 93//68 94//68
f 94//69 93//69 95//69 96//69
f 96//70 95//70 90//70 89//70
f 92//71 94//71 96//71 89//71
f 93//72 91//72 90//72 95//72
o Cube.373_Cube.052
v -0.933646 -3.193425 34.711384
v -0.933646 -2.002425 34.711384
v 0.257350 -2.002425 34.714252
v 0.257350 -3.193425 34.714252
v 0.254489 -2.002427 35.905247
v 0.254489 -3.193427 35.905247
v -0.936507 -2.002427 35.902386
v -0.936507 -3.193427 35.902386
vn 0.0024 0.0000 -1.0000
vn 1.0000 0.0000 0.0024
vn -0.0024 0.0000 1.0000
vn -1.0000 0.0000 -0.0024
vn 0.0000 -1.0000 -0.0000
vn -0.0000 1.0000 0.0000
usemtl None.985
s 1
f 97//73 98//73 99//73 100//73
f 100//74 99//74 101//74 102//74
f 102//75 101//75 103//75 104//75
f 104//76 103//76 98//76 97//76
f 100//77 102//77 104//77 97//77
f 101//78 99//78 98//78 103//78
o Cube.360_Cube.052
v -2.116154 -3.193421 31.170292
v -2.116154 -2.002421 31.170292
v -0.925158 -2.002421 31.173161
v -0.925158 -3.193421 31.173161
v -0.928019 -2.002424 32.364155
v -0.928019 -3.193424 32.364155
v -2.119017 -2.002424 32.361294
v -2.119017 -3.193423 32.361294
vn 0.0024 0.0000 -1.0000
vn 1.0000 0.0000 0.0024
vn -0.0024 0.0000 1.0000
vn -1.0000 0.0000 -0.0024
vn -0.0000 -1.0000 -0.0000
vn -0.0000 1.0000 0.0000
usemtl None.985
s 1
f 105//79 106//79 107//79 108//79
f 108//80 107//80 109//80 110//80
f 110//81 109//81 111//81 112//81
f 112//82 111//82 106//82 105//82
f 108//83 110//83 112//83 105//83
f 109//84 107//84 106//84 111//84
o Cube.361_Cube.052
v -0.921633 -3.193421 31.173168
v -0.921633 -2.002421 31.173168
v 0.269363 -2.002421 31.176029
v 0.269363 -3.193421 31.176029
v 0.266502 -2.002424 32.367023
v 0.266502 -3.193424 32.367023
v -0.924496 -2.002424 32.364162
v -0.924496 -3.193424 32.364162
vn 0.0024 0.0000 -1.0000
vn 1.0000 0.0000 0.0024
vn -0.0024 0.0000 1.0000
vn -1.0000 0.0000 -0.0024
vn 0.0000 -1.0000 -0.0000
vn -0.0000 1.0000 0.0000
usemtl None.985
s 1
f 113//85 114//85 115//85 116//85
f 116//86 115//86 117//86 118//86
f 118//87 117//87 119//87 120//87
f 120//88 119//88 114//88 113//88
f 116//89 118//89 120//89 113//89
f 117//90 115//90 114//90 119//90
o Cube.368_Cube.052
v -3.309662 -3.193424 33.531414
v -3.309662 -2.002424 33.531414
v -2.118664 -2.002424 33.534275
v -2.118664 -3.193424 33.534275
v -2.121527 -2.002425 34.725277
v -2.121527 -3.193425 34.725269
v -3.312523 -2.002425 34.722416
v -3.312523 -3.193425 34.722408
vn 0.0024 0.0000 -1.0000
vn 1.0000 0.0000 0.0024
vn -0.0024 -0.0000 1.0000
vn -1.0000 0.0000 -0.0024
vn 0.0000 -1.0000 -0.0000
vn -0.0000 1.0000 0.0000
usemtl None.985
s 1
f 121//91 122//91 123//91 124//91
f 124//92 123//92 125//92 126//92
f 126//93 125//93 127//93 128//93
f 128//94 127//94 122//94 121//94
f 124//95 126//95 128//95 121//95
f 125//96 123//96 122//96 127//96
o Cube.325_Cube.052
v -3.340678 -3.193424 33.531879
v -3.340678 -2.002424 33.531879
v -4.531598 -2.002424 33.518085
v -4.531598 -3.193424 33.518078
v -4.517800 -2.002424 32.327160
v -4.517800 -3.193422 32.327160
v -3.326880 -2.002424 32.340961
v -3.326880 -3.193422 32.340961
vn -0.0116 -0.0000 0.9999
vn -0.9999 0.0000 -0.0116
vn 0.0116 0.0000 -0.9999
vn 0.9999 0.0000 0.0116
vn 0.0000 -1.0000 -0.0000
vn -0.0000 1.0000 0.0000
usemtl None.985
s 1
f 129//97 130//97 131//97 132//97
f 132//98 131//98 133//98 134//98
f 134//99 133//99 135//99 136//99
f 136//100 135//100 130//100 129//100
f 132//101 134//101 136//101 129//101
f 133//102 131//102 130//102 135//102
o Cube.376_Cube.052
v -0.927315 -3.193424 33.537144
v -0.927315 -2.002424 33.537144
v 0.263683 -2.002424 33.540005
v 0.263683 -3.193424 33.540005
v 0.260820 -2.002425 34.730999
v 0.260820 -3.193425 34.730999
v -0.930176 -2.002425 34.728138
v -0.930176 -3.193425 34.728138
vn 0.0024 0.0000 -1.0000
vn 1.0000 0.0000 0.0024
vn -0.0024 0.0000 1.0000
vn -1.0000 0.0000 -0.0024
vn 0.0000 -1.0000 -0.0000
vn -0.0000 1.0000 0.0000
usemtl None.985
s 1
f 137//103 138//103 139//103 140//103
f 140//104 139//104 141//104 142//104
f 142//105 141//105 143//105 144//105
f 144//106 143//106 138//106 137//106
f 140//107 142//107 144//107 137//107
f 141//108 139//108 138//108 143//108
o Cube.362_Cube.048
v 0.266477 -3.193421 31.176022
v 0.266477 -2.002421 31.176022
v 1.457475 -2.002421 31.178883
v 1.457475 -3.193421 31.178883
v 1.454612 -2.002424 32.369884
v 1.454612 -3.193424 32.369877
v 0.263616 -2.002424 32.367023
v 0.263616 -3.193424 32.367023
vn 0.0024 0.0000 -1.0000
vn 1.0000 0.0000 0.0024
vn -0.0024 -0.0000 1.0000
vn -1.0000 0.0000 -0.0024
vn 0.0000 -1.0000 -0.0000
vn -0.0000 1.0000 0.0000
usemtl None.985
s 1
f 145//109 146//109 147//109 148//109
f 148//110 147//110 149//110 150//110
f 150//111 149//111 151//111 152//111
f 152//112 151//112 146//112 145//112
f 148//113 150//113 152//113 145//113
f 149//114 147//114 146//114 151//114
o Cube.337_Cube.052
v -3.296179 -3.193419 29.993916
v -3.296179 -2.002420 29.993916
v -4.487099 -2.002420 29.980122
v -4.487099 -3.193419 29.980122
v -4.473301 -2.002418 28.789204
v -4.473301 -3.193418 28.789204
v -3.282382 -2.002418 28.802998
v -3.282382 -3.193418 28.802998
vn -0.0116 0.0000 0.9999
vn -0.9999 0.0000 -0.0116
vn 0.0116 0.0000 -0.9999
vn 0.9999 0.0000 0.0116
vn 0.0000 -1.0000 -0.0000
vn -0.0000 1.0000 0.0000
usemtl None.985
s 1
f 153//115 154//115 155//115 156//115
f 156//116 155//116 157//116 158//116
f 158//117 157//117 159//117 160//117
f 160//118 159//118 154//118 153//118
f 156//119 158//119 160//119 153//119
f 157//120 155//120 154//120 159//120
o Cube.326_Cube.052
v -4.528714 -3.193424 33.518116
v -4.528714 -2.002424 33.518116
v -5.719634 -2.002424 33.504322
v -5.719634 -3.193424 33.504322
v -5.705836 -2.002424 32.313396
v -5.705836 -3.193422 32.313396
v -4.514916 -2.002424 32.327198
v -4.514916 -3.193422 32.327198
vn -0.0116 0.0000 0.9999
vn -0.9999 0.0000 -0.0116
vn 0.0116 0.0000 -0.9999
vn 0.9999 0.0000 0.0116
vn 0.0000 -1.0000 -0.0000
vn -0.0000 1.0000 0.0000
usemtl None.985
s 1
f 161//121 162//121 163//121 164//121
f 164//122 163//122 165//122 166//122
f 166//123 165//123 167//123 168//123
f 168//124 167//124 162//124 161//124
f 164//125 166//125 168//125 161//125
f 165//126 163//126 162//126 167//126
o Cube.330_Cube.048
v 1.451383 -3.193421 31.223263
v 1.451383 -2.002421 31.223263
v 0.260463 -2.002421 31.209461
v 0.260463 -3.193421 31.209461
v 0.274261 -2.002420 30.018543
v 0.274261 -3.193419 30.018543
v 1.465181 -2.002420 30.032337
v 1.465181 -3.193419 30.032337
vn -0.0116 0.0000 0.9999
vn -0.9999 0.0000 -0.0116
vn 0.0116 0.0000 -0.9999
vn 0.9999 0.0000 0.0116
vn 0.0000 -1.0000 -0.0000
vn -0.0000 1.0000 0.0000
usemtl None.985
s 1
f 169//127 170//127 171//127 172//127
f 172//128 171//128 173//128 174//128
f 174//129 173//129 175//129 176//129
f 176//130 175//130 170//130 169//130
f 172//131 174//131 176//131 169//131
f 173//132 171//132 170//132 175//132
o Cube.371_Cube.052
v -5.691180 -3.193425 34.699955
v -5.691180 -2.002425 34.699955
v -4.500184 -2.002425 34.702816
v -4.500184 -3.193425 34.702816
v -4.503045 -2.002427 35.893818
v -4.503045 -3.193427 35.893810
v -5.694043 -2.002427 35.890949
v -5.694043 -3.193427 35.890949
vn 0.0024 0.0000 -1.0000
vn 1.0000 -0.0000 0.0024
vn -0.0024 -0.0000 1.0000
vn -1.0000 0.0000 -0.0024
vn 0.0000 -1.0000 -0.0000
vn -0.0000 1.0000 0.0000
usemtl None.985
s 1
f 177//133 178//133 179//133 180//133
f 180//134 179//134 181//134 182//134
f 182//135 181//135 183//135 184//135
f 184//136 183//136 178//136 177//136
f 180//137 182//137 184//137 177//137
f 181//138 179//138 178//138 183//138
o Cube.367_Cube.052
v -4.497775 -3.193424 33.528561
v -4.497775 -2.002424 33.528561
v -3.306777 -2.002424 33.531422
v -3.306777 -3.193424 33.531422
v -3.309640 -2.002425 34.722416
v -3.309640 -3.193425 34.722416
v -4.500638 -2.002425 34.719555
v -4.500638 -3.193425 34.719555
vn 0.0024 0.0000 -1.0000
vn 1.0000 0.0000 0.0024
vn -0.0024 0.0000 1.0000
vn -1.0000 0.0000 -0.0024
vn 0.0000 -1.0000 -0.0000
vn -0.0000 1.0000 0.0000
usemtl None.985
s 1
f 185//139 186//139 187//139 188//139
f 188//140 187//140 189//140 190//140
f 190//141 189//141 191//141 192//141
f 192//142 191//142 186//142 185//142
f 188//143 190//143 192//143 185//143
f 189//144 187//144 186//144 191//144
o Cube.328_Cube.052
v -3.323567 -3.193423 32.357738
v -3.323567 -2.002424 32.357738
v -4.514487 -2.002424 32.343945
v -4.514487 -3.193423 32.343937
v -4.500689 -2.002421 31.153019
v -4.500689 -3.193421 31.153019
v -3.309769 -2.002421 31.166821
v -3.309769 -3.193421 31.166821
vn -0.0116 -0.0000 0.9999
vn -0.9999 0.0000 -0.0116
vn 0.0116 0.0000 -0.9999
vn 0.9999 0.0000 0.0116
vn 0.0000 -1.0000 -0.0000
vn -0.0000 1.0000 0.0000
usemtl None.985
s 1
f 193//145 194//145 195//145 196//145
f 196//146 195//146 197//146 198//146
f 198//147 197//147 199//147 200//147
f 200//148 199//148 194//148 193//148
f 196//149 198//149 200//149 193//149
f 197//150 195//150 194//150 199//150
o Cube.364_Cube.052
v -0.927964 -3.193423 32.347416
v -0.927964 -2.002424 32.347416
v 0.263032 -2.002424 32.350277
v 0.263032 -3.193423 32.350277
v 0.260171 -2.002424 33.541271
v 0.260171 -3.193424 33.541271
v -0.930825 -2.002424 33.538410
v -0.930825 -3.193424 33.538410
vn 0.0024 0.0000 -1.0000
vn 1.0000 0.0000 0.0024
vn -0.0024 0.0000 1.0000
vn -1.0000 0.0000 -0.0024
vn 0.0000 -1.0000 -0.0000
vn -0.0000 1.0000 0.0000
usemtl None.985
s 1
f 201//151 202//151 203//151 204//151
f 204//152 203//152 205//152 206//152
f 206//153 205//153 207//153 208//153
f 208//154 207//154 202//154 201//154
f 204//155 206//155 208//155 201//155
f 205//156 203//156 202//156 207//156
o Cube.338_Cube.052
v -4.487723 -3.193419 29.980114
v -4.487723 -2.002420 29.980114
v -5.678643 -2.002420 29.966312
v -5.678643 -3.193419 29.966312
v -5.664845 -2.002418 28.775394
v -5.664845 -3.193418 28.775394
v -4.473925 -2.002418 28.789188
v -4.473925 -3.193418 28.789188
vn -0.0116 0.0000 0.9999
vn -0.9999 0.0000 -0.0116
vn 0.0116 0.0000 -0.9999
vn 0.9999 0.0000 0.0116
vn 0.0000 -1.0000 -0.0000
vn -0.0000 1.0000 0.0000
usemtl None.985
s 1
f 209//157 210//157 211//157 212//157
f 212//158 211//158 213//158 214//158
f 214//159 213//159 215//159 216//159
f 216//160 215//160 210//160 209//160
f 212//161 214//161 216//161 209//161
f 213//162 211//162 210//162 215//162
o Cube.366_Cube.052
v -5.692296 -3.193424 33.525684
v -5.692296 -2.002424 33.525684
v -4.501297 -2.002424 33.528553
v -4.501297 -3.193424 33.528553
v -4.504160 -2.002425 34.719547
v -4.504160 -3.193425 34.719547
v -5.695157 -2.002425 34.716686
v -5.695157 -3.193425 34.716686
vn 0.0024 0.0000 -1.0000
vn 1.0000 0.0000 0.0024
vn -0.0024 0.0000 1.0000
vn -1.0000 0.0000 -0.0024
vn 0.0000 -1.0000 -0.0000
vn -0.0000 1.0000 0.0000
usemtl None.985
s 1
f 217//163 218//163 219//163 220//163
f 220//164 219//164 221//164 222//164
f 222//165 221//165 223//165 224//165
f 224//166 223//166 218//166 217//166
f 220//167 222//167 224//167 217//167
f 221//168 219//168 218//168 223//168
o Cube.327_Cube.052
v -4.515110 -3.193423 32.343937
v -4.515110 -2.002424 32.343937
v -5.706030 -2.002424 32.330135
v -5.706030 -3.193422 32.330135
v -5.692233 -2.002421 31.139217
v -5.692233 -3.193421 31.139217
v -4.501313 -2.002421 31.153011
v -4.501313 -3.193421 31.153011
vn -0.0116 0.0000 0.9999
vn -0.9999 0.0000 -0.0116
vn 0.0116 0.0000 -0.9999
vn 0.9999 0.0000 0.0116
vn -0.0000 -1.0000 -0.0000
vn -0.0000 1.0000 0.0000
usemtl None.985
s 1
f 225//169 226//169 227//169 228//169
f 228//170 227//170 229//170 230//170
f 230//171 229//171 231//171 232//171
f 232//172 231//172 226//172 225//172
f 228//173 230//173 232//173 225//173
f 229//174 227//174 226//174 231//174
o Cube.341_Cube.052
v -2.118847 -3.193421 31.181896
v -2.118847 -2.002421 31.181896
v -3.309767 -2.002421 31.168102
v -3.309767 -3.193421 31.168102
v -3.295969 -2.002420 29.977177
v -3.295969 -3.193419 29.977177
v -2.105050 -2.002420 29.990978
v -2.105050 -3.193419 29.990978
vn -0.0116 0.0000 0.9999
vn -0.9999 0.0000 -0.0116
vn 0.0116 0.0000 -0.9999
vn 0.9999 0.0000 0.0116
vn 0.0000 -1.0000 -0.0000
vn -0.0000 1.0000 0.0000
usemtl None.985
s 1
f 233//175 234//175 235//175 236//175
f 236//176 235//176 237//176 238//176
f 238//177 237//177 239//177 240//177
f 240//178 239//178 234//178 233//178
f 236//179 238//179 240//179 233//179
f 237//180 235//180 234//180 239//180
o Cube.336_Cube.052
v -2.109179 -3.193419 30.007671
v -2.109179 -2.002420 30.007671
v -3.300099 -2.002420 29.993870
v -3.300099 -3.193419 29.993870
v -3.286301 -2.002418 28.802952
v -3.286301 -3.193418 28.802952
v -2.095381 -2.002419 28.816753
v -2.095381 -3.193419 28.816753
vn -0.0116 0.0000 0.9999
vn -0.9999 0.0000 -0.0116
vn 0.0116 0.0000 -0.9999
vn 0.9999 0.0000 0.0116
vn -0.0000 -1.0000 -0.0000
vn 0.0000 1.0000 0.0000
usemtl None.985
s 1
f 241//181 242//181 243//181 244//181
f 244//182 243//182 245//182 246//182
f 246//183 245//183 247//183 248//183
f 248//184 247//184 242//184 241//184
f 244//185 246//185 248//185 241//185
f 245//186 243//186 242//186 247//186
o Cube.372_Cube.052
v -2.120722 -3.193425 34.708530
v -2.120722 -2.002425 34.708530
v -0.929724 -2.002425 34.711399
v -0.929724 -3.193425 34.711399
v -0.932587 -2.002427 35.902393
v -0.932587 -3.193427 35.902393
v -2.123583 -2.002427 35.899532
v -2.123583 -3.193427 35.899532
vn 0.0024 0.0000 -1.0000
vn 1.0000 0.0000 0.0024
vn -0.0024 0.0000 1.0000
vn -1.0000 0.0000 -0.0024
vn 0.0000 -1.0000 -0.0000
vn -0.0000 1.0000 0.0000
usemtl None.985
s 1
f 249//187 250//187 251//187 252//187
f 252//188 251//188 253//188 254//188
f 254//189 253//189 255//189 256//189
f 256//190 255//190 250//190 249//190
f 252//191 254//191 256//191 249//191
f 253//192 251//192 250//192 255//192
o Cube.324_Cube.052
v -2.146235 -3.193424 33.545719
v -2.146235 -2.002424 33.545719
v -3.337155 -2.002424 33.531918
v -3.337155 -3.193424 33.531918
v -3.323357 -2.002424 32.341000
v -3.323357 -3.193422 32.341000
v -2.132437 -2.002424 32.354801
v -2.132437 -3.193423 32.354801
vn -0.0116 0.0000 0.9999
vn -0.9999 0.0000 -0.0116
vn 0.0116 0.0000 -0.9999
vn 0.9999 0.0000 0.0116
vn -0.0000 -1.0000 -0.0000
vn -0.0000 1.0000 0.0000
usemtl None.985
s 1
f 257//193 258//193 259//193 260//193
f 260//194 259//194 261//194 262//194
f 262//195 261//195 263//195 264//195
f 264//196 263//196 258//196 257//196
f 260//197 262//197 264//197 257//197
f 261//198 259//198 258//198 263//198
o Cube.369_Cube.052
v -3.312483 -3.193425 34.705669
v -3.312483 -2.002425 34.705669
v -2.121487 -2.002425 34.708530
v -2.121487 -3.193425 34.708530
v -2.124348 -2.002427 35.899532
v -2.124348 -3.193427 35.899525
v -3.315346 -2.002427 35.896671
v -3.315346 -3.193427 35.896664
vn 0.0024 0.0000 -1.0000
vn 1.0000 0.0000 0.0024
vn -0.0024 -0.0000 1.0000
vn -1.0000 0.0000 -0.0024
vn 0.0000 -1.0000 -0.0000
vn -0.0000 1.0000 0.0000
usemtl None.985
s 1
f 265//199 266//199 267//199 268//199
f 268//200 267//200 269//200 270//200
f 270//201 269//201 271//201 272//201
f 272//202 271//202 266//202 265//202
f 268//203 270//203 272//203 265//203
f 269//204 267//204 266//204 271//204
o Cube.335_Cube.048
v 1.461051 -3.193420 30.049030
v 1.461051 -2.002420 30.049030
v 0.270132 -2.002420 30.035236
v 0.270132 -3.193420 30.035236
v 0.283927 -2.002419 28.844318
v 0.283927 -3.193419 28.844318
v 1.474849 -2.002419 28.858112
v 1.474849 -3.193419 28.858112
vn -0.0116 0.0000 0.9999
vn -0.9999 0.0000 -0.0116
vn 0.0116 0.0000 -0.9999
vn 0.9999 0.0000 0.0116
vn 0.0000 -1.0000 -0.0000
vn -0.0000 1.0000 0.0000
usemtl None.985
s 1
f 273//205 274//205 275//205 276//205
f 276//206 275//206 277//206 278//206
f 278//207 277//207 279//207 280//207
f 280//208 279//208 274//208 273//208
f 276//209 278//209 280//209 273//209
f 277//210 275//210 274//210 279//210
o Cube.334_Cube.052
v 0.274051 -3.193420 30.035282
v 0.274051 -2.002420 30.035282
v -0.916869 -2.002420 30.021488
v -0.916869 -3.193419 30.021488
v -0.903071 -2.002419 28.830563
v -0.903071 -3.193419 28.830563
v 0.287849 -2.002419 28.844364
v 0.287849 -3.193419 28.844364
vn -0.0116 0.0000 0.9999
vn -0.9999 0.0000 -0.0116
vn 0.0116 0.0000 -0.9999
vn 0.9999 0.0000 0.0116
vn -0.0000 -1.0000 -0.0000
vn -0.0000 1.0000 0.0000
usemtl None.985
s 1
f 281//211 282//211 283//211 284//211
f 284//212 283//212 285//212 286//212
f 286//213 285//213 287//213 288//213
f 288//214 287//214 282//214 281//214
f 284//215 286//215 288//215 281//215
f 285//216 283//216 282//216 287//216
