# Blender v2.79 (sub 0) OBJ File: ''
# www.blender.org
mtllib moving14.mtl
o Cube.363_Cube.009
v 22.170301 -1.592266 -0.245515
v 22.170301 -0.401267 -0.245515
v 23.361300 -0.401267 -0.242653
v 23.361300 -1.592266 -0.242653
v 23.358437 -0.401267 0.948344
v 23.358437 -1.592267 0.948343
v 22.167440 -0.401267 0.945482
v 22.167440 -1.592267 0.945481
vn 0.0024 0.0000 -1.0000
vn 1.0000 -0.0000 0.0024
vn -0.0024 -0.0000 1.0000
vn -1.0000 0.0000 -0.0024
vn 0.0000 -1.0000 -0.0000
vn -0.0000 1.0000 0.0000
usemtl None.010
s 1
f 1//1 2//1 3//1 4//1
f 4//2 3//2 5//2 6//2
f 6//3 5//3 7//3 8//3
f 8//4 7//4 2//4 1//4
f 4//5 6//5 8//5 1//5
f 5//6 3//6 2//6 7//6
o Cube.334_Cube.009
v 22.180696 -1.592266 -2.560511
v 22.180696 -0.401266 -2.560511
v 20.989777 -0.401266 -2.574308
v 20.989777 -1.592266 -2.574308
v 21.003574 -0.401265 -3.765228
v 21.003574 -1.592265 -3.765228
v 22.194494 -0.401265 -3.751431
v 22.194494 -1.592265 -3.751431
vn -0.0116 0.0000 0.9999
vn -0.9999 0.0000 -0.0116
vn 0.0116 0.0000 -0.9999
vn 0.9999 0.0000 0.0116
vn 0.0000 -1.0000 -0.0000
vn -0.0000 1.0000 0.0000
usemtl None.010
s 1
f 9//7 10//7 11//7 12//7
f 12//8 11//8 13//8 14//8
f 14//9 13//9 15//9 16//9
f 16//10 15//10 10//10 9//10
f 12//11 14//11 16//11 9//11
f 13//12 11//12 10//12 15//12
o Cube.362_Cube.009
v 22.173122 -1.592266 -1.419770
v 22.173122 -0.401266 -1.419770
v 23.364120 -0.401266 -1.416908
v 23.364120 -1.592266 -1.416908
v 23.361258 -0.401267 -0.225911
v 23.361258 -1.592267 -0.225911
v 22.170261 -0.401267 -0.228773
v 22.170261 -1.592267 -0.228773
vn 0.0024 0.0000 -1.0000
vn 1.0000 0.0000 0.0024
vn -0.0024 0.0000 1.0000
vn -1.0000 0.0000 -0.0024
vn 0.0000 -1.0000 -0.0000
vn -0.0000 1.0000 0.0000
usemtl None.010
s 1
f 17//13 18//13 19//13 20//13
f 20//14 19//14 21//14 22//14
f 22//15 21//15 23//15 24//15
f 24//16 23//16 18//16 17//16
f 20//17 22//17 24//17 17//17
f 21//18 19//18 18//18 23//18
o Cube.369_Cube.009
v 18.594162 -1.592268 2.109879
v 18.594162 -0.401268 2.109879
v 19.785158 -0.401268 2.112741
v 19.785158 -1.592268 2.112741
v 19.782297 -0.401269 3.303738
v 19.782297 -1.592269 3.303737
v 18.591299 -0.401269 3.300875
v 18.591299 -1.592269 3.300873
vn 0.0024 0.0000 -1.0000
vn 1.0000 -0.0000 0.0024
vn -0.0024 -0.0000 1.0000
vn -1.0000 -0.0000 -0.0024
vn 0.0000 -1.0000 -0.0000
vn -0.0000 1.0000 0.0000
usemtl None.010
s 1
f 25//19 26//19 27//19 28//19
f 28//20 27//20 29//20 30//20
f 30//21 29//21 31//21 32//21
f 32//22 31//22 26//22 25//22
f 28//23 30//23 32//23 25//23
f 29//24 27//24 26//24 31//24
o Cube.333_Cube.009
v 20.989153 -1.592266 -2.574316
v 20.989153 -0.401266 -2.574316
v 19.798233 -0.401266 -2.588114
v 19.798233 -1.592266 -2.588114
v 19.812031 -0.401265 -3.779034
v 19.812031 -1.592265 -3.779034
v 21.002951 -0.401265 -3.765236
v 21.002951 -1.592265 -3.765236
vn -0.0116 0.0000 0.9999
vn -0.9999 0.0000 -0.0116
vn 0.0116 0.0000 -0.9999
vn 0.9999 0.0000 0.0116
vn 0.0000 -1.0000 -0.0000
vn -0.0000 1.0000 0.0000
usemtl None.010
s 1
f 33//25 34//25 35//25 36//25
f 36//26 35//26 37//26 38//26
f 38//27 37//27 39//27 40//27
f 40//28 39//28 34//28 33//28
f 36//29 38//29 40//29 33//29
f 37//30 35//30 34//30 39//30
o Cube.339_Cube.009
v 17.405319 -1.592266 -1.441501
v 17.405319 -0.401266 -1.441501
v 16.214399 -0.401266 -1.455297
v 16.214399 -1.592266 -1.455297
v 16.228197 -0.401266 -2.646217
v 16.228197 -1.592266 -2.646217
v 17.419117 -0.401266 -2.632420
v 17.419117 -1.592266 -2.632420
vn -0.0116 0.0000 0.9999
vn -0.9999 0.0000 -0.0116
vn 0.0116 0.0000 -0.9999
vn 0.9999 0.0000 0.0116
vn 0.0000 -1.0000 -0.0000
vn -0.0000 1.0000 0.0000
usemtl None.010
s 1
f 41//31 42//31 43//31 44//31
f 44//32 43//32 45//32 46//32
f 46//33 45//33 47//33 48//33
f 48//34 47//34 42//34 41//34
f 44//35 46//35 48//35 41//35
f 45//36 43//36 42//36 47//36
o Cube.336_Cube.009
v 19.797466 -1.592266 -2.588121
v 19.797466 -0.401266 -2.588121
v 18.606546 -0.401266 -2.601919
v 18.606546 -1.592266 -2.601919
v 18.620344 -0.401265 -3.792839
v 18.620344 -1.592265 -3.792839
v 19.811264 -0.401265 -3.779041
v 19.811264 -1.592265 -3.779041
vn -0.0116 0.0000 0.9999
vn -0.9999 0.0000 -0.0116
vn 0.0116 0.0000 -0.9999
vn 0.9999 0.0000 0.0116
vn 0.0000 -1.0000 -0.0000
vn -0.0000 1.0000 0.0000
usemtl None.010
s 1
f 49//37 50//37 51//37 52//37
f 52//38 51//38 53//38 54//38
f 54//39 53//39 55//39 56//39
f 56//40 55//40 50//40 49//40
f 52//41 54//41 56//41 49//41
f 53//42 51//42 50//42 55//42
o Cube.329_Cube.009
v 19.770079 -1.592267 -0.224300
v 19.770079 -0.401267 -0.224300
v 18.579159 -0.401267 -0.238098
v 18.579159 -1.592266 -0.238098
v 18.592957 -0.401266 -1.429018
v 18.592957 -1.592266 -1.429018
v 19.783876 -0.401266 -1.415220
v 19.783876 -1.592266 -1.415220
vn -0.0116 0.0000 0.9999
vn -0.9999 0.0000 -0.0116
vn 0.0116 0.0000 -0.9999
vn 0.9999 0.0000 0.0116
vn -0.0000 -1.0000 -0.0000
vn 0.0000 1.0000 0.0000
usemtl None.010
s 1
f 57//43 58//43 59//43 60//43
f 60//44 59//44 61//44 62//44
f 62//45 61//45 63//45 64//45
f 64//46 63//46 58//46 57//46
f 60//47 62//47 64//47 57//47
f 61//48 59//48 58//48 63//48
o Cube.330_Cube.009
v 23.358028 -1.592266 -1.372532
v 23.358028 -0.401266 -1.372532
v 22.167109 -0.401266 -1.386330
v 22.167109 -1.592266 -1.386330
v 22.180906 -0.401266 -2.577250
v 22.180906 -1.592266 -2.577250
v 23.371826 -0.401266 -2.563452
v 23.371826 -1.592266 -2.563452
vn -0.0116 0.0000 0.9999
vn -0.9999 0.0000 -0.0116
vn 0.0116 0.0000 -0.9999
vn 0.9999 0.0000 0.0116
vn 0.0000 -1.0000 -0.0000
vn -0.0000 1.0000 0.0000
usemtl None.010
s 1
f 65//49 66//49 67//49 68//49
f 68//50 67//50 69//50 70//50
f 70//51 69//51 71//51 72//51
f 72//52 71//52 66//52 65//52
f 68//53 70//53 72//53 65//53
f 69//54 67//54 66//54 71//54
o Cube.368_Cube.009
v 18.596983 -1.592267 0.935622
v 18.596983 -0.401267 0.935622
v 19.787981 -0.401267 0.938484
v 19.787981 -1.592267 0.938484
v 19.785118 -0.401268 2.129482
v 19.785118 -1.592268 2.129481
v 18.594122 -0.401268 2.126619
v 18.594122 -1.592268 2.126618
vn 0.0024 0.0000 -1.0000
vn 1.0000 -0.0000 0.0024
vn -0.0024 -0.0000 1.0000
vn -1.0000 -0.0000 -0.0024
vn 0.0000 -1.0000 -0.0000
vn -0.0000 1.0000 0.0000
usemtl None.010
s 1
f 73//55 74//55 75//55 76//55
f 76//56 75//56 77//56 78//56
f 78//57 77//57 79//57 80//57
f 80//58 79//58 74//58 73//58
f 76//59 78//59 80//59 73//59
f 77//60 75//60 74//60 79//60
o Cube.327_Cube.009
v 17.391535 -1.592266 -0.251859
v 17.391535 -0.401267 -0.251859
v 16.200615 -0.401267 -0.265656
v 16.200615 -1.592266 -0.265656
v 16.214413 -0.401266 -1.456576
v 16.214413 -1.592266 -1.456576
v 17.405333 -0.401266 -1.442779
v 17.405333 -1.592266 -1.442779
vn -0.0116 0.0000 0.9999
vn -0.9999 0.0000 -0.0116
vn 0.0116 0.0000 -0.9999
vn 0.9999 0.0000 0.0116
vn 0.0000 -1.0000 -0.0000
vn -0.0000 1.0000 0.0000
usemtl None.010
s 1
f 81//61 82//61 83//61 84//61
f 84//62 83//62 85//62 86//62
f 86//63 85//63 87//63 88//63
f 88//64 87//64 82//64 81//64
f 84//65 86//65 88//65 81//65
f 85//66 83//66 82//66 87//66
o Cube.371_Cube.009
v 16.215466 -1.592268 2.104162
v 16.215466 -0.401268 2.104162
v 17.406462 -0.401268 2.107024
v 17.406462 -1.592268 2.107024
v 17.403601 -0.401269 3.298022
v 17.403601 -1.592269 3.298020
v 16.212603 -0.401269 3.295159
v 16.212603 -1.592269 3.295157
vn 0.0024 0.0000 -1.0000
vn 1.0000 0.0000 0.0024
vn -0.0024 -0.0000 1.0000
vn -1.0000 0.0000 -0.0024
vn 0.0000 -1.0000 -0.0000
vn -0.0000 1.0000 0.0000
usemtl None.010
s 1
f 89//67 90//67 91//67 92//67
f 92//68 91//68 93//68 94//68
f 94//69 93//69 95//69 96//69
f 96//70 95//70 90//70 89//70
f 92//71 94//71 96//71 89//71
f 93//72 91//72 90//72 95//72
o Cube.370_Cube.009
v 17.402540 -1.592268 2.107015
v 17.402540 -0.401268 2.107015
v 18.593538 -0.401268 2.109877
v 18.593538 -1.592268 2.109877
v 18.590675 -0.401269 3.300874
v 18.590675 -1.592269 3.300872
v 17.399679 -0.401269 3.298011
v 17.399679 -1.592269 3.298009
vn 0.0024 0.0000 -1.0000
vn 1.0000 -0.0000 0.0024
vn -0.0024 -0.0000 1.0000
vn -1.0000 0.0000 -0.0024
vn 0.0000 -1.0000 -0.0000
vn -0.0000 1.0000 0.0000
usemtl None.010
s 1
f 97//73 98//73 99//73 100//73
f 100//74 99//74 101//74 102//74
f 102//75 101//75 103//75 104//75
f 104//76 103//76 98//76 97//76
f 100//77 102//77 104//77 97//77
f 101//78 99//78 98//78 103//78
o Cube.375_Cube.009
v 22.167442 -1.592267 0.944202
v 22.167442 -0.401267 0.944203
v 23.358440 -0.401267 0.947065
v 23.358440 -1.592267 0.947064
v 23.355577 -0.401268 2.138062
v 23.355577 -1.592268 2.138062
v 22.164581 -0.401268 2.135201
v 22.164581 -1.592268 2.135201
vn 0.0024 0.0000 -1.0000
vn 1.0000 -0.0000 0.0024
vn -0.0024 -0.0000 1.0000
vn -1.0000 -0.0000 -0.0024
vn 0.0000 -1.0000 -0.0000
vn -0.0000 1.0000 0.0000
usemtl None.010
s 1
f 105//79 106//79 107//79 108//79
f 108//80 107//80 109//80 110//80
f 110//81 109//81 111//81 112//81
f 112//82 111//82 106//82 105//82
f 108//83 110//83 112//83 105//83
f 109//84 107//84 106//84 111//84
o Cube.340_Cube.009
v 18.593355 -1.592266 -1.427735
v 18.593355 -0.401266 -1.427735
v 17.402435 -0.401266 -1.441533
v 17.402435 -1.592266 -1.441533
v 17.416233 -0.401266 -2.632453
v 17.416233 -1.592266 -2.632453
v 18.607153 -0.401266 -2.618655
v 18.607153 -1.592266 -2.618655
vn -0.0116 0.0000 0.9999
vn -0.9999 0.0000 -0.0116
vn 0.0116 0.0000 -0.9999
vn 0.9999 0.0000 0.0116
vn 0.0000 -1.0000 -0.0000
vn -0.0000 1.0000 0.0000
usemtl None.010
s 1
f 113//85 114//85 115//85 116//85
f 116//86 115//86 117//86 118//86
f 118//87 117//87 119//87 120//87
f 120//88 119//88 114//88 113//88
f 116//89 118//89 120//89 113//89
f 117//90 115//90 114//90 119//90
o Cube.372_Cube.009
v 19.785923 -1.592268 2.112741
v 19.785923 -0.401268 2.112742
v 20.976921 -0.401268 2.115604
v 20.976921 -1.592268 2.115603
v 20.974058 -0.401269 3.306602
v 20.974058 -1.592269 3.306602
v 19.783062 -0.401269 3.303739
v 19.783062 -1.592269 3.303738
vn 0.0024 0.0000 -1.0000
vn 1.0000 0.0000 0.0024
vn -0.0024 -0.0000 1.0000
vn -1.0000 -0.0000 -0.0024
vn 0.0000 -1.0000 -0.0000
vn -0.0000 1.0000 0.0000
usemtl None.010
s 1
f 121//91 122//91 123//91 124//91
f 124//92 123//92 125//92 126//92
f 126//93 125//93 127//93 128//93
f 128//94 127//94 122//94 121//94
f 124//95 126//95 128//95 121//95
f 125//96 123//96 122//96 127//96
o Cube.376_Cube.009
v 20.979330 -1.592267 0.941348
v 20.979330 -0.401267 0.941348
v 22.170328 -0.401267 0.944210
v 22.170328 -1.592267 0.944210
v 22.167465 -0.401268 2.135207
v 22.167465 -1.592268 2.135207
v 20.976469 -0.401268 2.132345
v 20.976469 -1.592268 2.132345
vn 0.0024 0.0000 -1.0000
vn 1.0000 -0.0000 0.0024
vn -0.0024 -0.0000 1.0000
vn -1.0000 0.0000 -0.0024
vn 0.0000 -1.0000 -0.0000
vn -0.0000 1.0000 0.0000
usemtl None.010
s 1
f 129//97 130//97 131//97 132//97
f 132//98 131//98 133//98 134//98
f 134//99 133//99 135//99 136//99
f 136//100 135//100 130//100 129//100
f 132//101 134//101 136//101 129//101
f 133//102 131//102 130//102 135//102
o Cube.366_Cube.009
v 16.214350 -1.592267 0.929895
v 16.214350 -0.401267 0.929896
v 17.405348 -0.401267 0.932759
v 17.405348 -1.592267 0.932758
v 17.402485 -0.401268 2.123755
v 17.402485 -1.592268 2.123755
v 16.211489 -0.401268 2.120893
v 16.211489 -1.592268 2.120893
vn 0.0024 0.0000 -1.0000
vn 1.0000 0.0000 0.0024
vn -0.0024 -0.0000 1.0000
vn -1.0000 0.0000 -0.0024
vn 0.0000 -1.0000 -0.0000
vn -0.0000 1.0000 0.0000
usemtl None.010
s 1
f 137//103 138//103 139//103 140//103
f 140//104 139//104 141//104 142//104
f 142//105 141//105 143//105 144//105
f 144//106 143//106 138//106 137//106
f 140//107 142//107 144//107 137//107
f 141//108 139//108 138//108 143//108
o Cube.335_Cube.009
v 23.367697 -1.592266 -2.546759
v 23.367697 -0.401266 -2.546759
v 22.176777 -0.401266 -2.560555
v 22.176777 -1.592266 -2.560555
v 22.190575 -0.401265 -3.751475
v 22.190575 -1.592265 -3.751475
v 23.381495 -0.401265 -3.737678
v 23.381495 -1.592265 -3.737678
vn -0.0116 0.0000 0.9999
vn -0.9999 0.0000 -0.0116
vn 0.0116 0.0000 -0.9999
vn 0.9999 0.0000 0.0116
vn 0.0000 -1.0000 -0.0000
vn -0.0000 1.0000 0.0000
usemtl None.010
s 1
f 145//109 146//109 147//109 148//109
f 148//110 147//110 149//110 150//110
f 150//111 149//111 151//111 152//111
f 152//112 151//112 146//112 145//112
f 148//113 150//113 152//113 145//113
f 149//114 147//114 146//114 151//114
o Cube.338_Cube.009
v 17.418922 -1.592266 -2.615680
v 17.418922 -0.401266 -2.615680
v 16.228003 -0.401266 -2.629477
v 16.228003 -1.592266 -2.629477
v 16.241800 -0.401265 -3.820397
v 16.241800 -1.592265 -3.820397
v 17.432720 -0.401265 -3.806600
v 17.432720 -1.592265 -3.806600
vn -0.0116 0.0000 0.9999
vn -0.9999 0.0000 -0.0116
vn 0.0116 0.0000 -0.9999
vn 0.9999 0.0000 0.0116
vn 0.0000 -1.0000 -0.0000
vn -0.0000 1.0000 0.0000
usemtl None.010
s 1
f 153//115 154//115 155//115 156//115
f 156//116 155//116 157//116 158//116
f 158//117 157//117 159//117 160//117
f 160//118 159//118 154//118 153//118
f 156//119 158//119 160//119 153//119
f 157//120 155//120 154//120 159//120
o Cube.360_Cube.009
v 19.790491 -1.592266 -1.425496
v 19.790491 -0.401266 -1.425496
v 20.981487 -0.401266 -1.422634
v 20.981487 -1.592266 -1.422634
v 20.978626 -0.401267 -0.231637
v 20.978626 -1.592267 -0.231637
v 19.787628 -0.401267 -0.234499
v 19.787628 -1.592266 -0.234499
vn 0.0024 0.0000 -1.0000
vn 1.0000 0.0000 0.0024
vn -0.0024 0.0000 1.0000
vn -1.0000 0.0000 -0.0024
vn -0.0000 -1.0000 -0.0000
vn -0.0000 1.0000 0.0000
usemtl None.010
s 1
f 161//121 162//121 163//121 164//121
f 164//122 163//122 165//122 166//122
f 166//123 165//123 167//123 168//123
f 168//124 167//124 162//124 161//124
f 164//125 166//125 168//125 161//125
f 165//126 163//126 162//126 167//126
o Cube.377_Cube.009
v 19.784809 -1.592267 0.938477
v 19.784809 -0.401267 0.938477
v 20.975807 -0.401267 0.941339
v 20.975807 -1.592267 0.941339
v 20.972944 -0.401268 2.132336
v 20.972944 -1.592268 2.132336
v 19.781948 -0.401268 2.129474
v 19.781948 -1.592268 2.129474
vn 0.0024 0.0000 -1.0000
vn 1.0000 0.0000 0.0024
vn -0.0024 -0.0000 1.0000
vn -1.0000 -0.0000 -0.0024
vn 0.0000 -1.0000 -0.0000
vn -0.0000 1.0000 0.0000
usemtl None.010
s 1
f 169//127 170//127 171//127 172//127
f 172//128 171//128 173//128 174//128
f 174//129 173//129 175//129 176//129
f 176//130 175//130 170//130 169//130
f 172//131 174//131 176//131 169//131
f 173//132 171//132 170//132 175//132
o Cube.341_Cube.009
v 19.787798 -1.592266 -1.413896
v 19.787798 -0.401266 -1.413896
v 18.596878 -0.401266 -1.427693
v 18.596878 -1.592266 -1.427693
v 18.610676 -0.401266 -2.618613
v 18.610676 -1.592266 -2.618613
v 19.801596 -0.401266 -2.604815
v 19.801596 -1.592266 -2.604815
vn -0.0116 0.0000 0.9999
vn -0.9999 0.0000 -0.0116
vn 0.0116 0.0000 -0.9999
vn 0.9999 0.0000 0.0116
vn 0.0000 -1.0000 -0.0000
vn 0.0000 1.0000 0.0000
usemtl None.010
s 1
f 177//133 178//133 179//133 180//133
f 180//134 179//134 181//134 182//134
f 182//135 181//135 183//135 184//135
f 184//136 183//136 178//136 177//136
f 180//137 182//137 184//137 177//137
f 181//138 179//138 178//138 183//138
o Cube.361_Cube.009
v 20.985012 -1.592266 -1.422627
v 20.985012 -0.401266 -1.422627
v 22.176008 -0.401266 -1.419765
v 22.176008 -1.592266 -1.419765
v 22.173147 -0.401267 -0.228768
v 22.173147 -1.592267 -0.228768
v 20.982149 -0.401267 -0.231630
v 20.982149 -1.592267 -0.231630
vn 0.0024 0.0000 -1.0000
vn 1.0000 0.0000 0.0024
vn -0.0024 0.0000 1.0000
vn -1.0000 0.0000 -0.0024
vn 0.0000 -1.0000 -0.0000
vn 0.0000 1.0000 0.0000
usemtl None.010
s 1
f 185//139 186//139 187//139 188//139
f 188//140 187//140 189//140 190//140
f 190//141 189//141 191//141 192//141
f 192//142 191//142 186//142 185//142
f 188//143 190//143 192//143 185//143
f 189//144 187//144 186//144 191//144
o Cube.367_Cube.009
v 17.408871 -1.592267 0.932766
v 17.408871 -0.401267 0.932767
v 18.599867 -0.401267 0.935629
v 18.599867 -1.592267 0.935628
v 18.597006 -0.401268 2.126626
v 18.597006 -1.592268 2.126626
v 17.406008 -0.401268 2.123764
v 17.406008 -1.592268 2.123764
vn 0.0024 0.0000 -1.0000
vn 1.0000 -0.0000 0.0024
vn -0.0024 -0.0000 1.0000
vn -1.0000 0.0000 -0.0024
vn 0.0000 -1.0000 -0.0000
vn -0.0000 1.0000 0.0000
usemtl None.010
s 1
f 193//145 194//145 195//145 196//145
f 196//146 195//146 197//146 198//146
f 198//147 197//147 199//147 200//147
f 200//148 199//148 194//148 193//148
f 196//149 198//149 200//149 193//149
f 197//150 195//150 194//150 199//150
o Cube.373_Cube.009
v 20.973000 -1.592268 2.115594
v 20.973000 -0.401268 2.115595
v 22.163998 -0.401268 2.118457
v 22.163998 -1.592268 2.118456
v 22.161135 -0.401269 3.309454
v 22.161135 -1.592269 3.309453
v 20.970139 -0.401269 3.306592
v 20.970139 -1.592269 3.306592
vn 0.0024 0.0000 -1.0000
vn 1.0000 -0.0000 0.0024
vn -0.0024 -0.0000 1.0000
vn -1.0000 0.0000 -0.0024
vn 0.0000 -1.0000 -0.0000
vn -0.0000 1.0000 0.0000
usemtl None.010
s 1
f 201//151 202//151 203//151 204//151
f 204//152 203//152 205//152 206//152
f 206//153 205//153 207//153 208//153
f 208//154 207//154 202//154 201//154
f 204//155 206//155 208//155 201//155
f 205//156 203//156 202//156 207//156
o Cube.332_Cube.009
v 20.975548 -1.592266 -1.400133
v 20.975548 -0.401266 -1.400133
v 19.784628 -0.401266 -1.413931
v 19.784628 -1.592266 -1.413931
v 19.798426 -0.401266 -2.604851
v 19.798426 -1.592266 -2.604851
v 20.989346 -0.401266 -2.591053
v 20.989346 -1.592266 -2.591053
vn -0.0116 0.0000 0.9999
vn -0.9999 0.0000 -0.0116
vn 0.0116 0.0000 -0.9999
vn 0.9999 0.0000 0.0116
vn 0.0000 -1.0000 -0.0000
vn -0.0000 1.0000 0.0000
usemtl None.010
s 1
f 209//157 210//157 211//157 212//157
f 212//158 211//158 213//158 214//158
f 214//159 213//159 215//159 216//159
f 216//160 215//160 210//160 209//160
f 212//161 214//161 216//161 209//161
f 213//162 211//162 210//162 215//162
o Cube.328_Cube.009
v 18.583078 -1.592266 -0.238053
v 18.583078 -0.401267 -0.238053
v 17.392159 -0.401267 -0.251851
v 17.392159 -1.592266 -0.251851
v 17.405956 -0.401266 -1.442771
v 17.405956 -1.592266 -1.442771
v 18.596876 -0.401266 -1.428973
v 18.596876 -1.592266 -1.428973
vn -0.0116 0.0000 0.9999
vn -0.9999 0.0000 -0.0116
vn 0.0116 0.0000 -0.9999
vn 0.9999 0.0000 0.0116
vn 0.0000 -1.0000 -0.0000
vn -0.0000 1.0000 0.0000
usemtl None.010
s 1
f 217//163 218//163 219//163 220//163
f 220//164 219//164 221//164 222//164
f 222//165 221//165 223//165 224//165
f 224//166 223//166 218//166 217//166
f 220//167 222//167 224//167 217//167
f 221//168 219//168 218//168 223//168
o Cube.337_Cube.009
v 18.610466 -1.592266 -2.601875
v 18.610466 -0.401266 -2.601875
v 17.419546 -0.401266 -2.615673
v 17.419546 -1.592266 -2.615673
v 17.433344 -0.401265 -3.806593
v 17.433344 -1.592265 -3.806593
v 18.624264 -0.401265 -3.792795
v 18.624264 -1.592265 -3.792795
vn -0.0116 0.0000 0.9999
vn -0.9999 0.0000 -0.0116
vn 0.0116 0.0000 -0.9999
vn 0.9999 0.0000 0.0116
vn 0.0000 -1.0000 -0.0000
vn 0.0000 1.0000 0.0000
usemtl None.010
s 1
f 225//169 226//169 227//169 228//169
f 228//170 227//170 229//170 230//170
f 230//171 229//171 231//171 232//171
f 232//172 231//172 226//172 225//172
f 228//173 230//173 232//173 225//173
f 229//174 227//174 226//174 231//174
o Cube.365_Cube.009
v 19.791605 -1.592266 -0.251231
v 19.791605 -0.401267 -0.251231
v 20.982603 -0.401267 -0.248369
v 20.982603 -1.592266 -0.248369
v 20.979740 -0.401267 0.942628
v 20.979740 -1.592267 0.942627
v 19.788744 -0.401267 0.939766
v 19.788744 -1.592267 0.939765
vn 0.0024 0.0000 -1.0000
vn 1.0000 0.0000 0.0024
vn -0.0024 -0.0000 1.0000
vn -1.0000 0.0000 -0.0024
vn 0.0000 -1.0000 -0.0000
vn -0.0000 1.0000 0.0000
usemtl None.010
s 1
f 233//175 234//175 235//175 236//175
f 236//176 235//176 237//176 238//176
f 238//177 237//177 239//177 240//177
f 240//178 239//178 234//178 233//178
f 236//179 238//179 240//179 233//179
f 237//180 235//180 234//180 239//180
o Cube.324_Cube.009
v 19.760410 -1.592267 0.949924
v 19.760410 -0.401267 0.949924
v 18.569490 -0.401267 0.936127
v 18.569490 -1.592267 0.936127
v 18.583288 -0.401267 -0.254793
v 18.583288 -1.592266 -0.254793
v 19.774208 -0.401267 -0.240995
v 19.774208 -1.592266 -0.240995
vn -0.0116 -0.0000 0.9999
vn -0.9999 -0.0000 -0.0116
vn 0.0116 0.0000 -0.9999
vn 0.9999 -0.0000 0.0116
vn 0.0000 -1.0000 -0.0000
vn -0.0000 1.0000 0.0000
usemtl None.010
s 1
f 241//181 242//181 243//181 244//181
f 244//182 243//182 245//182 246//182
f 246//183 245//183 247//183 248//183
f 248//184 247//184 242//184 241//184
f 244//185 246//185 248//185 241//185
f 245//186 243//186 242//186 247//186
o Cube.374_Cube.009
v 22.164619 -1.592268 2.118459
v 22.164619 -0.401268 2.118459
v 23.355618 -0.401268 2.121321
v 23.355618 -1.592268 2.121321
v 23.352755 -0.401269 3.312318
v 23.352755 -1.592269 3.312316
v 22.161758 -0.401269 3.309456
v 22.161758 -1.592269 3.309454
vn 0.0024 0.0000 -1.0000
vn 1.0000 -0.0000 0.0024
vn -0.0024 -0.0000 1.0000
vn -1.0000 -0.0000 -0.0024
vn 0.0000 -1.0000 -0.0000
vn -0.0000 1.0000 0.0000
usemtl None.010
s 1
f 249//187 250//187 251//187 252//187
f 252//188 251//188 253//188 254//188
f 254//189 253//189 255//189 256//189
f 256//190 255//190 250//190 249//190
f 252//191 254//191 256//191 249//191
f 253//192 251//192 250//192 255//192
o Cube.364_Cube.009
v 20.978682 -1.592266 -0.248378
v 20.978682 -0.401267 -0.248378
v 22.169680 -0.401267 -0.245516
v 22.169680 -1.592266 -0.245516
v 22.166817 -0.401267 0.945480
v 22.166817 -1.592267 0.945479
v 20.975821 -0.401267 0.942620
v 20.975821 -1.592267 0.942619
vn 0.0024 0.0000 -1.0000
vn 1.0000 0.0000 0.0024
vn -0.0024 -0.0000 1.0000
vn -1.0000 0.0000 -0.0024
vn 0.0000 -1.0000 -0.0000
vn -0.0000 1.0000 0.0000
usemtl None.010
s 1
f 257//193 258//193 259//193 260//193
f 260//194 259//194 261//194 262//194
f 262//195 261//195 263//195 264//195
f 264//196 263//196 258//196 257//196
f 260//197 262//197 264//197 257//197
f 261//198 259//198 258//198 263//198
o Cube.331_Cube.009
v 22.163586 -1.592266 -1.386371
v 22.163586 -0.401266 -1.386371
v 20.972666 -0.401266 -1.400167
v 20.972666 -1.592266 -1.400167
v 20.986464 -0.401266 -2.591087
v 20.986464 -1.592266 -2.591087
v 22.177383 -0.401266 -2.577290
v 22.177383 -1.592266 -2.577290
vn -0.0116 0.0000 0.9999
vn -0.9999 0.0000 -0.0116
vn 0.0116 0.0000 -0.9999
vn 0.9999 0.0000 0.0116
vn 0.0000 -1.0000 -0.0000
vn -0.0000 1.0000 0.0000
usemtl None.010
s 1
f 265//199 266//199 267//199 268//199
f 268//200 267//200 269//200 270//200
f 270//201 269//201 271//201 272//201
f 272//202 271//202 266//202 265//202
f 268//203 270//203 272//203 265//203
f 269//204 267//204 266//204 271//204
o Cube.326_Cube.009
v 17.377932 -1.592267 0.922321
v 17.377932 -0.401267 0.922322
v 16.187012 -0.401267 0.908525
v 16.187012 -1.592267 0.908525
v 16.200809 -0.401267 -0.282395
v 16.200809 -1.592266 -0.282395
v 17.391729 -0.401267 -0.268598
v 17.391729 -1.592266 -0.268598
vn -0.0116 -0.0000 0.9999
vn -0.9999 0.0000 -0.0116
vn 0.0116 0.0000 -0.9999
vn 0.9999 0.0000 0.0116
vn 0.0000 -1.0000 -0.0000
vn -0.0000 1.0000 0.0000
usemtl None.010
s 1
f 273//205 274//205 275//205 276//205
f 276//206 275//206 277//206 278//206
f 278//207 277//207 279//207 280//207
f 280//208 279//208 274//208 273//208
f 276//209 278//209 280//209 273//209
f 277//210 275//210 274//210 279//210
o Cube.325_Cube.009
v 18.565968 -1.592267 0.936087
v 18.565968 -0.401267 0.936087
v 17.375048 -0.401267 0.922289
v 17.375048 -1.592267 0.922288
v 17.388845 -0.401267 -0.268631
v 17.388845 -1.592266 -0.268631
v 18.579765 -0.401267 -0.254833
v 18.579765 -1.592266 -0.254833
vn -0.0116 -0.0000 0.9999
vn -0.9999 0.0000 -0.0116
vn 0.0116 0.0000 -0.9999
vn 0.9999 -0.0000 0.0116
vn 0.0000 -1.0000 -0.0000
vn -0.0000 1.0000 0.0000
usemtl None.010
s 1
f 281//211 282//211 283//211 284//211
f 284//212 283//212 285//212 286//212
f 286//213 285//213 287//213 288//213
f 288//214 287//214 282//214 281//214
f 284//215 286//215 288//215 281//215
f 285//216 283//216 282//216 287//216
