# Blender v2.79 (sub 0) OBJ File: ''
# www.blender.org
mtllib moving15.mtl
o Cube.361_Cube.018
v 13.085312 -1.592266 -22.023977
v 13.085312 -0.401266 -22.023977
v 14.276308 -0.401266 -22.021116
v 14.276308 -1.592266 -22.021116
v 14.273447 -0.401267 -20.830118
v 14.273447 -1.592267 -20.830118
v 13.082449 -0.401267 -20.832981
v 13.082449 -1.592267 -20.832981
vn 0.0024 0.0000 -1.0000
vn 1.0000 0.0000 0.0024
vn -0.0024 0.0000 1.0000
vn -1.0000 0.0000 -0.0024
vn 0.0000 -1.0000 -0.0000
vn -0.0000 1.0000 0.0000
usemtl None.029
s 1
f 1//1 2//1 3//1 4//1
f 4//2 3//2 5//2 6//2
f 6//3 5//3 7//3 8//3
f 8//4 7//4 2//4 1//4
f 4//5 6//5 8//5 1//5
f 5//6 3//6 2//6 7//6
o Cube.360_Cube.018
v 11.890791 -1.592266 -22.026848
v 11.890791 -0.401266 -22.026848
v 13.081787 -0.401266 -22.023985
v 13.081787 -1.592266 -22.023985
v 13.078926 -0.401267 -20.832989
v 13.078926 -1.592267 -20.832989
v 11.887928 -0.401267 -20.835850
v 11.887928 -1.592266 -20.835850
vn 0.0024 0.0000 -1.0000
vn 1.0000 0.0000 0.0024
vn -0.0024 0.0000 1.0000
vn -1.0000 0.0000 -0.0024
vn -0.0000 -1.0000 -0.0000
vn -0.0000 1.0000 0.0000
usemtl None.029
s 1
f 9//7 10//7 11//7 12//7
f 12//8 11//8 13//8 14//8
f 14//9 13//9 15//9 16//9
f 16//10 15//10 10//10 9//10
f 12//11 14//11 16//11 9//11
f 13//12 11//12 10//12 15//12
o Cube.374_Cube.014
v 14.264919 -1.592268 -18.482891
v 14.264919 -0.401268 -18.482891
v 15.455917 -0.401268 -18.480030
v 15.455917 -1.592268 -18.480030
v 15.453054 -0.401270 -17.289032
v 15.453054 -1.592270 -17.289036
v 14.262058 -0.401270 -17.291895
v 14.262058 -1.592270 -17.291897
vn 0.0024 0.0000 -1.0000
vn 1.0000 -0.0000 0.0024
vn -0.0024 -0.0000 1.0000
vn -1.0000 0.0000 -0.0024
vn 0.0000 -1.0000 -0.0000
vn -0.0000 1.0000 0.0000
usemtl None.029
s 1
f 17//13 18//13 19//13 20//13
f 20//14 19//14 21//14 22//14
f 22//15 21//15 23//15 24//15
f 24//16 23//16 18//16 17//16
f 20//17 22//17 24//17 17//17
f 21//18 19//18 18//18 23//18
o Cube.329_Cube.018
v 11.870378 -1.592267 -20.825651
v 11.870378 -0.401267 -20.825651
v 10.679459 -0.401267 -20.839449
v 10.679459 -1.592266 -20.839449
v 10.693256 -0.401266 -22.030369
v 10.693256 -1.592266 -22.030369
v 11.884176 -0.401266 -22.016571
v 11.884176 -1.592266 -22.016571
vn -0.0116 0.0000 0.9999
vn -0.9999 0.0000 -0.0116
vn 0.0116 0.0000 -0.9999
vn 0.9999 0.0000 0.0116
vn -0.0000 -1.0000 -0.0000
vn -0.0000 1.0000 0.0000
usemtl None.029
s 1
f 25//19 26//19 27//19 28//19
f 28//20 27//20 29//20 30//20
f 30//21 29//21 31//21 32//21
f 32//22 31//22 26//22 25//22
f 28//23 30//23 32//23 25//23
f 29//24 27//24 26//24 31//24
o Cube.327_Cube.018
v 9.491835 -1.592266 -20.853210
v 9.491835 -0.401267 -20.853210
v 8.300915 -0.401267 -20.867006
v 8.300915 -1.592266 -20.867006
v 8.314713 -0.401266 -22.057926
v 8.314713 -1.592266 -22.057926
v 9.505632 -0.401266 -22.044130
v 9.505632 -1.592266 -22.044130
vn -0.0116 0.0000 0.9999
vn -0.9999 0.0000 -0.0116
vn 0.0116 0.0000 -0.9999
vn 0.9999 0.0000 0.0116
vn 0.0000 -1.0000 -0.0000
vn -0.0000 1.0000 0.0000
usemtl None.029
s 1
f 33//25 34//25 35//25 36//25
f 36//26 35//26 37//26 38//26
f 38//27 37//27 39//27 40//27
f 40//28 39//28 34//28 33//28
f 36//29 38//29 40//29 33//29
f 37//30 35//30 34//30 39//30
o Cube.331_Cube.018
v 14.263885 -1.592266 -21.987722
v 14.263885 -0.401266 -21.987722
v 13.072966 -0.401266 -22.001518
v 13.072966 -1.592266 -22.001518
v 13.086763 -0.401266 -23.192438
v 13.086763 -1.592265 -23.192438
v 14.277683 -0.401266 -23.178640
v 14.277683 -1.592265 -23.178640
vn -0.0116 0.0000 0.9999
vn -0.9999 0.0000 -0.0116
vn 0.0116 0.0000 -0.9999
vn 0.9999 0.0000 0.0116
vn 0.0000 -1.0000 -0.0000
vn -0.0000 1.0000 0.0000
usemtl None.029
s 1
f 41//31 42//31 43//31 44//31
f 44//32 43//32 45//32 46//32
f 46//33 45//33 47//33 48//33
f 48//34 47//34 42//34 41//34
f 44//35 46//35 48//35 41//35
f 45//36 43//36 42//36 47//36
o Cube.325_Cube.018
v 10.666267 -1.592267 -19.665264
v 10.666267 -0.401267 -19.665264
v 9.475348 -0.401267 -19.679062
v 9.475348 -1.592267 -19.679064
v 9.489145 -0.401267 -20.869982
v 9.489145 -1.592266 -20.869982
v 10.680065 -0.401267 -20.856184
v 10.680065 -1.592266 -20.856184
vn -0.0116 -0.0000 0.9999
vn -0.9999 0.0000 -0.0116
vn 0.0116 0.0000 -0.9999
vn 0.9999 0.0000 0.0116
vn 0.0000 -1.0000 -0.0000
vn -0.0000 1.0000 0.0000
usemtl None.029
s 1
f 49//37 50//37 51//37 52//37
f 52//38 51//38 53//38 54//38
f 54//39 53//39 55//39 56//39
f 56//40 55//40 50//40 49//40
f 52//41 54//41 56//41 49//41
f 53//42 51//42 50//42 55//42
o Cube.370_Cube.018
v 9.502840 -1.592268 -18.494335
v 9.502840 -0.401268 -18.494335
v 10.693838 -0.401268 -18.491474
v 10.693838 -1.592268 -18.491474
v 10.690975 -0.401270 -17.300476
v 10.690975 -1.592270 -17.300480
v 9.499979 -0.401270 -17.303339
v 9.499979 -1.592270 -17.303343
vn 0.0024 0.0000 -1.0000
vn 1.0000 0.0000 0.0024
vn -0.0024 -0.0000 1.0000
vn -1.0000 0.0000 -0.0024
vn 0.0000 -1.0000 -0.0000
vn -0.0000 1.0000 0.0000
usemtl None.029
s 1
f 57//43 58//43 59//43 60//43
f 60//44 59//44 61//44 62//44
f 62//45 61//45 63//45 64//45
f 64//46 63//46 58//46 57//46
f 60//47 62//47 64//47 57//47
f 61//48 59//48 58//48 63//48
o Cube.372_Cube.018
v 11.886223 -1.592268 -18.488609
v 11.886223 -0.401268 -18.488609
v 13.077221 -0.401268 -18.485746
v 13.077221 -1.592268 -18.485748
v 13.074358 -0.401270 -17.294748
v 13.074358 -1.592270 -17.294748
v 11.883362 -0.401270 -17.297611
v 11.883362 -1.592270 -17.297613
vn 0.0024 0.0000 -1.0000
vn 1.0000 0.0000 0.0024
vn -0.0024 -0.0000 1.0000
vn -1.0000 0.0000 -0.0024
vn 0.0000 -1.0000 -0.0000
vn -0.0000 1.0000 0.0000
usemtl None.029
s 1
f 65//49 66//49 67//49 68//49
f 68//50 67//50 69//50 70//50
f 70//51 69//51 71//51 72//51
f 72//52 71//52 66//52 65//52
f 68//53 70//53 72//53 65//53
f 69//54 67//54 66//54 71//54
o Cube.332_Cube.018
v 13.075848 -1.592266 -22.001484
v 13.075848 -0.401266 -22.001484
v 11.884928 -0.401266 -22.015282
v 11.884928 -1.592266 -22.015282
v 11.898726 -0.401266 -23.206202
v 11.898726 -1.592265 -23.206202
v 13.089645 -0.401266 -23.192404
v 13.089645 -1.592265 -23.192404
vn -0.0116 0.0000 0.9999
vn -0.9999 0.0000 -0.0116
vn 0.0116 0.0000 -0.9999
vn 0.9999 0.0000 0.0116
vn 0.0000 -1.0000 -0.0000
vn -0.0000 1.0000 0.0000
usemtl None.029
s 1
f 73//55 74//55 75//55 76//55
f 76//56 75//56 77//56 78//56
f 78//57 77//57 79//57 80//57
f 80//58 79//58 74//58 73//58
f 76//59 78//59 80//59 73//59
f 77//60 75//60 74//60 79//60
o Cube.339_Cube.018
v 9.505619 -1.592266 -22.042852
v 9.505619 -0.401266 -22.042852
v 8.314699 -0.401266 -22.056648
v 8.314699 -1.592266 -22.056648
v 8.328497 -0.401266 -23.247568
v 8.328497 -1.592265 -23.247568
v 9.519417 -0.401266 -23.233770
v 9.519417 -1.592265 -23.233770
vn -0.0116 0.0000 0.9999
vn -0.9999 0.0000 -0.0116
vn 0.0116 0.0000 -0.9999
vn 0.9999 0.0000 0.0116
vn 0.0000 -1.0000 -0.0000
vn -0.0000 1.0000 0.0000
usemtl None.029
s 1
f 81//61 82//61 83//61 84//61
f 84//62 83//62 85//62 86//62
f 86//63 85//63 87//63 88//63
f 88//64 87//64 82//64 81//64
f 84//65 86//65 88//65 81//65
f 85//66 83//66 82//66 87//66
o Cube.330_Cube.014
v 15.458328 -1.592266 -21.973883
v 15.458328 -0.401266 -21.973883
v 14.267408 -0.401266 -21.987680
v 14.267408 -1.592266 -21.987680
v 14.281206 -0.401266 -23.178600
v 14.281206 -1.592265 -23.178600
v 15.472126 -0.401266 -23.164803
v 15.472126 -1.592265 -23.164803
vn -0.0116 0.0000 0.9999
vn -0.9999 0.0000 -0.0116
vn 0.0116 0.0000 -0.9999
vn 0.9999 0.0000 0.0116
vn 0.0000 -1.0000 -0.0000
vn -0.0000 1.0000 0.0000
usemtl None.029
s 1
f 89//67 90//67 91//67 92//67
f 92//68 91//68 93//68 94//68
f 94//69 93//69 95//69 96//69
f 96//70 95//70 90//70 89//70
f 92//71 94//71 96//71 89//71
f 93//72 91//72 90//72 95//72
o Cube.336_Cube.018
v 11.897766 -1.592265 -23.189472
v 11.897766 -0.401266 -23.189472
v 10.706846 -0.401266 -23.203270
v 10.706846 -1.592265 -23.203270
v 10.720644 -0.401264 -24.394190
v 10.720644 -1.592264 -24.394190
v 11.911564 -0.401264 -24.380392
v 11.911564 -1.592264 -24.380392
vn -0.0116 0.0000 0.9999
vn -0.9999 0.0000 -0.0116
vn 0.0116 0.0000 -0.9999
vn 0.9999 0.0000 0.0116
vn 0.0000 -1.0000 -0.0000
vn -0.0000 1.0000 0.0000
usemtl None.029
s 1
f 97//73 98//73 99//73 100//73
f 100//74 99//74 101//74 102//74
f 102//75 101//75 103//75 104//75
f 104//76 103//76 98//76 97//76
f 100//77 102//77 104//77 97//77
f 101//78 99//78 98//78 103//78
o Cube.367_Cube.018
v 9.509171 -1.592267 -19.668585
v 9.509171 -0.401267 -19.668583
v 10.700167 -0.401267 -19.665722
v 10.700167 -1.592267 -19.665724
v 10.697306 -0.401268 -18.474724
v 10.697306 -1.592268 -18.474726
v 9.506308 -0.401268 -18.477587
v 9.506308 -1.592268 -18.477587
vn 0.0024 0.0000 -1.0000
vn 1.0000 0.0000 0.0024
vn -0.0024 -0.0000 1.0000
vn -1.0000 0.0000 -0.0024
vn 0.0000 -1.0000 -0.0000
vn -0.0000 1.0000 0.0000
usemtl None.029
s 1
f 105//79 106//79 107//79 108//79
f 108//80 107//80 109//80 110//80
f 110//81 109//81 111//81 112//81
f 112//82 111//82 106//82 105//82
f 108//83 110//83 112//83 105//83
f 109//84 107//84 106//84 111//84
o Cube.377_Cube.018
v 11.885109 -1.592267 -19.662874
v 11.885109 -0.401267 -19.662874
v 13.076107 -0.401267 -19.660011
v 13.076107 -1.592267 -19.660011
v 13.073244 -0.401268 -18.469015
v 13.073244 -1.592268 -18.469015
v 11.882248 -0.401268 -18.471876
v 11.882248 -1.592268 -18.471878
vn 0.0024 0.0000 -1.0000
vn 1.0000 0.0000 0.0024
vn -0.0024 -0.0000 1.0000
vn -1.0000 0.0000 -0.0024
vn 0.0000 -1.0000 -0.0000
vn -0.0000 1.0000 0.0000
usemtl None.029
s 1
f 113//85 114//85 115//85 116//85
f 116//86 115//86 117//86 118//86
f 118//87 117//87 119//87 120//87
f 120//88 119//88 114//88 113//88
f 116//89 118//89 120//89 113//89
f 117//90 115//90 114//90 119//90
o Cube.369_Cube.018
v 10.694462 -1.592268 -18.491472
v 10.694462 -0.401268 -18.491472
v 11.885458 -0.401268 -18.488609
v 11.885458 -1.592268 -18.488609
v 11.882597 -0.401270 -17.297613
v 11.882597 -1.592270 -17.297615
v 10.691599 -0.401270 -17.300476
v 10.691599 -1.592270 -17.300478
vn 0.0024 0.0000 -1.0000
vn 1.0000 -0.0000 0.0024
vn -0.0024 -0.0000 1.0000
vn -1.0000 0.0000 -0.0024
vn 0.0000 -1.0000 -0.0000
vn -0.0000 1.0000 0.0000
usemtl None.029
s 1
f 121//91 122//91 123//91 124//91
f 124//92 123//92 125//92 126//92
f 126//93 125//93 127//93 128//93
f 128//94 127//94 122//94 121//94
f 124//95 126//95 128//95 121//95
f 125//96 123//96 122//96 127//96
o Cube.326_Cube.018
v 9.478231 -1.592267 -19.679029
v 9.478231 -0.401267 -19.679029
v 8.287312 -0.401267 -19.692825
v 8.287312 -1.592267 -19.692825
v 8.301109 -0.401267 -20.883745
v 8.301109 -1.592266 -20.883745
v 9.492029 -0.401267 -20.869949
v 9.492029 -1.592266 -20.869949
vn -0.0116 0.0000 0.9999
vn -0.9999 0.0000 -0.0116
vn 0.0116 0.0000 -0.9999
vn 0.9999 0.0000 0.0116
vn 0.0000 -1.0000 -0.0000
vn 0.0000 1.0000 0.0000
usemtl None.029
s 1
f 129//97 130//97 131//97 132//97
f 132//98 131//98 133//98 134//98
f 134//99 133//99 135//99 136//99
f 136//100 135//100 130//100 129//100
f 132//101 134//101 136//101 129//101
f 133//102 131//102 130//102 135//102
o Cube.334_Cube.018
v 14.280996 -1.592266 -23.161861
v 14.280996 -0.401266 -23.161861
v 13.090076 -0.401266 -23.175659
v 13.090076 -1.592265 -23.175659
v 13.103874 -0.401264 -24.366579
v 13.103874 -1.592264 -24.366579
v 14.294794 -0.401264 -24.352781
v 14.294794 -1.592264 -24.352781
vn -0.0116 0.0000 0.9999
vn -0.9999 0.0000 -0.0116
vn 0.0116 0.0000 -0.9999
vn 0.9999 0.0000 0.0116
vn -0.0000 -1.0000 -0.0000
vn -0.0000 1.0000 0.0000
usemtl None.029
s 1
f 137//103 138//103 139//103 140//103
f 140//104 139//104 141//104 142//104
f 142//105 141//105 143//105 144//105
f 144//106 143//106 138//106 137//106
f 140//107 142//107 144//107 137//107
f 141//108 139//108 138//108 143//108
o Cube.333_Cube.018
v 13.089453 -1.592265 -23.175667
v 13.089453 -0.401266 -23.175667
v 11.898533 -0.401266 -23.189465
v 11.898533 -1.592265 -23.189465
v 11.912331 -0.401264 -24.380384
v 11.912331 -1.592264 -24.380384
v 13.103251 -0.401264 -24.366587
v 13.103251 -1.592264 -24.366587
vn -0.0116 0.0000 0.9999
vn -0.9999 0.0000 -0.0116
vn 0.0116 0.0000 -0.9999
vn 0.9999 0.0000 0.0116
vn 0.0000 -1.0000 -0.0000
vn -0.0000 1.0000 0.0000
usemtl None.029
s 1
f 145//109 146//109 147//109 148//109
f 148//110 147//110 149//110 150//110
f 150//111 149//111 151//111 152//111
f 152//112 151//112 146//112 145//112
f 148//113 150//113 152//113 145//113
f 149//114 147//114 146//114 151//114
o Cube.365_Cube.018
v 11.891905 -1.592266 -20.852583
v 11.891905 -0.401267 -20.852581
v 13.082903 -0.401267 -20.849720
v 13.082903 -1.592266 -20.849720
v 13.080040 -0.401267 -19.658722
v 13.080040 -1.592267 -19.658724
v 11.889044 -0.401267 -19.661585
v 11.889044 -1.592267 -19.661587
vn 0.0024 0.0000 -1.0000
vn 1.0000 0.0000 0.0024
vn -0.0024 -0.0000 1.0000
vn -1.0000 -0.0000 -0.0024
vn 0.0000 -1.0000 -0.0000
vn -0.0000 1.0000 0.0000
usemtl None.029
s 1
f 153//115 154//115 155//115 156//115
f 156//116 155//116 157//116 158//116
f 158//117 157//117 159//117 160//117
f 160//118 159//118 154//118 153//118
f 156//119 158//119 160//119 153//119
f 157//120 155//120 154//120 159//120
o Cube.335_Cube.014
v 15.467997 -1.592266 -23.148109
v 15.467997 -0.401266 -23.148109
v 14.277077 -0.401266 -23.161905
v 14.277077 -1.592266 -23.161905
v 14.290874 -0.401264 -24.352825
v 14.290874 -1.592264 -24.352825
v 15.481794 -0.401264 -24.339029
v 15.481794 -1.592264 -24.339029
vn -0.0116 0.0000 0.9999
vn -0.9999 0.0000 -0.0116
vn 0.0116 0.0000 -0.9999
vn 0.9999 0.0000 0.0116
vn 0.0000 -1.0000 -0.0000
vn 0.0000 1.0000 0.0000
usemtl None.029
s 1
f 161//121 162//121 163//121 164//121
f 164//122 163//122 165//122 166//122
f 166//123 165//123 167//123 168//123
f 168//124 167//124 162//124 161//124
f 164//125 166//125 168//125 161//125
f 165//126 163//126 162//126 167//126
o Cube.340_Cube.018
v 10.693655 -1.592266 -22.029085
v 10.693655 -0.401266 -22.029085
v 9.502735 -0.401266 -22.042885
v 9.502735 -1.592266 -22.042885
v 9.516533 -0.401266 -23.233803
v 9.516533 -1.592265 -23.233805
v 10.707453 -0.401266 -23.220005
v 10.707453 -1.592265 -23.220005
vn -0.0116 0.0000 0.9999
vn -0.9999 0.0000 -0.0116
vn 0.0116 0.0000 -0.9999
vn 0.9999 0.0000 0.0116
vn 0.0000 -1.0000 -0.0000
vn -0.0000 1.0000 0.0000
usemtl None.029
s 1
f 169//127 170//127 171//127 172//127
f 172//128 171//128 173//128 174//128
f 174//129 173//129 175//129 176//129
f 176//130 175//130 170//130 169//130
f 172//131 174//131 176//131 169//131
f 173//132 171//132 170//132 175//132
o Cube.366_Cube.018
v 8.314650 -1.592267 -19.671455
v 8.314650 -0.401267 -19.671455
v 9.505648 -0.401267 -19.668592
v 9.505648 -1.592267 -19.668592
v 9.502785 -0.401268 -18.477596
v 9.502785 -1.592268 -18.477596
v 8.311789 -0.401268 -18.480457
v 8.311789 -1.592268 -18.480457
vn 0.0024 0.0000 -1.0000
vn 1.0000 0.0000 0.0024
vn -0.0024 0.0000 1.0000
vn -1.0000 0.0000 -0.0024
vn 0.0000 -1.0000 -0.0000
vn -0.0000 1.0000 0.0000
usemtl None.029
s 1
f 177//133 178//133 179//133 180//133
f 180//134 179//134 181//134 182//134
f 182//135 181//135 183//135 184//135
f 184//136 183//136 178//136 177//136
f 180//137 182//137 184//137 177//137
f 181//138 179//138 178//138 183//138
o Cube.364_Cube.018
v 13.078981 -1.592266 -20.849730
v 13.078981 -0.401267 -20.849730
v 14.269979 -0.401267 -20.846867
v 14.269979 -1.592266 -20.846867
v 14.267117 -0.401267 -19.655870
v 14.267117 -1.592267 -19.655872
v 13.076120 -0.401267 -19.658731
v 13.076120 -1.592267 -19.658731
vn 0.0024 0.0000 -1.0000
vn 1.0000 0.0000 0.0024
vn -0.0024 -0.0000 1.0000
vn -1.0000 0.0000 -0.0024
vn 0.0000 -1.0000 -0.0000
vn -0.0000 1.0000 0.0000
usemtl None.029
s 1
f 185//139 186//139 187//139 188//139
f 188//140 187//140 189//140 190//140
f 190//141 189//141 191//141 192//141
f 192//142 191//142 186//142 185//142
f 188//143 190//143 192//143 185//143
f 189//144 187//144 186//144 191//144
o Cube.376_Cube.018
v 13.079630 -1.592267 -19.660004
v 13.079630 -0.401267 -19.660004
v 14.270628 -0.401267 -19.657141
v 14.270628 -1.592267 -19.657141
v 14.267765 -0.401268 -18.466145
v 14.267765 -1.592268 -18.466145
v 13.076769 -0.401268 -18.469006
v 13.076769 -1.592268 -18.469006
vn 0.0024 0.0000 -1.0000
vn 1.0000 0.0000 0.0024
vn -0.0024 0.0000 1.0000
vn -1.0000 0.0000 -0.0024
vn 0.0000 -1.0000 -0.0000
vn -0.0000 1.0000 0.0000
usemtl None.029
s 1
f 193//145 194//145 195//145 196//145
f 196//146 195//146 197//146 198//146
f 198//147 197//147 199//147 200//147
f 200//148 199//148 194//148 193//148
f 196//149 198//149 200//149 193//149
f 197//150 195//150 194//150 199//150
o Cube.324_Cube.018
v 11.860710 -1.592267 -19.651426
v 11.860710 -0.401267 -19.651426
v 10.669790 -0.401267 -19.665224
v 10.669790 -1.592267 -19.665224
v 10.683588 -0.401267 -20.856144
v 10.683588 -1.592266 -20.856144
v 11.874508 -0.401267 -20.842346
v 11.874508 -1.592266 -20.842346
vn -0.0116 0.0000 0.9999
vn -0.9999 0.0000 -0.0116
vn 0.0116 0.0000 -0.9999
vn 0.9999 0.0000 0.0116
vn 0.0000 -1.0000 -0.0000
vn -0.0000 1.0000 0.0000
usemtl None.029
s 1
f 201//151 202//151 203//151 204//151
f 204//152 203//152 205//152 206//152
f 206//153 205//153 207//153 208//153
f 208//154 207//154 202//154 201//154
f 204//155 206//155 208//155 201//155
f 205//156 203//156 202//156 207//156
o Cube.337_Cube.018
v 10.710766 -1.592265 -23.203226
v 10.710766 -0.401266 -23.203226
v 9.519846 -0.401266 -23.217024
v 9.519846 -1.592265 -23.217024
v 9.533644 -0.401264 -24.407944
v 9.533644 -1.592264 -24.407944
v 10.724564 -0.401264 -24.394146
v 10.724564 -1.592264 -24.394146
vn -0.0116 0.0000 0.9999
vn -0.9999 0.0000 -0.0116
vn 0.0116 0.0000 -0.9999
vn 0.9999 0.0000 0.0116
vn 0.0000 -1.0000 -0.0000
vn -0.0000 1.0000 0.0000
usemtl None.029
s 1
f 209//157 210//157 211//157 212//157
f 212//158 211//158 213//158 214//158
f 214//159 213//159 215//159 216//159
f 216//160 215//160 210//160 209//160
f 212//161 214//161 216//161 209//161
f 213//162 211//162 210//162 215//162
o Cube.373_Cube.018
v 13.073299 -1.592268 -18.485758
v 13.073299 -0.401268 -18.485756
v 14.264297 -0.401268 -18.482893
v 14.264297 -1.592268 -18.482895
v 14.261435 -0.401270 -17.291897
v 14.261435 -1.592270 -17.291899
v 13.070438 -0.401270 -17.294758
v 13.070438 -1.592270 -17.294760
vn 0.0024 0.0000 -1.0000
vn 1.0000 0.0000 0.0024
vn -0.0024 -0.0000 1.0000
vn -1.0000 0.0000 -0.0024
vn 0.0000 -1.0000 -0.0000
vn -0.0000 1.0000 0.0000
usemtl None.029
s 1
f 217//163 218//163 219//163 220//163
f 220//164 219//164 221//164 222//164
f 222//165 221//165 223//165 224//165
f 224//166 223//166 218//166 217//166
f 220//167 222//167 224//167 217//167
f 221//168 219//168 218//168 223//168
o Cube.371_Cube.018
v 8.315765 -1.592268 -18.497189
v 8.315765 -0.401268 -18.497189
v 9.506762 -0.401268 -18.494328
v 9.506762 -1.592268 -18.494328
v 9.503901 -0.401270 -17.303329
v 9.503901 -1.592270 -17.303331
v 8.312902 -0.401270 -17.306192
v 8.312902 -1.592270 -17.306194
vn 0.0024 0.0000 -1.0000
vn 1.0000 0.0000 0.0024
vn -0.0024 -0.0000 1.0000
vn -1.0000 0.0000 -0.0024
vn 0.0000 -1.0000 -0.0000
vn -0.0000 1.0000 0.0000
usemtl None.029
s 1
f 225//169 226//169 227//169 228//169
f 228//170 227//170 229//170 230//170
f 230//171 229//171 231//171 232//171
f 232//172 231//172 226//172 225//172
f 228//173 230//173 232//173 225//173
f 229//174 227//174 226//174 231//174
o Cube.338_Cube.018
v 9.519222 -1.592265 -23.217031
v 9.519222 -0.401266 -23.217031
v 8.328302 -0.401266 -23.230827
v 8.328302 -1.592265 -23.230827
v 8.342100 -0.401264 -24.421747
v 8.342100 -1.592264 -24.421747
v 9.533020 -0.401264 -24.407951
v 9.533020 -1.592264 -24.407951
vn -0.0116 0.0000 0.9999
vn -0.9999 0.0000 -0.0116
vn 0.0116 0.0000 -0.9999
vn 0.9999 0.0000 0.0116
vn 0.0000 -1.0000 -0.0000
vn -0.0000 1.0000 0.0000
usemtl None.029
s 1
f 233//175 234//175 235//175 236//175
f 236//176 235//176 237//176 238//176
f 238//177 237//177 239//177 240//177
f 240//178 239//178 234//178 233//178
f 236//179 238//179 240//179 233//179
f 237//180 235//180 234//180 239//180
o Cube.362_Cube.014
v 14.273422 -1.592266 -22.021122
v 14.273422 -0.401266 -22.021120
v 15.464420 -0.401266 -22.018259
v 15.464420 -1.592266 -22.018259
v 15.461557 -0.401267 -20.827261
v 15.461557 -1.592267 -20.827263
v 14.270561 -0.401267 -20.830124
v 14.270561 -1.592267 -20.830124
vn 0.0024 0.0000 -1.0000
vn 1.0000 0.0000 0.0024
vn -0.0024 -0.0000 1.0000
vn -1.0000 -0.0000 -0.0024
vn 0.0000 -1.0000 -0.0000
vn -0.0000 1.0000 0.0000
usemtl None.029
s 1
f 241//181 242//181 243//181 244//181
f 244//182 243//182 245//182 246//182
f 246//183 245//183 247//183 248//183
f 248//184 247//184 242//184 241//184
f 244//185 246//185 248//185 241//185
f 245//186 243//186 242//186 247//186
o Cube.328_Cube.018
v 10.683378 -1.592266 -20.839403
v 10.683378 -0.401267 -20.839403
v 9.492458 -0.401267 -20.853201
v 9.492458 -1.592266 -20.853203
v 9.506256 -0.401266 -22.044123
v 9.506256 -1.592266 -22.044123
v 10.697176 -0.401266 -22.030323
v 10.697176 -1.592266 -22.030323
vn -0.0116 -0.0000 0.9999
vn -0.9999 0.0000 -0.0116
vn 0.0116 0.0000 -0.9999
vn 0.9999 0.0000 0.0116
vn 0.0000 -1.0000 -0.0000
vn -0.0000 1.0000 0.0000
usemtl None.029
s 1
f 249//187 250//187 251//187 252//187
f 252//188 251//188 253//188 254//188
f 254//189 253//189 255//189 256//189
f 256//190 255//190 250//190 249//190
f 252//191 254//191 256//191 249//191
f 253//192 251//192 250//192 255//192
o Cube.363_Cube.014
v 14.270601 -1.592266 -20.846867
v 14.270601 -0.401267 -20.846867
v 15.461599 -0.401267 -20.844004
v 15.461599 -1.592266 -20.844004
v 15.458736 -0.401267 -19.653008
v 15.458736 -1.592267 -19.653008
v 14.267740 -0.401267 -19.655869
v 14.267740 -1.592267 -19.655870
vn 0.0024 0.0000 -1.0000
vn 1.0000 0.0000 0.0024
vn -0.0024 -0.0000 1.0000
vn -1.0000 0.0000 -0.0024
vn 0.0000 -1.0000 -0.0000
vn -0.0000 1.0000 0.0000
usemtl None.029
s 1
f 257//193 258//193 259//193 260//193
f 260//194 259//194 261//194 262//194
f 262//195 261//195 263//195 264//195
f 264//196 263//196 258//196 257//196
f 260//197 262//197 264//197 257//197
f 261//198 259//198 258//198 263//198
o Cube.368_Cube.018
v 10.697283 -1.592267 -19.665730
v 10.697283 -0.401267 -19.665730
v 11.888281 -0.401267 -19.662867
v 11.888281 -1.592267 -19.662867
v 11.885418 -0.401268 -18.471869
v 11.885418 -1.592268 -18.471870
v 10.694422 -0.401268 -18.474731
v 10.694422 -1.592268 -18.474733
vn 0.0024 0.0000 -1.0000
vn 1.0000 -0.0000 0.0024
vn -0.0024 -0.0000 1.0000
vn -1.0000 0.0000 -0.0024
vn 0.0000 -1.0000 -0.0000
vn -0.0000 1.0000 0.0000
usemtl None.029
s 1
f 265//199 266//199 267//199 268//199
f 268//200 267//200 269//200 270//200
f 270//201 269//201 271//201 272//201
f 272//202 271//202 266//202 265//202
f 268//203 270//203 272//203 265//203
f 269//204 267//204 266//204 271//204
o Cube.375_Cube.014
v 14.267742 -1.592267 -19.657148
v 14.267742 -0.401267 -19.657148
v 15.458740 -0.401267 -19.654285
v 15.458740 -1.592267 -19.654287
v 15.455877 -0.401268 -18.463289
v 15.455877 -1.592268 -18.463289
v 14.264881 -0.401268 -18.466150
v 14.264881 -1.592268 -18.466150
vn 0.0024 0.0000 -1.0000
vn 1.0000 0.0000 0.0024
vn -0.0024 0.0000 1.0000
vn -1.0000 0.0000 -0.0024
vn 0.0000 -1.0000 -0.0000
vn -0.0000 1.0000 0.0000
usemtl None.029
s 1
f 273//205 274//205 275//205 276//205
f 276//206 275//206 277//206 278//206
f 278//207 277//207 279//207 280//207
f 280//208 279//208 274//208 273//208
f 276//209 278//209 280//209 273//209
f 277//210 275//210 274//210 279//210
o Cube.341_Cube.018
v 11.888098 -1.592266 -22.015247
v 11.888098 -0.401266 -22.015247
v 10.697178 -0.401266 -22.029043
v 10.697178 -1.592266 -22.029043
v 10.710976 -0.401266 -23.219963
v 10.710976 -1.592265 -23.219963
v 11.901896 -0.401266 -23.206165
v 11.901896 -1.592265 -23.206165
vn -0.0116 0.0000 0.9999
vn -0.9999 0.0000 -0.0116
vn 0.0116 0.0000 -0.9999
vn 0.9999 0.0000 0.0116
vn 0.0000 -1.0000 -0.0000
vn -0.0000 1.0000 0.0000
usemtl None.029
s 1
f 281//211 282//211 283//211 284//211
f 284//212 283//212 285//212 286//212
f 286//213 285//213 287//213 288//213
f 288//214 287//214 282//214 281//214
f 284//215 286//215 288//215 281//215
f 285//216 283//216 282//216 287//216
