# Blender v2.79 (sub 0) OBJ File: ''
# www.blender.org
mtllib movingU16.mtl
o Cube.361_Cube.018
v 2.211922 -0.216475 -21.999941
v 2.211922 0.974525 -21.999941
v 3.402918 0.974525 -21.997080
v 3.402918 -0.216475 -21.997080
v 3.400057 0.974524 -20.806082
v 3.400057 -0.216476 -20.806082
v 2.209059 0.974524 -20.808945
v 2.209059 -0.216476 -20.808945
vn 0.0024 0.0000 -1.0000
vn 1.0000 0.0000 0.0024
vn -0.0024 0.0000 1.0000
vn -1.0000 0.0000 -0.0024
vn 0.0000 -1.0000 -0.0000
vn -0.0000 1.0000 0.0000
usemtl None.515
s 1
f 1//1 2//1 3//1 4//1
f 4//2 3//2 5//2 6//2
f 6//3 5//3 7//3 8//3
f 8//4 7//4 2//4 1//4
f 4//5 6//5 8//5 1//5
f 5//6 3//6 2//6 7//6
o Cube.360_Cube.018
v 1.017401 -0.216475 -22.002811
v 1.017401 0.974525 -22.002811
v 2.208397 0.974525 -21.999949
v 2.208397 -0.216475 -21.999949
v 2.205536 0.974524 -20.808952
v 2.205536 -0.216476 -20.808952
v 1.014538 0.974524 -20.811813
v 1.014538 -0.216475 -20.811813
vn 0.0024 0.0000 -1.0000
vn 1.0000 0.0000 0.0024
vn -0.0024 0.0000 1.0000
vn -1.0000 0.0000 -0.0024
vn -0.0000 -1.0000 -0.0000
vn -0.0000 1.0000 0.0000
usemtl None.515
s 1
f 9//7 10//7 11//7 12//7
f 12//8 11//8 13//8 14//8
f 14//9 13//9 15//9 16//9
f 16//10 15//10 10//10 9//10
f 12//11 14//11 16//11 9//11
f 13//12 11//12 10//12 15//12
o Cube.374_Cube.014
v 3.391529 -0.216478 -18.458855
v 3.391529 0.974522 -18.458855
v 4.582527 0.974522 -18.455994
v 4.582527 -0.216478 -18.455994
v 4.579664 0.974521 -17.264996
v 4.579664 -0.216479 -17.264999
v 3.388668 0.974521 -17.267859
v 3.388668 -0.216479 -17.267860
vn 0.0024 0.0000 -1.0000
vn 1.0000 -0.0000 0.0024
vn -0.0024 -0.0000 1.0000
vn -1.0000 -0.0000 -0.0024
vn 0.0000 -1.0000 -0.0000
vn -0.0000 1.0000 0.0000
usemtl None.515
s 1
f 17//13 18//13 19//13 20//13
f 20//14 19//14 21//14 22//14
f 22//15 21//15 23//15 24//15
f 24//16 23//16 18//16 17//16
f 20//17 22//17 24//17 17//17
f 21//18 19//18 18//18 23//18
o Cube.329_Cube.018
v 0.996988 -0.216476 -20.801615
v 0.996988 0.974524 -20.801615
v -0.193932 0.974524 -20.815413
v -0.193932 -0.216475 -20.815413
v -0.180134 0.974525 -22.006332
v -0.180134 -0.216475 -22.006332
v 1.010786 0.974525 -21.992535
v 1.010786 -0.216475 -21.992535
vn -0.0116 0.0000 0.9999
vn -0.9999 0.0000 -0.0116
vn 0.0116 0.0000 -0.9999
vn 0.9999 0.0000 0.0116
vn -0.0000 -1.0000 -0.0000
vn -0.0000 1.0000 0.0000
usemtl None.515
s 1
f 25//19 26//19 27//19 28//19
f 28//20 27//20 29//20 30//20
f 30//21 29//21 31//21 32//21
f 32//22 31//22 26//22 25//22
f 28//23 30//23 32//23 25//23
f 29//24 27//24 26//24 31//24
o Cube.327_Cube.018
v -1.381556 -0.216475 -20.829174
v -1.381556 0.974524 -20.829174
v -2.572475 0.974524 -20.842970
v -2.572475 -0.216475 -20.842970
v -2.558678 0.974525 -22.033890
v -2.558678 -0.216475 -22.033890
v -1.367758 0.974525 -22.020094
v -1.367758 -0.216475 -22.020094
vn -0.0116 0.0000 0.9999
vn -0.9999 0.0000 -0.0116
vn 0.0116 0.0000 -0.9999
vn 0.9999 0.0000 0.0116
vn 0.0000 -1.0000 -0.0000
vn -0.0000 1.0000 0.0000
usemtl None.515
s 1
f 33//25 34//25 35//25 36//25
f 36//26 35//26 37//26 38//26
f 38//27 37//27 39//27 40//27
f 40//28 39//28 34//28 33//28
f 36//29 38//29 40//29 33//29
f 37//30 35//30 34//30 39//30
o Cube.331_Cube.018
v 3.390495 -0.216475 -21.963686
v 3.390495 0.974525 -21.963686
v 2.199575 0.974525 -21.977482
v 2.199575 -0.216475 -21.977482
v 2.213373 0.974525 -23.168402
v 2.213373 -0.216475 -23.168402
v 3.404293 0.974525 -23.154604
v 3.404293 -0.216475 -23.154604
vn -0.0116 0.0000 0.9999
vn -0.9999 0.0000 -0.0116
vn 0.0116 0.0000 -0.9999
vn 0.9999 0.0000 0.0116
vn 0.0000 -1.0000 -0.0000
vn -0.0000 1.0000 0.0000
usemtl None.515
s 1
f 41//31 42//31 43//31 44//31
f 44//32 43//32 45//32 46//32
f 46//33 45//33 47//33 48//33
f 48//34 47//34 42//34 41//34
f 44//35 46//35 48//35 41//35
f 45//36 43//36 42//36 47//36
o Cube.325_Cube.018
v -0.207123 -0.216477 -19.641228
v -0.207123 0.974523 -19.641228
v -1.398043 0.974523 -19.655025
v -1.398043 -0.216477 -19.655027
v -1.384245 0.974524 -20.845945
v -1.384245 -0.216475 -20.845945
v -0.193325 0.974524 -20.832148
v -0.193325 -0.216475 -20.832148
vn -0.0116 -0.0000 0.9999
vn -0.9999 0.0000 -0.0116
vn 0.0116 0.0000 -0.9999
vn 0.9999 0.0000 0.0116
vn 0.0000 -1.0000 -0.0000
vn -0.0000 1.0000 0.0000
usemtl None.515
s 1
f 49//37 50//37 51//37 52//37
f 52//38 51//38 53//38 54//38
f 54//39 53//39 55//39 56//39
f 56//40 55//40 50//40 49//40
f 52//41 54//41 56//41 49//41
f 53//42 51//42 50//42 55//42
o Cube.370_Cube.018
v -1.370550 -0.216478 -18.470299
v -1.370550 0.974522 -18.470299
v -0.179552 0.974522 -18.467438
v -0.179552 -0.216478 -18.467438
v -0.182415 0.974521 -17.276440
v -0.182415 -0.216479 -17.276443
v -1.373411 0.974521 -17.279303
v -1.373411 -0.216479 -17.279306
vn 0.0024 0.0000 -1.0000
vn 1.0000 -0.0000 0.0024
vn -0.0024 -0.0000 1.0000
vn -1.0000 0.0000 -0.0024
vn 0.0000 -1.0000 -0.0000
vn -0.0000 1.0000 0.0000
usemtl None.515
s 1
f 57//43 58//43 59//43 60//43
f 60//44 59//44 61//44 62//44
f 62//45 61//45 63//45 64//45
f 64//46 63//46 58//46 57//46
f 60//47 62//47 64//47 57//47
f 61//48 59//48 58//48 63//48
o Cube.372_Cube.018
v 1.012833 -0.216478 -18.464573
v 1.012833 0.974522 -18.464573
v 2.203831 0.974522 -18.461710
v 2.203831 -0.216478 -18.461712
v 2.200968 0.974521 -17.270712
v 2.200968 -0.216479 -17.270712
v 1.009972 0.974521 -17.273575
v 1.009972 -0.216479 -17.273577
vn 0.0024 0.0000 -1.0000
vn 1.0000 -0.0000 0.0024
vn -0.0024 -0.0000 1.0000
vn -1.0000 0.0000 -0.0024
vn 0.0000 -1.0000 -0.0000
vn -0.0000 1.0000 0.0000
usemtl None.515
s 1
f 65//49 66//49 67//49 68//49
f 68//50 67//50 69//50 70//50
f 70//51 69//51 71//51 72//51
f 72//52 71//52 66//52 65//52
f 68//53 70//53 72//53 65//53
f 69//54 67//54 66//54 71//54
o Cube.332_Cube.018
v 2.202457 -0.216475 -21.977448
v 2.202457 0.974525 -21.977448
v 1.011538 0.974525 -21.991245
v 1.011538 -0.216475 -21.991245
v 1.025335 0.974525 -23.182165
v 1.025335 -0.216475 -23.182165
v 2.216255 0.974525 -23.168367
v 2.216255 -0.216475 -23.168367
vn -0.0116 0.0000 0.9999
vn -0.9999 0.0000 -0.0116
vn 0.0116 0.0000 -0.9999
vn 0.9999 0.0000 0.0116
vn 0.0000 -1.0000 -0.0000
vn -0.0000 1.0000 0.0000
usemtl None.515
s 1
f 73//55 74//55 75//55 76//55
f 76//56 75//56 77//56 78//56
f 78//57 77//57 79//57 80//57
f 80//58 79//58 74//58 73//58
f 76//59 78//59 80//59 73//59
f 77//60 75//60 74//60 79//60
o Cube.339_Cube.018
v -1.367771 -0.216475 -22.018816
v -1.367771 0.974525 -22.018816
v -2.558691 0.974525 -22.032612
v -2.558691 -0.216475 -22.032612
v -2.544893 0.974525 -23.223532
v -2.544893 -0.216475 -23.223532
v -1.353973 0.974525 -23.209734
v -1.353973 -0.216475 -23.209734
vn -0.0116 0.0000 0.9999
vn -0.9999 0.0000 -0.0116
vn 0.0116 0.0000 -0.9999
vn 0.9999 0.0000 0.0116
vn 0.0000 -1.0000 -0.0000
vn -0.0000 1.0000 0.0000
usemtl None.515
s 1
f 81//61 82//61 83//61 84//61
f 84//62 83//62 85//62 86//62
f 86//63 85//63 87//63 88//63
f 88//64 87//64 82//64 81//64
f 84//65 86//65 88//65 81//65
f 85//66 83//66 82//66 87//66
o Cube.330_Cube.014
v 4.584938 -0.216475 -21.949846
v 4.584938 0.974525 -21.949846
v 3.394018 0.974525 -21.963644
v 3.394018 -0.216475 -21.963644
v 3.407816 0.974525 -23.154564
v 3.407816 -0.216475 -23.154564
v 4.598736 0.974525 -23.140766
v 4.598736 -0.216475 -23.140766
vn -0.0116 0.0000 0.9999
vn -0.9999 0.0000 -0.0116
vn 0.0116 0.0000 -0.9999
vn 0.9999 0.0000 0.0116
vn 0.0000 -1.0000 -0.0000
vn -0.0000 1.0000 0.0000
usemtl None.515
s 1
f 89//67 90//67 91//67 92//67
f 92//68 91//68 93//68 94//68
f 94//69 93//69 95//69 96//69
f 96//70 95//70 90//70 89//70
f 92//71 94//71 96//71 89//71
f 93//72 91//72 90//72 95//72
o Cube.336_Cube.018
v 1.024376 -0.216475 -23.165436
v 1.024376 0.974525 -23.165436
v -0.166544 0.974525 -23.179234
v -0.166544 -0.216475 -23.179234
v -0.152746 0.974526 -24.370153
v -0.152746 -0.216474 -24.370153
v 1.038174 0.974526 -24.356356
v 1.038174 -0.216474 -24.356356
vn -0.0116 0.0000 0.9999
vn -0.9999 0.0000 -0.0116
vn 0.0116 0.0000 -0.9999
vn 0.9999 0.0000 0.0116
vn 0.0000 -1.0000 -0.0000
vn -0.0000 1.0000 0.0000
usemtl None.515
s 1
f 97//73 98//73 99//73 100//73
f 100//74 99//74 101//74 102//74
f 102//75 101//75 103//75 104//75
f 104//76 103//76 98//76 97//76
f 100//77 102//77 104//77 97//77
f 101//78 99//78 98//78 103//78
o Cube.367_Cube.018
v -1.364220 -0.216477 -19.644548
v -1.364220 0.974523 -19.644547
v -0.173223 0.974523 -19.641685
v -0.173223 -0.216477 -19.641687
v -0.176085 0.974522 -18.450687
v -0.176085 -0.216478 -18.450689
v -1.367083 0.974522 -18.453550
v -1.367083 -0.216478 -18.453550
vn 0.0024 0.0000 -1.0000
vn 1.0000 -0.0000 0.0024
vn -0.0024 -0.0000 1.0000
vn -1.0000 0.0000 -0.0024
vn 0.0000 -1.0000 -0.0000
vn -0.0000 1.0000 0.0000
usemtl None.515
s 1
f 105//79 106//79 107//79 108//79
f 108//80 107//80 109//80 110//80
f 110//81 109//81 111//81 112//81
f 112//82 111//82 106//82 105//82
f 108//83 110//83 112//83 105//83
f 109//84 107//84 106//84 111//84
o Cube.377_Cube.018
v 1.011719 -0.216477 -19.638838
v 1.011719 0.974523 -19.638838
v 2.202717 0.974523 -19.635975
v 2.202717 -0.216477 -19.635975
v 2.199854 0.974522 -18.444979
v 2.199854 -0.216478 -18.444979
v 1.008858 0.974522 -18.447840
v 1.008858 -0.216478 -18.447842
vn 0.0024 0.0000 -1.0000
vn 1.0000 0.0000 0.0024
vn -0.0024 -0.0000 1.0000
vn -1.0000 0.0000 -0.0024
vn 0.0000 -1.0000 -0.0000
vn -0.0000 1.0000 0.0000
usemtl None.515
s 1
f 113//85 114//85 115//85 116//85
f 116//86 115//86 117//86 118//86
f 118//87 117//87 119//87 120//87
f 120//88 119//88 114//88 113//88
f 116//89 118//89 120//89 113//89
f 117//90 115//90 114//90 119//90
o Cube.369_Cube.018
v -0.178928 -0.216478 -18.467436
v -0.178928 0.974522 -18.467436
v 1.012068 0.974522 -18.464573
v 1.012068 -0.216478 -18.464573
v 1.009207 0.974521 -17.273577
v 1.009207 -0.216479 -17.273579
v -0.181791 0.974521 -17.276440
v -0.181791 -0.216479 -17.276442
vn 0.0024 0.0000 -1.0000
vn 1.0000 0.0000 0.0024
vn -0.0024 -0.0000 1.0000
vn -1.0000 0.0000 -0.0024
vn 0.0000 -1.0000 -0.0000
vn -0.0000 1.0000 0.0000
usemtl None.515
s 1
f 121//91 122//91 123//91 124//91
f 124//92 123//92 125//92 126//92
f 126//93 125//93 127//93 128//93
f 128//94 127//94 122//94 121//94
f 124//95 126//95 128//95 121//95
f 125//96 123//96 122//96 127//96
o Cube.326_Cube.018
v -1.395159 -0.216477 -19.654993
v -1.395159 0.974523 -19.654993
v -2.586079 0.974523 -19.668789
v -2.586079 -0.216477 -19.668789
v -2.572281 0.974524 -20.859709
v -2.572281 -0.216475 -20.859709
v -1.381361 0.974524 -20.845913
v -1.381361 -0.216475 -20.845913
vn -0.0116 0.0000 0.9999
vn -0.9999 0.0000 -0.0116
vn 0.0116 0.0000 -0.9999
vn 0.9999 0.0000 0.0116
vn 0.0000 -1.0000 -0.0000
vn -0.0000 1.0000 0.0000
usemtl None.515
s 1
f 129//97 130//97 131//97 132//97
f 132//98 131//98 133//98 134//98
f 134//99 133//99 135//99 136//99
f 136//100 135//100 130//100 129//100
f 132//101 134//101 136//101 129//101
f 133//102 131//102 130//102 135//102
o Cube.334_Cube.018
v 3.407606 -0.216475 -23.137825
v 3.407606 0.974525 -23.137825
v 2.216686 0.974525 -23.151623
v 2.216686 -0.216475 -23.151623
v 2.230484 0.974526 -24.342543
v 2.230484 -0.216474 -24.342543
v 3.421404 0.974526 -24.328745
v 3.421404 -0.216474 -24.328745
vn -0.0116 0.0000 0.9999
vn -0.9999 0.0000 -0.0116
vn 0.0116 0.0000 -0.9999
vn 0.9999 0.0000 0.0116
vn -0.0000 -1.0000 -0.0000
vn -0.0000 1.0000 0.0000
usemtl None.515
s 1
f 137//103 138//103 139//103 140//103
f 140//104 139//104 141//104 142//104
f 142//105 141//105 143//105 144//105
f 144//106 143//106 138//106 137//106
f 140//107 142//107 144//107 137//107
f 141//108 139//108 138//108 143//108
o Cube.333_Cube.018
v 2.216063 -0.216475 -23.151630
v 2.216063 0.974525 -23.151630
v 1.025143 0.974525 -23.165428
v 1.025143 -0.216475 -23.165428
v 1.038940 0.974526 -24.356348
v 1.038940 -0.216474 -24.356348
v 2.229860 0.974526 -24.342550
v 2.229860 -0.216474 -24.342550
vn -0.0116 0.0000 0.9999
vn -0.9999 0.0000 -0.0116
vn 0.0116 0.0000 -0.9999
vn 0.9999 0.0000 0.0116
vn 0.0000 -1.0000 -0.0000
vn -0.0000 1.0000 0.0000
usemtl None.515
s 1
f 145//109 146//109 147//109 148//109
f 148//110 147//110 149//110 150//110
f 150//111 149//111 151//111 152//111
f 152//112 151//112 146//112 145//112
f 148//113 150//113 152//113 145//113
f 149//114 147//114 146//114 151//114
o Cube.365_Cube.018
v 1.018515 -0.216475 -20.828547
v 1.018515 0.974524 -20.828545
v 2.209513 0.974524 -20.825684
v 2.209513 -0.216475 -20.825684
v 2.206650 0.974523 -19.634686
v 2.206650 -0.216477 -19.634687
v 1.015654 0.974523 -19.637548
v 1.015654 -0.216477 -19.637550
vn 0.0024 0.0000 -1.0000
vn 1.0000 -0.0000 0.0024
vn -0.0024 -0.0000 1.0000
vn -1.0000 0.0000 -0.0024
vn 0.0000 -1.0000 -0.0000
vn -0.0000 1.0000 0.0000
usemtl None.515
s 1
f 153//115 154//115 155//115 156//115
f 156//116 155//116 157//116 158//116
f 158//117 157//117 159//117 160//117
f 160//118 159//118 154//118 153//118
f 156//119 158//119 160//119 153//119
f 157//120 155//120 154//120 159//120
o Cube.335_Cube.014
v 4.594606 -0.216475 -23.124073
v 4.594606 0.974525 -23.124073
v 3.403687 0.974525 -23.137869
v 3.403687 -0.216475 -23.137869
v 3.417484 0.974526 -24.328789
v 3.417484 -0.216474 -24.328789
v 4.608404 0.974526 -24.314993
v 4.608404 -0.216474 -24.314993
vn -0.0116 0.0000 0.9999
vn -0.9999 0.0000 -0.0116
vn 0.0116 0.0000 -0.9999
vn 0.9999 0.0000 0.0116
vn 0.0000 -1.0000 -0.0000
vn 0.0000 1.0000 0.0000
usemtl None.515
s 1
f 161//121 162//121 163//121 164//121
f 164//122 163//122 165//122 166//122
f 166//123 165//123 167//123 168//123
f 168//124 167//124 162//124 161//124
f 164//125 166//125 168//125 161//125
f 165//126 163//126 162//126 167//126
o Cube.340_Cube.018
v -0.179735 -0.216475 -22.005049
v -0.179735 0.974525 -22.005049
v -1.370655 0.974525 -22.018848
v -1.370655 -0.216475 -22.018848
v -1.356857 0.974525 -23.209766
v -1.356857 -0.216475 -23.209768
v -0.165937 0.974525 -23.195969
v -0.165937 -0.216475 -23.195969
vn -0.0116 0.0000 0.9999
vn -0.9999 -0.0000 -0.0116
vn 0.0116 0.0000 -0.9999
vn 0.9999 0.0000 0.0116
vn 0.0000 -1.0000 -0.0000
vn -0.0000 1.0000 0.0000
usemtl None.515
s 1
f 169//127 170//127 171//127 172//127
f 172//128 171//128 173//128 174//128
f 174//129 173//129 175//129 176//129
f 176//130 175//130 170//130 169//130
f 172//131 174//131 176//131 169//131
f 173//132 171//132 170//132 175//132
o Cube.366_Cube.018
v -2.558741 -0.216477 -19.647419
v -2.558741 0.974523 -19.647419
v -1.367743 0.974523 -19.644556
v -1.367743 -0.216477 -19.644556
v -1.370605 0.974522 -18.453560
v -1.370605 -0.216478 -18.453560
v -2.561602 0.974522 -18.456421
v -2.561602 -0.216478 -18.456421
vn 0.0024 0.0000 -1.0000
vn 1.0000 0.0000 0.0024
vn -0.0024 0.0000 1.0000
vn -1.0000 0.0000 -0.0024
vn 0.0000 -1.0000 -0.0000
vn -0.0000 1.0000 0.0000
usemtl None.515
s 1
f 177//133 178//133 179//133 180//133
f 180//134 179//134 181//134 182//134
f 182//135 181//135 183//135 184//135
f 184//136 183//136 178//136 177//136
f 180//137 182//137 184//137 177//137
f 181//138 179//138 178//138 183//138
o Cube.364_Cube.018
v 2.205591 -0.216475 -20.825693
v 2.205591 0.974524 -20.825693
v 3.396589 0.974524 -20.822830
v 3.396589 -0.216475 -20.822830
v 3.393726 0.974523 -19.631834
v 3.393726 -0.216477 -19.631836
v 2.202730 0.974523 -19.634695
v 2.202730 -0.216477 -19.634695
vn 0.0024 0.0000 -1.0000
vn 1.0000 -0.0000 0.0024
vn -0.0024 -0.0000 1.0000
vn -1.0000 0.0000 -0.0024
vn 0.0000 -1.0000 -0.0000
vn -0.0000 1.0000 0.0000
usemtl None.515
s 1
f 185//139 186//139 187//139 188//139
f 188//140 187//140 189//140 190//140
f 190//141 189//141 191//141 192//141
f 192//142 191//142 186//142 185//142
f 188//143 190//143 192//143 185//143
f 189//144 187//144 186//144 191//144
o Cube.376_Cube.018
v 2.206240 -0.216477 -19.635967
v 2.206240 0.974523 -19.635967
v 3.397238 0.974523 -19.633104
v 3.397238 -0.216477 -19.633104
v 3.394375 0.974522 -18.442108
v 3.394375 -0.216478 -18.442108
v 2.203379 0.974522 -18.444969
v 2.203379 -0.216478 -18.444969
vn 0.0024 0.0000 -1.0000
vn 1.0000 0.0000 0.0024
vn -0.0024 0.0000 1.0000
vn -1.0000 0.0000 -0.0024
vn 0.0000 -1.0000 -0.0000
vn -0.0000 1.0000 0.0000
usemtl None.515
s 1
f 193//145 194//145 195//145 196//145
f 196//146 195//146 197//146 198//146
f 198//147 197//147 199//147 200//147
f 200//148 199//148 194//148 193//148
f 196//149 198//149 200//149 193//149
f 197//150 195//150 194//150 199//150
o Cube.324_Cube.018
v 0.987320 -0.216477 -19.627390
v 0.987320 0.974523 -19.627390
v -0.203600 0.974523 -19.641188
v -0.203600 -0.216477 -19.641188
v -0.189802 0.974524 -20.832108
v -0.189802 -0.216475 -20.832108
v 1.001118 0.974524 -20.818310
v 1.001118 -0.216475 -20.818310
vn -0.0116 0.0000 0.9999
vn -0.9999 0.0000 -0.0116
vn 0.0116 0.0000 -0.9999
vn 0.9999 0.0000 0.0116
vn 0.0000 -1.0000 -0.0000
vn -0.0000 1.0000 0.0000
usemtl None.515
s 1
f 201//151 202//151 203//151 204//151
f 204//152 203//152 205//152 206//152
f 206//153 205//153 207//153 208//153
f 208//154 207//154 202//154 201//154
f 204//155 206//155 208//155 201//155
f 205//156 203//156 202//156 207//156
o Cube.337_Cube.018
v -0.162624 -0.216475 -23.179190
v -0.162624 0.974525 -23.179190
v -1.353544 0.974525 -23.192987
v -1.353544 -0.216475 -23.192987
v -1.339746 0.974526 -24.383907
v -1.339746 -0.216474 -24.383907
v -0.148827 0.974526 -24.370110
v -0.148827 -0.216474 -24.370110
vn -0.0116 0.0000 0.9999
vn -0.9999 0.0000 -0.0116
vn 0.0116 0.0000 -0.9999
vn 0.9999 0.0000 0.0116
vn 0.0000 -1.0000 -0.0000
vn -0.0000 1.0000 0.0000
usemtl None.515
s 1
f 209//157 210//157 211//157 212//157
f 212//158 211//158 213//158 214//158
f 214//159 213//159 215//159 216//159
f 216//160 215//160 210//160 209//160
f 212//161 214//161 216//161 209//161
f 213//162 211//162 210//162 215//162
o Cube.373_Cube.018
v 2.199909 -0.216478 -18.461721
v 2.199909 0.974522 -18.461720
v 3.390907 0.974522 -18.458857
v 3.390907 -0.216478 -18.458858
v 3.388044 0.974521 -17.267860
v 3.388044 -0.216479 -17.267862
v 2.197048 0.974521 -17.270721
v 2.197048 -0.216479 -17.270723
vn 0.0024 0.0000 -1.0000
vn 1.0000 -0.0000 0.0024
vn -0.0024 -0.0000 1.0000
vn -1.0000 -0.0000 -0.0024
vn 0.0000 -1.0000 -0.0000
vn -0.0000 1.0000 0.0000
usemtl None.515
s 1
f 217//163 218//163 219//163 220//163
f 220//164 219//164 221//164 222//164
f 222//165 221//165 223//165 224//165
f 224//166 223//166 218//166 217//166
f 220//167 222//167 224//167 217//167
f 221//168 219//168 218//168 223//168
o Cube.371_Cube.018
v -2.557625 -0.216478 -18.473152
v -2.557625 0.974522 -18.473152
v -1.366629 0.974522 -18.470291
v -1.366629 -0.216478 -18.470291
v -1.369490 0.974521 -17.279293
v -1.369490 -0.216479 -17.279295
v -2.560488 0.974521 -17.282156
v -2.560488 -0.216479 -17.282158
vn 0.0024 0.0000 -1.0000
vn 1.0000 0.0000 0.0024
vn -0.0024 -0.0000 1.0000
vn -1.0000 -0.0000 -0.0024
vn 0.0000 -1.0000 -0.0000
vn -0.0000 1.0000 0.0000
usemtl None.515
s 1
f 225//169 226//169 227//169 228//169
f 228//170 227//170 229//170 230//170
f 230//171 229//171 231//171 232//171
f 232//172 231//172 226//172 225//172
f 228//173 230//173 232//173 225//173
f 229//174 227//174 226//174 231//174
o Cube.338_Cube.018
v -1.354168 -0.216475 -23.192995
v -1.354168 0.974525 -23.192995
v -2.545088 0.974525 -23.206791
v -2.545088 -0.216475 -23.206791
v -2.531290 0.974526 -24.397711
v -2.531290 -0.216474 -24.397711
v -1.340370 0.974526 -24.383915
v -1.340370 -0.216474 -24.383915
vn -0.0116 0.0000 0.9999
vn -0.9999 0.0000 -0.0116
vn 0.0116 0.0000 -0.9999
vn 0.9999 0.0000 0.0116
vn 0.0000 -1.0000 -0.0000
vn -0.0000 1.0000 0.0000
usemtl None.515
s 1
f 233//175 234//175 235//175 236//175
f 236//176 235//176 237//176 238//176
f 238//177 237//177 239//177 240//177
f 240//178 239//178 234//178 233//178
f 236//179 238//179 240//179 233//179
f 237//180 235//180 234//180 239//180
o Cube.362_Cube.014
v 3.400032 -0.216475 -21.997086
v 3.400032 0.974525 -21.997084
v 4.591030 0.974525 -21.994223
v 4.591030 -0.216475 -21.994223
v 4.588167 0.974524 -20.803225
v 4.588167 -0.216476 -20.803226
v 3.397171 0.974524 -20.806087
v 3.397171 -0.216476 -20.806087
vn 0.0024 0.0000 -1.0000
vn 1.0000 0.0000 0.0024
vn -0.0024 -0.0000 1.0000
vn -1.0000 -0.0000 -0.0024
vn 0.0000 -1.0000 -0.0000
vn -0.0000 1.0000 0.0000
usemtl None.515
s 1
f 241//181 242//181 243//181 244//181
f 244//182 243//182 245//182 246//182
f 246//183 245//183 247//183 248//183
f 248//184 247//184 242//184 241//184
f 244//185 246//185 248//185 241//185
f 245//186 243//186 242//186 247//186
o Cube.328_Cube.018
v -0.190012 -0.216475 -20.815367
v -0.190012 0.974524 -20.815367
v -1.380932 0.974524 -20.829165
v -1.380932 -0.216475 -20.829166
v -1.367134 0.974525 -22.020086
v -1.367134 -0.216475 -22.020086
v -0.176214 0.974525 -22.006287
v -0.176214 -0.216475 -22.006287
vn -0.0116 -0.0000 0.9999
vn -0.9999 0.0000 -0.0116
vn 0.0116 0.0000 -0.9999
vn 0.9999 0.0000 0.0116
vn 0.0000 -1.0000 -0.0000
vn -0.0000 1.0000 0.0000
usemtl None.515
s 1
f 249//187 250//187 251//187 252//187
f 252//188 251//188 253//188 254//188
f 254//189 253//189 255//189 256//189
f 256//190 255//190 250//190 249//190
f 252//191 254//191 256//191 249//191
f 253//192 251//192 250//192 255//192
o Cube.363_Cube.014
v 3.397211 -0.216475 -20.822830
v 3.397211 0.974524 -20.822830
v 4.588209 0.974524 -20.819967
v 4.588209 -0.216475 -20.819967
v 4.585346 0.974523 -19.628971
v 4.585346 -0.216477 -19.628971
v 3.394350 0.974523 -19.631832
v 3.394350 -0.216477 -19.631834
vn 0.0024 0.0000 -1.0000
vn 1.0000 0.0000 0.0024
vn -0.0024 -0.0000 1.0000
vn -1.0000 0.0000 -0.0024
vn 0.0000 -1.0000 -0.0000
vn -0.0000 1.0000 0.0000
usemtl None.515
s 1
f 257//193 258//193 259//193 260//193
f 260//194 259//194 261//194 262//194
f 262//195 261//195 263//195 264//195
f 264//196 263//196 258//196 257//196
f 260//197 262//197 264//197 257//197
f 261//198 259//198 258//198 263//198
o Cube.368_Cube.018
v -0.176107 -0.216477 -19.641693
v -0.176107 0.974523 -19.641693
v 1.014891 0.974523 -19.638830
v 1.014891 -0.216477 -19.638830
v 1.012028 0.974522 -18.447832
v 1.012028 -0.216478 -18.447834
v -0.178968 0.974522 -18.450695
v -0.178968 -0.216478 -18.450697
vn 0.0024 0.0000 -1.0000
vn 1.0000 0.0000 0.0024
vn -0.0024 -0.0000 1.0000
vn -1.0000 0.0000 -0.0024
vn 0.0000 -1.0000 -0.0000
vn -0.0000 1.0000 0.0000
usemtl None.515
s 1
f 265//199 266//199 267//199 268//199
f 268//200 267//200 269//200 270//200
f 270//201 269//201 271//201 272//201
f 272//202 271//202 266//202 265//202
f 268//203 270//203 272//203 265//203
f 269//204 267//204 266//204 271//204
o Cube.375_Cube.014
v 3.394352 -0.216477 -19.633112
v 3.394352 0.974523 -19.633112
v 4.585350 0.974523 -19.630249
v 4.585350 -0.216477 -19.630251
v 4.582487 0.974522 -18.439253
v 4.582487 -0.216478 -18.439253
v 3.391491 0.974522 -18.442114
v 3.391491 -0.216478 -18.442114
vn 0.0024 0.0000 -1.0000
vn 1.0000 0.0000 0.0024
vn -0.0024 0.0000 1.0000
vn -1.0000 0.0000 -0.0024
vn 0.0000 -1.0000 -0.0000
vn -0.0000 1.0000 0.0000
usemtl None.515
s 1
f 273//205 274//205 275//205 276//205
f 276//206 275//206 277//206 278//206
f 278//207 277//207 279//207 280//207
f 280//208 279//208 274//208 273//208
f 276//209 278//209 280//209 273//209
f 277//210 275//210 274//210 279//210
o Cube.341_Cube.018
v 1.014708 -0.216475 -21.991211
v 1.014708 0.974525 -21.991211
v -0.176212 0.974525 -22.005007
v -0.176212 -0.216475 -22.005007
v -0.162415 0.974525 -23.195927
v -0.162415 -0.216475 -23.195927
v 1.028505 0.974525 -23.182129
v 1.028505 -0.216475 -23.182129
vn -0.0116 0.0000 0.9999
vn -0.9999 0.0000 -0.0116
vn 0.0116 0.0000 -0.9999
vn 0.9999 0.0000 0.0116
vn 0.0000 -1.0000 -0.0000
vn -0.0000 1.0000 0.0000
usemtl None.515
s 1
f 281//211 282//211 283//211 284//211
f 284//212 283//212 285//212 286//212
f 286//213 285//213 287//213 288//213
f 288//214 287//214 282//214 281//214
f 284//215 286//215 288//215 281//215
f 285//216 283//216 282//216 287//216
