# Blender v2.79 (sub 0) OBJ File: ''
# www.blender.org
mtllib bin44.mtl
o Cube_Cube.004_Cube_Cube.006_Cube_Cube.004_Cube_Cube.005
v -21.406908 1.867864 7.825209
v -21.406908 3.198430 7.825209
v -21.406908 3.198435 6.676402
v -21.406908 1.867868 6.676396
v -20.109127 3.198435 6.676402
v -20.109127 1.867868 6.676396
v -20.109127 3.198430 7.825209
v -20.109127 1.867864 7.825209
vn -1.0000 0.0000 0.0000
vn 0.0000 0.0000 -1.0000
vn 1.0000 0.0000 0.0000
vn 0.0000 0.0000 1.0000
vn 0.0000 -1.0000 -0.0000
vn 0.0000 1.0000 0.0000
usemtl None.10564
s 1
f 1//1 2//1 3//1 4//1
f 4//2 3//2 5//2 6//2
f 6//3 5//3 7//3 8//3
f 8//4 7//4 2//4 1//4
f 4//5 6//5 8//5 1//5
f 5//6 3//6 2//6 7//6
o Cube_Cube.004_Cube_Cube.005_Cube_Cube.004_Cube_Cube.005
v -19.964804 1.867866 -5.167500
v -19.964804 3.198432 -5.167500
v -19.964804 3.198436 -6.316308
v -19.964804 1.867868 -6.316310
v -18.667023 3.198436 -6.316308
v -18.667023 1.867868 -6.316310
v -18.667023 3.198432 -5.167500
v -18.667023 1.867866 -5.167500
vn -1.0000 0.0000 0.0000
vn 0.0000 0.0000 -1.0000
vn 1.0000 0.0000 0.0000
vn 0.0000 -0.0000 1.0000
vn 0.0000 -1.0000 -0.0000
vn 0.0000 1.0000 0.0000
usemtl None.10562
s 1
f 9//7 10//7 11//7 12//7
f 12//8 11//8 13//8 14//8
f 14//9 13//9 15//9 16//9
f 16//10 15//10 10//10 9//10
f 12//11 14//11 16//11 9//11
f 13//12 11//12 10//12 15//12
o Cube_Cube.004_Cube_Cube.004_Cube_Cube.004_Cube_Cube.005
v -19.964804 1.867866 -6.955318
v -19.964804 3.198432 -6.955318
v -19.964804 3.198437 -8.104125
v -19.964804 1.867870 -8.104132
v -18.667023 3.198437 -8.104125
v -18.667023 1.867870 -8.104132
v -18.667023 3.198432 -6.955318
v -18.667023 1.867866 -6.955318
vn -1.0000 0.0000 0.0000
vn 0.0000 0.0000 -1.0000
vn 1.0000 -0.0000 0.0000
vn 0.0000 0.0000 1.0000
vn 0.0000 -1.0000 -0.0000
vn 0.0000 1.0000 0.0000
usemtl None.10563
s 1
f 17//13 18//13 19//13 20//13
f 20//14 19//14 21//14 22//14
f 22//15 21//15 23//15 24//15
f 24//16 23//16 18//16 17//16
f 20//17 22//17 24//17 17//17
f 21//18 19//18 18//18 23//18
o Cube_Cube.004_Cube_Cube.004_Cube_Cube.004_Cube_Cube.004
v -19.964804 1.867864 7.825209
v -19.964804 3.198430 7.825209
v -19.964804 3.198435 6.676402
v -19.964804 1.867868 6.676396
v -18.667023 3.198435 6.676402
v -18.667023 1.867868 6.676396
v -18.667023 3.198430 7.825209
v -18.667023 1.867864 7.825209
vn -1.0000 0.0000 0.0000
vn 0.0000 0.0000 -1.0000
vn 1.0000 0.0000 0.0000
vn 0.0000 0.0000 1.0000
vn 0.0000 -1.0000 -0.0000
vn 0.0000 1.0000 0.0000
usemtl None.10561
s 1
f 25//19 26//19 27//19 28//19
f 28//20 27//20 29//20 30//20
f 30//21 29//21 31//21 32//21
f 32//22 31//22 26//22 25//22
f 28//23 30//23 32//23 25//23
f 29//24 27//24 26//24 31//24
o Cube_Cube.004_Cube_Cube.005_Cube_Cube.004_Cube_Cube.004
v -19.964804 1.867863 9.613026
v -19.964804 3.198429 9.613029
v -19.964804 3.198434 8.464219
v -19.964804 1.867866 8.464216
v -18.667023 3.198434 8.464219
v -18.667023 1.867866 8.464216
v -18.667023 3.198429 9.613029
v -18.667023 1.867863 9.613026
vn -1.0000 0.0000 0.0000
vn 0.0000 0.0000 -1.0000
vn 1.0000 -0.0000 0.0000
vn 0.0000 -0.0000 1.0000
vn 0.0000 -1.0000 -0.0000
vn 0.0000 1.0000 0.0000
usemtl None.10565
s 1
f 33//25 34//25 35//25 36//25
f 36//26 35//26 37//26 38//26
f 38//27 37//27 39//27 40//27
f 40//28 39//28 34//28 33//28
f 36//29 38//29 40//29 33//29
f 37//30 35//30 34//30 39//30
o Cube_Cube.004_Cube_Cube.006_Cube_Cube.004_Cube_Cube.004
v -21.406908 1.867866 -6.955318
v -21.406908 3.198432 -6.955318
v -21.406908 3.198437 -8.104125
v -21.406908 1.867870 -8.104132
v -20.109127 3.198437 -8.104125
v -20.109127 1.867870 -8.104132
v -20.109127 3.198432 -6.955318
v -20.109127 1.867866 -6.955318
vn -1.0000 0.0000 0.0000
vn 0.0000 0.0000 -1.0000
vn 1.0000 0.0000 0.0000
vn 0.0000 0.0000 1.0000
vn 0.0000 -1.0000 -0.0000
vn 0.0000 1.0000 0.0000
usemtl None.10566
s 1
f 41//31 42//31 43//31 44//31
f 44//32 43//32 45//32 46//32
f 46//33 45//33 47//33 48//33
f 48//34 47//34 42//34 41//34
f 44//35 46//35 48//35 41//35
f 45//36 43//36 42//36 47//36
