# Blender v2.79 (sub 0) OBJ File: ''
# www.blender.org
mtllib bomb45.mtl
o Cube_Cube.004_Cube_Cube.005_Cube_Cube.004_Cube_Cube.011
v -1.741652 2.323172 7.407093
v -1.741652 3.653738 7.407093
v -1.741652 3.653743 6.258285
v -1.741652 2.323174 6.258283
v -0.443871 3.653743 6.258285
v -0.443871 2.323174 6.258283
v -0.443871 3.653738 7.407093
v -0.443871 2.323172 7.407093
vn -1.0000 0.0000 0.0000
vn 0.0000 0.0000 -1.0000
vn 1.0000 0.0000 0.0000
vn 0.0000 0.0000 1.0000
vn 0.0000 -1.0000 -0.0000
vn 0.0000 1.0000 0.0000
usemtl None.10939
s 1
f 1//1 2//1 3//1 4//1
f 4//2 3//2 5//2 6//2
f 6//3 5//3 7//3 8//3
f 8//4 7//4 2//4 1//4
f 4//5 6//5 8//5 1//5
f 5//6 3//6 2//6 7//6
o Cube_Cube.004_Cube_Cube.004_Cube_Cube.004_Cube_Cube.000_Cube_Cu
v 1.853357 2.323166 16.674984
v 1.853357 3.653732 16.674984
v 1.853357 3.653737 15.526177
v 1.853357 2.323170 15.526171
v 3.151138 3.653737 15.526177
v 3.151138 2.323170 15.526171
v 3.151138 3.653732 16.674984
v 3.151138 2.323166 16.674984
vn -1.0000 -0.0000 0.0000
vn 0.0000 0.0000 -1.0000
vn 1.0000 0.0000 0.0000
vn 0.0000 0.0000 1.0000
vn 0.0000 -1.0000 -0.0000
vn 0.0000 1.0000 0.0000
usemtl None.10945
s 1
f 9//7 10//7 11//7 12//7
f 12//8 11//8 13//8 14//8
f 14//9 13//9 15//9 16//9
f 16//10 15//10 10//10 9//10
f 12//11 14//11 16//11 9//11
f 13//12 11//12 10//12 15//12
o Cube_Cube.004_Cube_Cube.005_Cube_Cube.004_Cube_Cube.010
v -1.741652 2.323165 18.462799
v -1.741652 3.653731 18.462803
v -1.741652 3.653736 17.313995
v -1.741652 2.323168 17.313992
v -0.443871 3.653736 17.313995
v -0.443871 2.323168 17.313992
v -0.443871 3.653731 18.462803
v -0.443871 2.323165 18.462799
vn -1.0000 0.0000 0.0000
vn 0.0000 0.0000 -1.0000
vn 1.0000 -0.0000 0.0000
vn 0.0000 -0.0000 1.0000
vn 0.0000 -1.0000 -0.0000
vn 0.0000 1.0000 0.0000
usemtl None.10941
s 1
f 17//13 18//13 19//13 20//13
f 20//14 19//14 21//14 22//14
f 22//15 21//15 23//15 24//15
f 24//16 23//16 18//16 17//16
f 20//17 22//17 24//17 17//17
f 21//18 19//18 18//18 23//18
o Cube_Cube.004_Cube_Cube.006_Cube_Cube.004_Cube_Cube.000_Cube_Cu
v -0.030739 2.323173 5.619275
v -0.030739 3.653739 5.619275
v -0.030739 3.653744 4.470469
v -0.030739 2.323177 4.470460
v 1.267042 3.653744 4.470469
v 1.267042 2.323177 4.470460
v 1.267042 3.653739 5.619275
v 1.267042 2.323173 5.619275
vn -1.0000 -0.0000 0.0000
vn 0.0000 0.0000 -1.0000
vn 1.0000 0.0000 0.0000
vn 0.0000 0.0000 1.0000
vn 0.0000 -1.0000 -0.0000
vn 0.0000 1.0000 0.0000
usemtl None.10942
s 1
f 25//19 26//19 27//19 28//19
f 28//20 27//20 29//20 30//20
f 30//21 29//21 31//21 32//21
f 32//22 31//22 26//22 25//22
f 28//23 30//23 32//23 25//23
f 29//24 27//24 26//24 31//24
o Cube_Cube.004_Cube_Cube.005_Cube_Cube.004_Cube_Cube.001_Cube_Cu
v 0.021769 2.323165 18.462799
v 0.021769 3.653731 18.462803
v 0.021769 3.653736 17.313995
v 0.021769 2.323168 17.313992
v 1.319551 3.653736 17.313995
v 1.319551 2.323168 17.313992
v 1.319551 3.653731 18.462803
v 1.319551 2.323165 18.462799
vn -1.0000 -0.0000 0.0000
vn 0.0000 0.0000 -1.0000
vn 1.0000 0.0000 0.0000
vn 0.0000 -0.0000 1.0000
vn 0.0000 -1.0000 -0.0000
vn 0.0000 1.0000 0.0000
usemtl None.10943
s 1
f 33//25 34//25 35//25 36//25
f 36//26 35//26 37//26 38//26
f 38//27 37//27 39//27 40//27
f 40//28 39//28 34//28 33//28
f 36//29 38//29 40//29 33//29
f 37//30 35//30 34//30 39//30
o Cube_Cube.004_Cube_Cube.006_Cube_Cube.004_Cube_Cube.001_Cub.000
v -0.032214 2.323166 16.803865
v -0.032214 3.653732 16.803865
v -0.032214 3.653737 15.655059
v -0.032214 2.323170 15.655052
v 1.265567 3.653737 15.655059
v 1.265567 2.323170 15.655052
v 1.265567 3.653732 16.803865
v 1.265567 2.323166 16.803865
vn -1.0000 -0.0000 0.0000
vn 0.0000 0.0000 -1.0000
vn 1.0000 0.0000 0.0000
vn 0.0000 0.0000 1.0000
vn 0.0000 -1.0000 -0.0000
vn 0.0000 1.0000 0.0000
usemtl None.10946
s 1
f 41//31 42//31 43//31 44//31
f 44//32 43//32 45//32 46//32
f 46//33 45//33 47//33 48//33
f 48//34 47//34 42//34 41//34
f 44//35 46//35 48//35 41//35
f 45//36 43//36 42//36 47//36
o Cube_Cube.004_Cube_Cube.005_Cube_Cube.004_Cube_Cube.000_Cube_Cu
v 1.853357 2.323172 7.407093
v 1.853357 3.653738 7.407093
v 1.853357 3.653743 6.258285
v 1.853357 2.323174 6.258283
v 3.151138 3.653743 6.258285
v 3.151138 2.323174 6.258283
v 3.151138 3.653738 7.407093
v 3.151138 2.323172 7.407093
vn -1.0000 -0.0000 0.0000
vn 0.0000 0.0000 -1.0000
vn 1.0000 0.0000 0.0000
vn 0.0000 0.0000 1.0000
vn 0.0000 -1.0000 -0.0000
vn 0.0000 1.0000 0.0000
usemtl None.10944
s 1
f 49//37 50//37 51//37 52//37
f 52//38 51//38 53//38 54//38
f 54//39 53//39 55//39 56//39
f 56//40 55//40 50//40 49//40
f 52//41 54//41 56//41 49//41
f 53//42 51//42 50//42 55//42
o Cube_Cube.004_Cube_Cube.006_Cube_Cube.004_Cube_Cube.011
v -3.183756 2.323173 5.619275
v -3.183756 3.653739 5.619275
v -3.183756 3.653744 4.470469
v -3.183756 2.323177 4.470460
v -1.885975 3.653744 4.470469
v -1.885975 2.323177 4.470460
v -1.885975 3.653739 5.619275
v -1.885975 2.323173 5.619275
vn -1.0000 -0.0000 0.0000
vn 0.0000 0.0000 -1.0000
vn 1.0000 0.0000 0.0000
vn 0.0000 0.0000 1.0000
vn 0.0000 -1.0000 -0.0000
vn 0.0000 1.0000 0.0000
usemtl None.10940
s 1
f 57//43 58//43 59//43 60//43
f 60//44 59//44 61//44 62//44
f 62//45 61//45 63//45 64//45
f 64//46 63//46 58//46 57//46
f 60//47 62//47 64//47 57//47
f 61//48 59//48 58//48 63//48
o Cube_Cube.004_Cube_Cube.006_Cube_Cube.004_Cube_Cube.010
v -3.183756 2.323166 16.674984
v -3.183756 3.653732 16.674984
v -3.183756 3.653737 15.526177
v -3.183756 2.323170 15.526171
v -1.885975 3.653737 15.526177
v -1.885975 2.323170 15.526171
v -1.885975 3.653732 16.674984
v -1.885975 2.323166 16.674984
vn -1.0000 -0.0000 0.0000
vn 0.0000 0.0000 -1.0000
vn 1.0000 0.0000 0.0000
vn 0.0000 0.0000 1.0000
vn 0.0000 -1.0000 -0.0000
vn 0.0000 1.0000 0.0000
usemtl None.10947
s 1
f 65//49 66//49 67//49 68//49
f 68//50 67//50 69//50 70//50
f 70//51 69//51 71//51 72//51
f 72//52 71//52 66//52 65//52
f 68//53 70//53 72//53 65//53
f 69//54 67//54 66//54 71//54
