# Blender v2.79 (sub 0) OBJ File: ''
# www.blender.org
mtllib finish40.mtl
o Cube.002_Cube.116_Cube.002_Cube.025
v -4.463524 10.804029 2.379551
v -4.463524 11.995029 2.379551
v -4.463524 11.995031 1.188551
v -4.463524 10.804031 1.188551
v -3.272524 11.995031 1.188551
v -3.272524 10.804031 1.188551
v -3.272524 11.995029 2.379551
v -3.272524 10.804029 2.379551
vn -1.0000 -0.0000 0.0000
vn 0.0000 0.0000 -1.0000
vn 1.0000 -0.0000 0.0000
vn 0.0000 -0.0000 1.0000
vn 0.0000 -1.0000 -0.0000
vn 0.0000 1.0000 0.0000
usemtl None.3942
s 1
f 1//1 2//1 3//1 4//1
f 4//2 3//2 5//2 6//2
f 6//3 5//3 7//3 8//3
f 8//4 7//4 2//4 1//4
f 4//5 6//5 8//5 1//5
f 5//6 3//6 2//6 7//6
