# Blender v2.79 (sub 0) OBJ File: ''
# www.blender.org
mtllib movingU41.mtl
o Cube.001_Cube.108_Cube.001_Cube.010_Cube.001_Cube.108_Cube.001_Cube.028
v 12.284269 -0.159328 -1.069323
v 12.284269 1.031672 -1.069322
v 12.284269 1.031673 -2.260321
v 12.284269 -0.159327 -2.260323
v 13.475269 1.031673 -2.260321
v 13.475269 -0.159327 -2.260323
v 13.475269 1.031672 -1.069322
v 13.475269 -0.159328 -1.069323
vn -1.0000 0.0000 0.0000
vn 0.0000 0.0000 -1.0000
vn 1.0000 -0.0000 0.0000
vn 0.0000 -0.0000 1.0000
vn 0.0000 -1.0000 -0.0000
vn 0.0000 1.0000 0.0000
usemtl None.4164
s 1
f 1//1 2//1 3//1 4//1
f 4//2 3//2 5//2 6//2
f 6//3 5//3 7//3 8//3
f 8//4 7//4 2//4 1//4
f 4//5 6//5 8//5 1//5
f 5//6 3//6 2//6 7//6
o Cube.001_Cube.109_Cube.001_Cube.021_Cube.001_Cube.109_Cube.001_Cube.057
v 12.284269 -0.159330 2.379551
v 12.284269 1.031670 2.379551
v 12.284269 1.031672 1.188551
v 12.284269 -0.159328 1.188551
v 13.475269 1.031672 1.188551
v 13.475269 -0.159328 1.188551
v 13.475269 1.031670 2.379551
v 13.475269 -0.159330 2.379551
vn -1.0000 -0.0000 0.0000
vn 0.0000 0.0000 -1.0000
vn 1.0000 -0.0000 0.0000
vn 0.0000 -0.0000 1.0000
vn 0.0000 -1.0000 -0.0000
vn 0.0000 1.0000 0.0000
usemtl None.4157
s 1
f 9//7 10//7 11//7 12//7
f 12//8 11//8 13//8 14//8
f 14//9 13//9 15//9 16//9
f 16//10 15//10 10//10 9//10
f 12//11 14//11 16//11 9//11
f 13//12 11//12 10//12 15//12
o Cube.001_Cube.110_Cube.001_Cube.010_Cube.001_Cube.110_Cube.001_Cube.028
v 12.284269 -0.159328 1.236933
v 12.284269 1.031671 1.236933
v 12.284269 1.031672 0.045933
v 12.284269 -0.159328 0.045933
v 13.475269 1.031672 0.045933
v 13.475269 -0.159328 0.045933
v 13.475269 1.031671 1.236933
v 13.475269 -0.159328 1.236933
vn -1.0000 0.0000 0.0000
vn 0.0000 0.0000 -1.0000
vn 1.0000 -0.0000 0.0000
vn 0.0000 -0.0000 1.0000
vn 0.0000 -1.0000 -0.0000
vn 0.0000 1.0000 0.0000
usemtl None.4146
s 1
f 17//13 18//13 19//13 20//13
f 20//14 19//14 21//14 22//14
f 22//15 21//15 23//15 24//15
f 24//16 23//16 18//16 17//16
f 20//17 22//17 24//17 17//17
f 21//18 19//18 18//18 23//18
o Cube.001_Cube.111_Cube.001_Cube.010_Cube.001_Cube.111_Cube.001_Cube.028
v 12.284269 -0.159328 0.093594
v 12.284269 1.031671 0.093594
v 12.284269 1.031673 -1.097406
v 12.284269 -0.159328 -1.097406
v 13.475269 1.031673 -1.097406
v 13.475269 -0.159328 -1.097406
v 13.475269 1.031671 0.093594
v 13.475269 -0.159328 0.093594
vn -1.0000 0.0000 0.0000
vn 0.0000 0.0000 -1.0000
vn 1.0000 -0.0000 0.0000
vn 0.0000 -0.0000 1.0000
vn 0.0000 -1.0000 -0.0000
vn 0.0000 1.0000 0.0000
usemtl None.4140
s 1
f 25//19 26//19 27//19 28//19
f 28//20 27//20 29//20 30//20
f 30//21 29//21 31//21 32//21
f 32//22 31//22 26//22 25//22
f 28//23 30//23 32//23 25//23
f 29//24 27//24 26//24 31//24
o Cube.001_Cube.116_Cube.001_Cube.010_Cube.001_Cube.116_Cube.001_Cube.028
v 12.284269 -0.159328 0.093594
v 12.284269 1.031671 0.093594
v 12.284269 1.031673 -1.097406
v 12.284269 -0.159328 -1.097406
v 13.475269 1.031673 -1.097406
v 13.475269 -0.159328 -1.097406
v 13.475269 1.031671 0.093594
v 13.475269 -0.159328 0.093594
vn -1.0000 0.0000 0.0000
vn 0.0000 0.0000 -1.0000
vn 1.0000 -0.0000 0.0000
vn 0.0000 -0.0000 1.0000
vn 0.0000 -1.0000 -0.0000
vn 0.0000 1.0000 0.0000
usemtl None.041
s 1
f 33//25 34//25 35//25 36//25
f 36//26 35//26 37//26 38//26
f 38//27 37//27 39//27 40//27
f 40//28 39//28 34//28 33//28
f 36//29 38//29 40//29 33//29
f 37//30 35//30 34//30 39//30
o Cube.001_Cube.119_Cube.001_Cube.010_Cube.001_Cube.119_Cube.001_Cube.028
v 12.284269 -0.159328 -1.069323
v 12.284269 1.031672 -1.069322
v 12.284269 1.031673 -2.260321
v 12.284269 -0.159327 -2.260323
v 13.475269 1.031673 -2.260321
v 13.475269 -0.159327 -2.260323
v 13.475269 1.031672 -1.069322
v 13.475269 -0.159328 -1.069323
vn -1.0000 0.0000 0.0000
vn 0.0000 0.0000 -1.0000
vn 1.0000 -0.0000 0.0000
vn 0.0000 -0.0000 1.0000
vn 0.0000 -1.0000 -0.0000
vn 0.0000 1.0000 0.0000
usemtl None.017
s 1
f 41//31 42//31 43//31 44//31
f 44//32 43//32 45//32 46//32
f 46//33 45//33 47//33 48//33
f 48//34 47//34 42//34 41//34
f 44//35 46//35 48//35 41//35
f 45//36 43//36 42//36 47//36
o Cube.002_Cube.108_Cube.002_Cube.010_Cube.002_Cube.108_Cube.002_Cube.028
v 11.128237 -0.159328 0.093594
v 11.128237 1.031671 0.093594
v 11.128237 1.031673 -1.097406
v 11.128237 -0.159328 -1.097406
v 12.319237 1.031673 -1.097406
v 12.319237 -0.159328 -1.097406
v 12.319237 1.031671 0.093594
v 12.319237 -0.159328 0.093594
vn -1.0000 0.0000 0.0000
vn 0.0000 0.0000 -1.0000
vn 1.0000 -0.0000 0.0000
vn 0.0000 -0.0000 1.0000
vn 0.0000 -1.0000 -0.0000
vn 0.0000 1.0000 0.0000
usemtl None.4140
s 1
f 49//37 50//37 51//37 52//37
f 52//38 51//38 53//38 54//38
f 54//39 53//39 55//39 56//39
f 56//40 55//40 50//40 49//40
f 52//41 54//41 56//41 49//41
f 53//42 51//42 50//42 55//42
o Cube.002_Cube.110_Cube.002_Cube.010_Cube.002_Cube.110_Cube.002_Cube.028
v 11.128237 -0.159328 -1.069323
v 11.128237 1.031672 -1.069322
v 11.128237 1.031673 -2.260321
v 11.128237 -0.159327 -2.260323
v 12.319237 1.031673 -2.260321
v 12.319237 -0.159327 -2.260323
v 12.319237 1.031672 -1.069322
v 12.319237 -0.159328 -1.069323
vn -1.0000 -0.0000 0.0000
vn 0.0000 0.0000 -1.0000
vn 1.0000 -0.0000 0.0000
vn 0.0000 -0.0000 1.0000
vn 0.0000 -1.0000 -0.0000
vn 0.0000 1.0000 0.0000
usemtl None.4164
s 1
f 57//43 58//43 59//43 60//43
f 60//44 59//44 61//44 62//44
f 62//45 61//45 63//45 64//45
f 64//46 63//46 58//46 57//46
f 60//47 62//47 64//47 57//47
f 61//48 59//48 58//48 63//48
o Cube.002_Cube.111_Cube.002_Cube.010_Cube.002_Cube.111_Cube.002_Cube.028
v 11.128237 -0.159330 2.379551
v 11.128237 1.031670 2.379551
v 11.128237 1.031672 1.188551
v 11.128237 -0.159328 1.188551
v 12.319237 1.031672 1.188551
v 12.319237 -0.159328 1.188551
v 12.319237 1.031670 2.379551
v 12.319237 -0.159330 2.379551
vn -1.0000 -0.0000 0.0000
vn 0.0000 0.0000 -1.0000
vn 1.0000 -0.0000 0.0000
vn 0.0000 -0.0000 1.0000
vn 0.0000 -1.0000 -0.0000
vn 0.0000 1.0000 0.0000
usemtl None.4157
s 1
f 65//49 66//49 67//49 68//49
f 68//50 67//50 69//50 70//50
f 70//51 69//51 71//51 72//51
f 72//52 71//52 66//52 65//52
f 68//53 70//53 72//53 65//53
f 69//54 67//54 66//54 71//54
o Cube.002_Cube.112_Cube.002_Cube.021_Cube.002_Cube.112_Cube.002_Cube.057
v 11.128237 -0.159328 1.236933
v 11.128237 1.031671 1.236933
v 11.128237 1.031672 0.045933
v 11.128237 -0.159328 0.045933
v 12.319237 1.031672 0.045933
v 12.319237 -0.159328 0.045933
v 12.319237 1.031671 1.236933
v 12.319237 -0.159328 1.236933
vn -1.0000 0.0000 0.0000
vn 0.0000 0.0000 -1.0000
vn 1.0000 -0.0000 0.0000
vn 0.0000 -0.0000 1.0000
vn 0.0000 -1.0000 -0.0000
vn 0.0000 1.0000 0.0000
usemtl None.4146
s 1
f 73//55 74//55 75//55 76//55
f 76//56 75//56 77//56 78//56
f 78//57 77//57 79//57 80//57
f 80//58 79//58 74//58 73//58
f 76//59 78//59 80//59 73//59
f 77//60 75//60 74//60 79//60
o Cube.002_Cube.115_Cube.002_Cube.010_Cube.002_Cube.115_Cube.002_Cube.028
v 11.128237 -0.159328 1.236933
v 11.128237 1.031671 1.236933
v 11.128237 1.031672 0.045933
v 11.128237 -0.159328 0.045933
v 12.319237 1.031672 0.045933
v 12.319237 -0.159328 0.045933
v 12.319237 1.031671 1.236933
v 12.319237 -0.159328 1.236933
vn -1.0000 0.0000 0.0000
vn 0.0000 0.0000 -1.0000
vn 1.0000 -0.0000 0.0000
vn 0.0000 -0.0000 1.0000
vn 0.0000 -1.0000 -0.0000
vn 0.0000 1.0000 0.0000
usemtl None.034
s 1
f 81//61 82//61 83//61 84//61
f 84//62 83//62 85//62 86//62
f 86//63 85//63 87//63 88//63
f 88//64 87//64 82//64 81//64
f 84//65 86//65 88//65 81//65
f 85//66 83//66 82//66 87//66
o Cube.002_Cube.117_Cube.002_Cube.010_Cube.002_Cube.117_Cube.002_Cube.028
v 11.128237 -0.159328 -1.069323
v 11.128237 1.031672 -1.069322
v 11.128237 1.031673 -2.260321
v 11.128237 -0.159327 -2.260323
v 12.319237 1.031673 -2.260321
v 12.319237 -0.159327 -2.260323
v 12.319237 1.031672 -1.069322
v 12.319237 -0.159328 -1.069323
vn -1.0000 -0.0000 0.0000
vn 0.0000 0.0000 -1.0000
vn 1.0000 -0.0000 0.0000
vn 0.0000 -0.0000 1.0000
vn 0.0000 -1.0000 -0.0000
vn 0.0000 1.0000 0.0000
usemtl None.017
s 1
f 89//67 90//67 91//67 92//67
f 92//68 91//68 93//68 94//68
f 94//69 93//69 95//69 96//69
f 96//70 95//70 90//70 89//70
f 92//71 94//71 96//71 89//71
f 93//72 91//72 90//72 95//72
o Cube.003_Cube.108_Cube.003_Cube.010_Cube.003_Cube.108_Cube.003_Cube.028
v 10.085304 -0.159330 2.379551
v 10.085304 1.031670 2.379551
v 10.085304 1.031672 1.188551
v 10.085304 -0.159328 1.188551
v 11.276302 1.031672 1.188551
v 11.276302 -0.159328 1.188551
v 11.276302 1.031670 2.379551
v 11.276302 -0.159330 2.379551
vn -1.0000 -0.0000 0.0000
vn 0.0000 0.0000 -1.0000
vn 1.0000 -0.0000 0.0000
vn 0.0000 -0.0000 1.0000
vn 0.0000 -1.0000 -0.0000
vn 0.0000 1.0000 0.0000
usemtl None.4157
s 1
f 97//73 98//73 99//73 100//73
f 100//74 99//74 101//74 102//74
f 102//75 101//75 103//75 104//75
f 104//76 103//76 98//76 97//76
f 100//77 102//77 104//77 97//77
f 101//78 99//78 98//78 103//78
o Cube.003_Cube.109_Cube.003_Cube.010_Cube.003_Cube.109_Cube.003_Cube.028
v 10.085304 -0.159328 1.236933
v 10.085304 1.031671 1.236933
v 10.085304 1.031672 0.045933
v 10.085304 -0.159328 0.045933
v 11.276302 1.031672 0.045933
v 11.276302 -0.159328 0.045933
v 11.276302 1.031671 1.236933
v 11.276302 -0.159328 1.236933
vn -1.0000 0.0000 0.0000
vn 0.0000 0.0000 -1.0000
vn 1.0000 -0.0000 0.0000
vn 0.0000 -0.0000 1.0000
vn 0.0000 -1.0000 -0.0000
vn 0.0000 1.0000 0.0000
usemtl None.4146
s 1
f 105//79 106//79 107//79 108//79
f 108//80 107//80 109//80 110//80
f 110//81 109//81 111//81 112//81
f 112//82 111//82 106//82 105//82
f 108//83 110//83 112//83 105//83
f 109//84 107//84 106//84 111//84
o Cube.003_Cube.111_Cube.003_Cube.010_Cube.003_Cube.111_Cube.003_Cube.028
v 10.085304 -0.159328 -1.069323
v 10.085304 1.031672 -1.069322
v 10.085304 1.031673 -2.260321
v 10.085304 -0.159327 -2.260323
v 11.276302 1.031673 -2.260321
v 11.276302 -0.159327 -2.260323
v 11.276302 1.031672 -1.069322
v 11.276302 -0.159328 -1.069323
vn -1.0000 0.0000 0.0000
vn 0.0000 0.0000 -1.0000
vn 1.0000 0.0000 0.0000
vn 0.0000 -0.0000 1.0000
vn 0.0000 -1.0000 -0.0000
vn 0.0000 1.0000 0.0000
usemtl None.4164
s 1
f 113//85 114//85 115//85 116//85
f 116//86 115//86 117//86 118//86
f 118//87 117//87 119//87 120//87
f 120//88 119//88 114//88 113//88
f 116//89 118//89 120//89 113//89
f 117//90 115//90 114//90 119//90
o Cube.003_Cube.113_Cube.003_Cube.010_Cube.003_Cube.113_Cube.003_Cube.028
v 10.085304 -0.159328 0.093594
v 10.085304 1.031671 0.093594
v 10.085304 1.031673 -1.097406
v 10.085304 -0.159328 -1.097406
v 11.276302 1.031673 -1.097406
v 11.276302 -0.159328 -1.097406
v 11.276302 1.031671 0.093594
v 11.276302 -0.159328 0.093594
vn -1.0000 0.0000 0.0000
vn 0.0000 0.0000 -1.0000
vn 1.0000 -0.0000 0.0000
vn 0.0000 -0.0000 1.0000
vn 0.0000 -1.0000 -0.0000
vn 0.0000 1.0000 0.0000
usemtl None.4140
s 1
f 121//91 122//91 123//91 124//91
f 124//92 123//92 125//92 126//92
f 126//93 125//93 127//93 128//93
f 128//94 127//94 122//94 121//94
f 124//95 126//95 128//95 121//95
f 125//96 123//96 122//96 127//96
o Cube.003_Cube.114_Cube.003_Cube.010_Cube.003_Cube.114_Cube.003_Cube.028
v 10.085304 -0.159328 0.093594
v 10.085304 1.031671 0.093594
v 10.085304 1.031673 -1.097406
v 10.085304 -0.159328 -1.097406
v 11.276302 1.031673 -1.097406
v 11.276302 -0.159328 -1.097406
v 11.276302 1.031671 0.093594
v 11.276302 -0.159328 0.093594
vn -1.0000 0.0000 0.0000
vn 0.0000 0.0000 -1.0000
vn 1.0000 -0.0000 0.0000
vn 0.0000 -0.0000 1.0000
vn 0.0000 -1.0000 -0.0000
vn 0.0000 1.0000 0.0000
usemtl None.041
s 1
f 129//97 130//97 131//97 132//97
f 132//98 131//98 133//98 134//98
f 134//99 133//99 135//99 136//99
f 136//100 135//100 130//100 129//100
f 132//101 134//101 136//101 129//101
f 133//102 131//102 130//102 135//102
o Cube.003_Cube.116_Cube.003_Cube.010_Cube.003_Cube.116_Cube.003_Cube.028
v 10.085304 -0.159328 -1.069323
v 10.085304 1.031672 -1.069322
v 10.085304 1.031673 -2.260321
v 10.085304 -0.159327 -2.260323
v 11.276302 1.031673 -2.260321
v 11.276302 -0.159327 -2.260323
v 11.276302 1.031672 -1.069322
v 11.276302 -0.159328 -1.069323
vn -1.0000 0.0000 0.0000
vn 0.0000 0.0000 -1.0000
vn 1.0000 0.0000 0.0000
vn 0.0000 -0.0000 1.0000
vn 0.0000 -1.0000 -0.0000
vn 0.0000 1.0000 0.0000
usemtl None.017
s 1
f 137//103 138//103 139//103 140//103
f 140//104 139//104 141//104 142//104
f 142//105 141//105 143//105 144//105
f 144//106 143//106 138//106 137//106
f 140//107 142//107 144//107 137//107
f 141//108 139//108 138//108 143//108
