# Blender v2.79 (sub 0) OBJ File: ''
# www.blender.org
mtllib tm41.mtl
o Cube_Cube.000_Cube_Cube.000_Cube_Cube.000_Cube_Cube.001
v 6.939072 21.808681 5.908288
v 6.939072 23.808680 5.908287
v 6.912901 23.808681 7.908115
v 6.912901 21.808681 7.908116
v 4.913073 23.808681 7.881944
v 4.913073 21.808681 7.881945
v 4.939243 23.808680 5.882116
v 4.939243 21.808681 5.882116
vn 0.9999 -0.0000 0.0131
vn -0.0131 0.0000 0.9999
vn -0.9999 0.0000 -0.0131
vn 0.0131 -0.0000 -0.9999
vn 0.0000 -1.0000 0.0000
vn 0.0000 1.0000 -0.0000
usemtl None.3150
s 1
f 1//1 2//1 3//1 4//1
f 4//2 3//2 5//2 6//2
f 6//3 5//3 7//3 8//3
f 8//4 7//4 2//4 1//4
f 4//5 6//5 8//5 1//5
f 5//6 3//6 2//6 7//6
