# Blender v2.79 (sub 0) OBJ File: ''
# www.blender.org
mtllib bomb28.mtl
o Cube_Cube.001_Cube_Cube.003
v 28.768402 8.330810 5.488576
v 28.768402 10.330809 5.488574
v 28.719967 10.330812 7.487988
v 28.719967 8.330813 7.487990
v 26.720554 10.330812 7.439551
v 26.720554 8.330813 7.439551
v 26.768993 10.330809 5.440135
v 26.768993 8.330811 5.440137
vn 0.9997 -0.0000 0.0242
vn -0.0242 0.0000 0.9997
vn -0.9997 -0.0000 -0.0242
vn 0.0242 -0.0000 -0.9997
vn -0.0000 -1.0000 0.0000
vn 0.0000 1.0000 -0.0000
usemtl None.2481
s 1
f 1//1 2//1 3//1 4//1
f 4//2 3//2 5//2 6//2
f 6//3 5//3 7//3 8//3
f 8//4 7//4 2//4 1//4
f 4//5 6//5 8//5 1//5
f 5//6 3//6 2//6 7//6
o Cube_Cube.001_Cube_Cube.007
v 11.085887 4.233196 6.997454
v 11.085887 6.233193 6.997458
v 11.085887 6.233198 4.997456
v 11.085887 4.233198 4.997454
v 13.085885 6.233198 4.997456
v 13.085885 4.233198 4.997454
v 13.085885 6.233193 6.997458
v 13.085885 4.233196 6.997454
vn -1.0000 0.0000 0.0000
vn 0.0000 0.0000 -1.0000
vn 1.0000 0.0000 0.0000
vn 0.0000 -0.0000 1.0000
vn 0.0000 -1.0000 -0.0000
vn 0.0000 1.0000 0.0000
usemtl None.2475
s 1
f 9//7 10//7 11//7 12//7
f 12//8 11//8 13//8 14//8
f 14//9 13//9 15//9 16//9
f 16//10 15//10 10//10 9//10
f 12//11 14//11 16//11 9//11
f 13//12 11//12 10//12 15//12
o Cube_Cube.001_Cube_Cube.005
v 71.708717 9.341188 -13.118456
v 71.708717 11.341187 -13.118451
v 71.708717 11.341190 -15.118453
v 71.708717 9.341190 -15.118456
v 73.708717 11.341190 -15.118453
v 73.708717 9.341190 -15.118456
v 73.708717 11.341187 -13.118451
v 73.708717 9.341188 -13.118456
vn -1.0000 0.0000 0.0000
vn 0.0000 0.0000 -1.0000
vn 1.0000 0.0000 0.0000
vn 0.0000 -0.0000 1.0000
vn 0.0000 -1.0000 -0.0000
vn 0.0000 1.0000 0.0000
usemtl None.2700
s 1
f 17//13 18//13 19//13 20//13
f 20//14 19//14 21//14 22//14
f 22//15 21//15 23//15 24//15
f 24//16 23//16 18//16 17//16
f 20//17 22//17 24//17 17//17
f 21//18 19//18 18//18 23//18
o Cube_Cube.001_Cube_Cube.001_Cube_Cube.001_Cube_Cube.012
v 71.708717 9.341188 -9.888207
v 71.708717 11.341187 -9.888203
v 71.708717 11.341190 -11.888205
v 71.708717 9.341190 -11.888208
v 73.708717 11.341190 -11.888205
v 73.708717 9.341190 -11.888208
v 73.708717 11.341187 -9.888203
v 73.708717 9.341188 -9.888207
vn -1.0000 0.0000 0.0000
vn 0.0000 0.0000 -1.0000
vn 1.0000 0.0000 0.0000
vn 0.0000 -0.0000 1.0000
vn 0.0000 -1.0000 -0.0000
vn 0.0000 1.0000 0.0000
usemtl None.2701
s 1
f 25//19 26//19 27//19 28//19
f 28//20 27//20 29//20 30//20
f 30//21 29//21 31//21 32//21
f 32//22 31//22 26//22 25//22
f 28//23 30//23 32//23 25//23
f 29//24 27//24 26//24 31//24
