# Blender v2.79 (sub 0) OBJ File: ''
# www.blender.org
mtllib movingU27.mtl
o Cube.324_Cube.000_Cube.324_Cube.002
v -30.227844 0.114655 -25.459259
v -30.227844 1.305655 -25.459259
v -30.229958 1.305655 -26.650257
v -30.229958 0.114655 -26.650257
v -29.038956 1.305657 -26.652369
v -29.038956 0.114658 -26.652369
v -29.036850 1.305657 -25.461370
v -29.036850 0.114658 -25.461370
vn -1.0000 0.0000 0.0018
vn -0.0018 0.0000 -1.0000
vn 1.0000 0.0000 -0.0018
vn 0.0018 0.0000 1.0000
vn 0.0000 -1.0000 -0.0000
vn -0.0000 1.0000 -0.0000
usemtl None.050
s 1
f 1//1 2//1 3//1 4//1
f 4//2 3//2 5//2 6//2
f 6//3 5//3 7//3 8//3
f 8//4 7//4 2//4 1//4
f 4//5 6//5 8//5 1//5
f 5//6 3//6 2//6 7//6
o Cube.325_Cube.000_Cube.325_Cube.002
v -30.229961 0.114655 -26.653782
v -30.229961 1.305655 -26.653782
v -30.232079 1.305655 -27.844778
v -30.232079 0.114655 -27.844778
v -29.041080 1.305657 -27.846889
v -29.041080 0.114658 -27.846889
v -29.038963 1.305657 -26.655891
v -29.038963 0.114658 -26.655891
vn -1.0000 0.0000 0.0018
vn -0.0018 0.0000 -1.0000
vn 1.0000 0.0000 -0.0018
vn 0.0018 0.0000 1.0000
vn 0.0000 -1.0000 -0.0000
vn -0.0000 1.0000 0.0000
usemtl None.050
s 1
f 9//7 10//7 11//7 12//7
f 12//8 11//8 13//8 14//8
f 14//9 13//9 15//9 16//9
f 16//10 15//10 10//10 9//10
f 12//11 14//11 16//11 9//11
f 13//12 11//12 10//12 15//12
o Cube.326_Cube.000_Cube.326_Cube.002
v -30.232071 0.114655 -27.841894
v -30.232071 1.305655 -27.841894
v -30.234184 1.305655 -29.032892
v -30.234184 0.114655 -29.032892
v -29.043182 1.305657 -29.035004
v -29.043182 0.114658 -29.035004
v -29.041073 1.305657 -27.844006
v -29.041073 0.114658 -27.844006
vn -1.0000 0.0000 0.0018
vn -0.0018 0.0000 -1.0000
vn 1.0000 0.0000 -0.0018
vn 0.0018 0.0000 1.0000
vn 0.0000 -1.0000 -0.0000
vn -0.0000 1.0000 0.0000
usemtl None.050
s 1
f 17//13 18//13 19//13 20//13
f 20//14 19//14 21//14 22//14
f 22//15 21//15 23//15 24//15
f 24//16 23//16 18//16 17//16
f 20//17 22//17 24//17 17//17
f 21//18 19//18 18//18 23//18
o Cube.327_Cube.000_Cube.327_Cube.002
v -29.057812 0.114658 -27.843975
v -29.057812 1.305657 -27.843975
v -29.059925 1.305657 -29.034973
v -29.059925 0.114658 -29.034973
v -27.868923 1.305658 -29.037085
v -27.868923 0.114660 -29.037085
v -27.866817 1.305658 -27.846087
v -27.866817 0.114660 -27.846087
vn -1.0000 0.0000 0.0018
vn -0.0018 0.0000 -1.0000
vn 1.0000 0.0000 -0.0018
vn 0.0018 0.0000 1.0000
vn 0.0000 -1.0000 -0.0000
vn -0.0000 1.0000 0.0000
usemtl None.050
s 1
f 25//19 26//19 27//19 28//19
f 28//20 27//20 29//20 30//20
f 30//21 29//21 31//21 32//21
f 32//22 31//22 26//22 25//22
f 28//23 30//23 32//23 25//23
f 29//24 27//24 26//24 31//24
o Cube.328_Cube.000_Cube.328_Cube.002
v -29.055706 0.114658 -26.652355
v -29.055706 1.305657 -26.652355
v -29.057812 1.305657 -27.843353
v -29.057812 0.114658 -27.843353
v -27.866817 1.305658 -27.845463
v -27.866814 0.114660 -27.845463
v -27.864704 1.305658 -26.654465
v -27.864700 0.114660 -26.654465
vn -1.0000 0.0000 0.0018
vn -0.0018 -0.0000 -1.0000
vn 1.0000 0.0000 -0.0018
vn 0.0018 0.0000 1.0000
vn 0.0000 -1.0000 -0.0000
vn -0.0000 1.0000 0.0000
usemtl None.050
s 1
f 33//25 34//25 35//25 36//25
f 36//26 35//26 37//26 38//26
f 38//27 37//27 39//27 40//27
f 40//28 39//28 34//28 33//28
f 36//29 38//29 40//29 33//29
f 37//30 35//30 34//30 39//30
o Cube.329_Cube.000_Cube.329_Cube.002
v -29.053600 0.114657 -25.465277
v -29.053600 1.305657 -25.465277
v -29.055714 1.305657 -26.656273
v -29.055714 0.114658 -26.656273
v -27.864708 1.305658 -26.658384
v -27.864708 0.114660 -26.658384
v -27.862598 1.305658 -25.467388
v -27.862598 0.114660 -25.467388
vn -1.0000 0.0000 0.0018
vn -0.0018 0.0000 -1.0000
vn 1.0000 0.0000 -0.0018
vn 0.0018 0.0000 1.0000
vn 0.0000 -1.0000 -0.0000
vn -0.0000 1.0000 0.0000
usemtl None.050
s 1
f 41//31 42//31 43//31 44//31
f 44//32 43//32 45//32 46//32
f 46//33 45//33 47//33 48//33
f 48//34 47//34 42//34 41//34
f 44//35 46//35 48//35 41//35
f 45//36 43//36 42//36 47//36
o Cube.330_Cube.000_Cube.330_Cube.002
v -27.857540 0.114660 -21.892984
v -27.857540 1.305658 -21.892984
v -27.859657 1.305658 -23.083982
v -27.859657 0.114660 -23.083982
v -26.668655 1.305660 -23.086092
v -26.668655 0.114661 -23.086092
v -26.666546 1.305660 -21.895094
v -26.666546 0.114661 -21.895094
vn -1.0000 0.0000 0.0018
vn -0.0018 0.0000 -1.0000
vn 1.0000 0.0000 -0.0018
vn 0.0018 0.0000 1.0000
vn 0.0000 -1.0000 -0.0000
vn -0.0000 1.0000 0.0000
usemtl None.050
s 1
f 49//37 50//37 51//37 52//37
f 52//38 51//38 53//38 54//38
f 54//39 53//39 55//39 56//39
f 56//40 55//40 50//40 49//40
f 52//41 54//41 56//41 49//41
f 53//42 51//42 50//42 55//42
o Cube.331_Cube.000_Cube.331_Cube.002
v -27.859661 0.114660 -23.087505
v -27.859661 1.305658 -23.087505
v -27.861774 1.305658 -24.278502
v -27.861774 0.114660 -24.278502
v -26.670776 1.305660 -24.280613
v -26.670776 0.114661 -24.280613
v -26.668663 1.305660 -23.089615
v -26.668663 0.114661 -23.089615
vn -1.0000 0.0000 0.0018
vn -0.0018 0.0000 -1.0000
vn 1.0000 0.0000 -0.0018
vn 0.0018 0.0000 1.0000
vn 0.0000 -1.0000 0.0000
vn -0.0000 1.0000 0.0000
usemtl None.050
s 1
f 57//43 58//43 59//43 60//43
f 60//44 59//44 61//44 62//44
f 62//45 61//45 63//45 64//45
f 64//46 63//46 58//46 57//46
f 60//47 62//47 64//47 57//47
f 61//48 59//48 58//48 63//48
o Cube.332_Cube.000_Cube.332_Cube.002
v -27.861767 0.114660 -24.275620
v -27.861767 1.305658 -24.275620
v -27.863880 1.305658 -25.466618
v -27.863880 0.114660 -25.466618
v -26.672882 1.305660 -25.468729
v -26.672882 0.114661 -25.468729
v -26.670769 1.305660 -24.277731
v -26.670769 0.114661 -24.277731
vn -1.0000 0.0000 0.0018
vn -0.0018 0.0000 -1.0000
vn 1.0000 0.0000 -0.0018
vn 0.0018 0.0000 1.0000
vn 0.0000 -1.0000 0.0000
vn -0.0000 1.0000 0.0000
usemtl None.050
s 1
f 65//49 66//49 67//49 68//49
f 68//50 67//50 69//50 70//50
f 70//51 69//51 71//51 72//51
f 72//52 71//52 66//52 65//52
f 68//53 70//53 72//53 65//53
f 69//54 67//54 66//54 71//54
o Cube.333_Cube.000_Cube.333_Cube.002
v -26.687508 0.114661 -24.277700
v -26.687508 1.305660 -24.277700
v -26.689617 1.305660 -25.468699
v -26.689617 0.114661 -25.468699
v -25.498623 1.305663 -25.470808
v -25.498623 0.114663 -25.470808
v -25.496513 1.305663 -24.279810
v -25.496513 0.114663 -24.279810
vn -1.0000 0.0000 0.0018
vn -0.0018 0.0000 -1.0000
vn 1.0000 0.0000 -0.0018
vn 0.0018 0.0000 1.0000
vn 0.0000 -1.0000 -0.0000
vn -0.0000 1.0000 0.0000
usemtl None.050
s 1
f 73//55 74//55 75//55 76//55
f 76//56 75//56 77//56 78//56
f 78//57 77//57 79//57 80//57
f 80//58 79//58 74//58 73//58
f 76//59 78//59 80//59 73//59
f 77//60 75//60 74//60 79//60
o Cube.334_Cube.000_Cube.334_Cube.002
v -26.685394 0.114660 -23.086079
v -26.685394 1.305660 -23.086079
v -26.687508 1.305660 -24.277077
v -26.687508 0.114661 -24.277077
v -25.496513 1.305663 -24.279186
v -25.496510 0.114663 -24.279186
v -25.494400 1.305663 -23.088188
v -25.494396 0.114663 -23.088188
vn -1.0000 0.0000 0.0018
vn -0.0018 -0.0000 -1.0000
vn 1.0000 0.0000 -0.0018
vn 0.0018 0.0000 1.0000
vn 0.0000 -1.0000 -0.0000
vn -0.0000 1.0000 0.0000
usemtl None.050
s 1
f 81//61 82//61 83//61 84//61
f 84//62 83//62 85//62 86//62
f 86//63 85//63 87//63 88//63
f 88//64 87//64 82//64 81//64
f 84//65 86//65 88//65 81//65
f 85//66 83//66 82//66 87//66
o Cube.335_Cube.000_Cube.335_Cube.002
v -26.683296 0.114660 -21.899000
v -26.683296 1.305660 -21.899000
v -26.685410 1.305660 -23.089998
v -26.685410 0.114660 -23.089998
v -25.494404 1.305663 -23.092110
v -25.494404 0.114663 -23.092110
v -25.492298 1.305663 -21.901112
v -25.492298 0.114663 -21.901112
vn -1.0000 0.0000 0.0018
vn -0.0018 0.0000 -1.0000
vn 1.0000 0.0000 -0.0018
vn 0.0018 0.0000 1.0000
vn 0.0000 -1.0000 0.0000
vn -0.0000 1.0000 0.0000
usemtl None.050
s 1
f 89//67 90//67 91//67 92//67
f 92//68 91//68 93//68 94//68
f 94//69 93//69 95//69 96//69
f 96//70 95//70 90//70 89//70
f 92//71 94//71 96//71 89//71
f 93//72 91//72 90//72 95//72
o Cube.336_Cube.000_Cube.336_Cube.002
v -26.689621 0.114661 -25.469465
v -26.689621 1.305660 -25.469465
v -26.691734 1.305660 -26.660463
v -26.691734 0.114661 -26.660463
v -25.500736 1.305663 -26.662573
v -25.500736 0.114663 -26.662573
v -25.498623 1.305663 -25.471575
v -25.498623 0.114663 -25.471575
vn -1.0000 0.0000 0.0018
vn -0.0018 0.0000 -1.0000
vn 1.0000 0.0000 -0.0018
vn 0.0018 0.0000 1.0000
vn 0.0000 -1.0000 0.0000
vn -0.0000 1.0000 0.0000
usemtl None.050
s 1
f 97//73 98//73 99//73 100//73
f 100//74 99//74 101//74 102//74
f 102//75 101//75 103//75 104//75
f 104//76 103//76 98//76 97//76
f 100//77 102//77 104//77 97//77
f 101//78 99//78 98//78 103//78
o Cube.337_Cube.000_Cube.337_Cube.002
v -26.691727 0.114661 -26.656544
v -26.691727 1.305660 -26.656544
v -26.693832 1.305660 -27.847542
v -26.693832 0.114661 -27.847542
v -25.502838 1.305663 -27.849651
v -25.502838 0.114663 -27.849651
v -25.500725 1.305663 -26.658653
v -25.500725 0.114663 -26.658653
vn -1.0000 0.0000 0.0018
vn -0.0018 0.0000 -1.0000
vn 1.0000 0.0000 -0.0018
vn 0.0018 0.0000 1.0000
vn 0.0000 -1.0000 -0.0000
vn -0.0000 1.0000 0.0000
usemtl None.050
s 1
f 105//79 106//79 107//79 108//79
f 108//80 107//80 109//80 110//80
f 110//81 109//81 111//81 112//81
f 112//82 111//82 106//82 105//82
f 108//83 110//83 112//83 105//83
f 109//84 107//84 106//84 111//84
o Cube.338_Cube.000_Cube.338_Cube.002
v -26.693832 0.114661 -27.848164
v -26.693832 1.305660 -27.848164
v -26.695950 1.305660 -29.039164
v -26.695950 0.114661 -29.039164
v -25.504955 1.305663 -29.041271
v -25.504955 0.114663 -29.041271
v -25.502838 1.305663 -27.850275
v -25.502838 0.114663 -27.850275
vn -1.0000 0.0000 0.0018
vn -0.0018 0.0000 -1.0000
vn 1.0000 0.0000 -0.0018
vn 0.0018 0.0000 1.0000
vn 0.0000 -1.0000 0.0000
vn -0.0000 1.0000 0.0000
usemtl None.050
s 1
f 113//85 114//85 115//85 116//85
f 116//86 115//86 117//86 118//86
f 118//87 117//87 119//87 120//87
f 120//88 119//88 114//88 113//88
f 116//89 118//89 120//89 113//89
f 117//90 115//90 114//90 119//90
o Cube.339_Cube.000_Cube.339_Cube.002
v -27.868092 0.114660 -27.846083
v -27.868092 1.305658 -27.846083
v -27.870205 1.305658 -29.037079
v -27.870205 0.114660 -29.037079
v -26.679207 1.305660 -29.039192
v -26.679207 0.114661 -29.039192
v -26.677094 1.305660 -27.848192
v -26.677094 0.114661 -27.848192
vn -1.0000 0.0000 0.0018
vn -0.0018 0.0000 -1.0000
vn 1.0000 0.0000 -0.0018
vn 0.0018 0.0000 1.0000
vn 0.0000 -1.0000 0.0000
vn -0.0000 1.0000 0.0000
usemtl None.050
s 1
f 121//91 122//91 123//91 124//91
f 124//92 123//92 125//92 126//92
f 126//93 125//93 127//93 128//93
f 128//94 127//94 122//94 121//94
f 124//95 126//95 128//95 121//95
f 125//96 123//96 122//96 127//96
o Cube.340_Cube.000_Cube.340_Cube.002
v -27.865993 0.114660 -26.657969
v -27.865993 1.305658 -26.657969
v -27.868099 1.305658 -27.848967
v -27.868099 0.114660 -27.848967
v -26.677105 1.305660 -27.851076
v -26.677101 0.114661 -27.851076
v -26.674988 1.305660 -26.660080
v -26.674984 0.114661 -26.660080
vn -1.0000 0.0000 0.0018
vn -0.0018 -0.0000 -1.0000
vn 1.0000 0.0000 -0.0018
vn 0.0018 0.0000 1.0000
vn 0.0000 -1.0000 0.0000
vn -0.0000 1.0000 0.0000
usemtl None.050
s 1
f 129//97 130//97 131//97 132//97
f 132//98 131//98 133//98 134//98
f 134//99 133//99 135//99 136//99
f 136//100 135//100 130//100 129//100
f 132//101 134//101 136//101 129//101
f 133//102 131//102 130//102 135//102
o Cube.341_Cube.000_Cube.341_Cube.002
v -27.863865 0.114660 -25.463448
v -27.863869 1.305658 -25.463448
v -27.865986 1.305658 -26.654446
v -27.865982 0.114660 -26.654446
v -26.674984 1.305660 -26.656555
v -26.674984 0.114661 -26.656555
v -26.672871 1.305660 -25.465559
v -26.672871 0.114661 -25.465559
vn -1.0000 -0.0000 0.0018
vn -0.0018 -0.0000 -1.0000
vn 1.0000 0.0000 -0.0018
vn 0.0018 0.0000 1.0000
vn 0.0000 -1.0000 -0.0000
vn -0.0000 1.0000 0.0000
usemtl None.050
s 1
f 137//103 138//103 139//103 140//103
f 140//104 139//104 141//104 142//104
f 142//105 141//105 143//105 144//105
f 144//106 143//106 138//106 137//106
f 140//107 142//107 144//107 137//107
f 141//108 139//108 138//108 143//108
o Cube.360_Cube.000_Cube.360_Cube.002
v -27.852238 0.114660 -25.460911
v -27.852238 1.305658 -25.460911
v -27.839191 1.305658 -24.269981
v -27.839191 0.114660 -24.269981
v -29.030117 1.305657 -24.256935
v -29.030117 0.114657 -24.256935
v -29.043163 1.305657 -25.447865
v -29.043163 0.114658 -25.447865
vn 0.9999 0.0000 -0.0110
vn 0.0110 0.0000 0.9999
vn -0.9999 0.0000 0.0110
vn -0.0110 0.0000 -0.9999
vn 0.0000 -1.0000 -0.0000
vn -0.0000 1.0000 0.0000
usemtl None.050
s 1
f 145//109 146//109 147//109 148//109
f 148//110 147//110 149//110 150//110
f 150//111 149//111 151//111 152//111
f 152//112 151//112 146//112 145//112
f 148//113 150//113 152//113 145//113
f 149//114 147//114 146//114 151//114
o Cube.361_Cube.000_Cube.361_Cube.002
v -27.839149 0.114660 -24.266457
v -27.839153 1.305658 -24.266457
v -27.826099 1.305658 -23.075529
v -27.826099 0.114660 -23.075529
v -29.017033 1.305657 -23.062481
v -29.017033 0.114657 -23.062481
v -29.030079 1.305657 -24.253412
v -29.030075 0.114657 -24.253412
vn 0.9999 0.0000 -0.0110
vn 0.0110 0.0000 0.9999
vn -0.9999 -0.0000 0.0110
vn -0.0110 -0.0000 -0.9999
vn 0.0000 -1.0000 -0.0000
vn -0.0000 1.0000 0.0000
usemtl None.050
s 1
f 153//115 154//115 155//115 156//115
f 156//116 155//116 157//116 158//116
f 158//117 157//117 159//117 160//117
f 160//118 159//118 154//118 153//118
f 156//119 158//119 160//119 153//119
f 157//120 155//120 154//120 159//120
o Cube.362_Cube.000_Cube.362_Cube.002
v -27.826130 0.114660 -23.078415
v -27.826138 1.305658 -23.078415
v -27.813091 1.305658 -21.887486
v -27.813091 0.114660 -21.887486
v -29.004021 1.305657 -21.874439
v -29.004021 0.114657 -21.874439
v -29.017067 1.305657 -23.065367
v -29.017067 0.114657 -23.065367
vn 0.9999 0.0000 -0.0110
vn 0.0110 0.0000 0.9999
vn -0.9999 0.0000 0.0110
vn -0.0110 -0.0000 -0.9999
vn 0.0000 -1.0000 -0.0000
vn -0.0000 1.0000 0.0000
usemtl None.050
s 1
f 161//121 162//121 163//121 164//121
f 164//122 163//122 165//122 166//122
f 166//123 165//123 167//123 168//123
f 168//124 167//124 162//124 161//124
f 164//125 166//125 168//125 161//125
f 165//126 163//126 162//126 167//126
o Cube.363_Cube.000_Cube.363_Cube.002
v -29.000320 0.114658 -23.065552
v -29.000320 1.305657 -23.065552
v -28.987282 1.305657 -21.874620
v -28.987282 0.114658 -21.874620
v -30.178207 1.305655 -21.861576
v -30.178207 0.114655 -21.861576
v -30.191254 1.305655 -23.052504
v -30.191254 0.114655 -23.052504
vn 0.9999 0.0000 -0.0109
vn 0.0110 0.0000 0.9999
vn -0.9999 0.0000 0.0110
vn -0.0110 0.0000 -0.9999
vn 0.0000 -1.0000 -0.0000
vn -0.0000 1.0000 0.0000
usemtl None.050
s 1
f 169//127 170//127 171//127 172//127
f 172//128 171//128 173//128 174//128
f 174//129 173//129 175//129 176//129
f 176//130 175//130 170//130 169//130
f 172//131 174//131 176//131 169//131
f 173//132 171//132 170//132 175//132
o Cube.364_Cube.000_Cube.364_Cube.002
v -29.013378 0.114658 -24.257103
v -29.013378 1.305657 -24.257103
v -29.000328 1.305657 -23.066174
v -29.000328 0.114658 -23.066174
v -30.191261 1.305655 -23.053127
v -30.191254 0.114655 -23.053127
v -30.204311 1.305655 -24.244055
v -30.204311 0.114655 -24.244055
vn 0.9999 0.0000 -0.0110
vn 0.0110 0.0000 0.9999
vn -0.9999 -0.0000 0.0110
vn -0.0110 0.0000 -0.9999
vn 0.0000 -1.0000 -0.0000
vn -0.0000 1.0000 0.0000
usemtl None.050
s 1
f 177//133 178//133 179//133 180//133
f 180//134 179//134 181//134 182//134
f 182//135 181//135 183//135 184//135
f 184//136 183//136 178//136 177//136
f 180//137 182//137 184//137 177//137
f 181//138 179//138 178//138 183//138
o Cube.365_Cube.000_Cube.365_Cube.002
v -29.026379 0.114658 -25.444111
v -29.026379 1.305657 -25.444111
v -29.013332 1.305657 -24.253181
v -29.013332 0.114658 -24.253181
v -30.204266 1.305655 -24.240135
v -30.204266 0.114655 -24.240135
v -30.217312 1.305655 -25.431065
v -30.217304 0.114655 -25.431065
vn 0.9999 0.0000 -0.0110
vn 0.0110 0.0000 0.9999
vn -0.9999 -0.0000 0.0110
vn -0.0110 -0.0000 -0.9999
vn 0.0000 -1.0000 -0.0000
vn -0.0000 1.0000 0.0000
usemtl None.050
s 1
f 185//139 186//139 187//139 188//139
f 188//140 187//140 189//140 190//140
f 190//141 189//141 191//141 192//141
f 192//142 191//142 186//142 185//142
f 188//143 190//143 192//143 185//143
f 189//144 187//144 186//144 191//144
o Cube.366_Cube.000_Cube.366_Cube.002
v -30.255184 0.114655 -29.005270
v -30.255184 1.305655 -29.005270
v -30.242138 1.305655 -27.814339
v -30.242138 0.114655 -27.814339
v -31.433067 1.305654 -27.801294
v -31.433067 0.114654 -27.801294
v -31.446114 1.305654 -28.992224
v -31.446114 0.114654 -28.992224
vn 0.9999 0.0000 -0.0110
vn 0.0110 0.0000 0.9999
vn -0.9999 0.0000 0.0110
vn -0.0110 0.0000 -0.9999
vn 0.0000 -1.0000 -0.0000
vn -0.0000 1.0000 0.0000
usemtl None.050
s 1
f 193//145 194//145 195//145 196//145
f 196//146 195//146 197//146 198//146
f 198//147 197//147 199//147 200//147
f 200//148 199//148 194//148 193//148
f 196//149 198//149 200//149 193//149
f 197//150 195//150 194//150 199//150
o Cube.367_Cube.000_Cube.367_Cube.002
v -30.242096 0.114655 -27.810818
v -30.242096 1.305655 -27.810818
v -30.229050 1.305655 -26.619888
v -30.229050 0.114655 -26.619888
v -31.419983 1.305654 -26.606842
v -31.419983 0.114654 -26.606842
v -31.433033 1.305654 -27.797771
v -31.433033 0.114654 -27.797771
vn 0.9999 0.0000 -0.0110
vn 0.0110 0.0000 0.9999
vn -0.9999 0.0000 0.0110
vn -0.0110 0.0000 -0.9999
vn 0.0000 -1.0000 -0.0000
vn -0.0000 1.0000 0.0000
usemtl None.050
s 1
f 201//151 202//151 203//151 204//151
f 204//152 203//152 205//152 206//152
f 206//153 205//153 207//153 208//153
f 208//154 207//154 202//154 201//154
f 204//155 206//155 208//155 201//155
f 205//156 203//156 202//156 207//156
o Cube.368_Cube.000_Cube.368_Cube.002
v -30.229080 0.114655 -26.622774
v -30.229080 1.305655 -26.622774
v -30.216042 1.305655 -25.431843
v -30.216042 0.114655 -25.431843
v -31.406967 1.305654 -25.418798
v -31.406967 0.114654 -25.418798
v -31.420013 1.305654 -26.609726
v -31.420013 0.114654 -26.609726
vn 0.9999 0.0000 -0.0109
vn 0.0110 0.0000 0.9999
vn -0.9999 0.0000 0.0110
vn -0.0110 0.0000 -0.9999
vn 0.0000 -1.0000 -0.0000
vn -0.0000 1.0000 -0.0000
usemtl None.050
s 1
f 209//157 210//157 211//157 212//157
f 212//158 211//158 213//158 214//158
f 214//159 213//159 215//159 216//159
f 216//160 215//160 210//160 209//160
f 212//161 214//161 216//161 209//161
f 213//162 211//162 210//162 215//162
o Cube.369_Cube.000_Cube.369_Cube.002
v -31.403278 0.114654 -26.609909
v -31.403278 1.305654 -26.609909
v -31.390232 1.305654 -25.418982
v -31.390232 0.114654 -25.418982
v -32.581158 1.305652 -25.405933
v -32.581158 0.114651 -25.405933
v -32.594204 1.305652 -26.596865
v -32.594204 0.114651 -26.596865
vn 0.9999 0.0000 -0.0110
vn 0.0110 0.0000 0.9999
vn -0.9999 0.0000 0.0110
vn -0.0110 0.0000 -0.9999
vn 0.0000 -1.0000 -0.0000
vn -0.0000 1.0000 0.0000
usemtl None.050
s 1
f 217//163 218//163 219//163 220//163
f 220//164 219//164 221//164 222//164
f 222//165 221//165 223//165 224//165
f 224//166 223//166 218//166 217//166
f 220//167 222//167 224//167 217//167
f 221//168 219//168 218//168 223//168
o Cube.370_Cube.000_Cube.370_Cube.002
v -31.416325 0.114654 -27.801464
v -31.416325 1.305654 -27.801464
v -31.403278 1.305654 -26.610535
v -31.403278 0.114654 -26.610535
v -32.594212 1.305652 -26.597486
v -32.594204 0.114651 -26.597488
v -32.607258 1.305652 -27.788416
v -32.607250 0.114651 -27.788416
vn 0.9999 0.0000 -0.0110
vn 0.0110 -0.0000 0.9999
vn -0.9999 -0.0000 0.0110
vn -0.0110 -0.0000 -0.9999
vn 0.0000 -1.0000 -0.0000
vn -0.0000 1.0000 0.0000
usemtl None.050
s 1
f 225//169 226//169 227//169 228//169
f 228//170 227//170 229//170 230//170
f 230//171 229//171 231//171 232//171
f 232//172 231//172 226//172 225//172
f 228//173 230//173 232//173 225//173
f 229//174 227//174 226//174 231//174
o Cube.371_Cube.000_Cube.371_Cube.002
v -31.429329 0.114654 -28.988472
v -31.429329 1.305654 -28.988472
v -31.416283 1.305654 -27.797543
v -31.416283 0.114654 -27.797543
v -32.607216 1.305652 -27.784494
v -32.607216 0.114651 -27.784494
v -32.620262 1.305652 -28.975426
v -32.620255 0.114651 -28.975426
vn 0.9999 0.0000 -0.0110
vn 0.0110 0.0000 0.9999
vn -0.9999 -0.0000 0.0110
vn -0.0110 -0.0000 -0.9999
vn 0.0000 -1.0000 -0.0000
vn -0.0000 1.0000 0.0000
usemtl None.050
s 1
f 233//175 234//175 235//175 236//175
f 236//176 235//176 237//176 238//176
f 238//177 237//177 239//177 240//177
f 240//178 239//178 234//178 233//178
f 236//179 238//179 240//179 233//179
f 237//180 235//180 234//180 239//180
o Cube.372_Cube.000_Cube.372_Cube.002
v -31.390221 0.114654 -25.418217
v -31.390221 1.305654 -25.418217
v -31.377174 1.305654 -24.227287
v -31.377174 0.114654 -24.227287
v -32.568108 1.305652 -24.214241
v -32.568108 0.114651 -24.214241
v -32.581146 1.305652 -25.405170
v -32.581146 0.114651 -25.405170
vn 0.9999 0.0000 -0.0110
vn 0.0110 0.0000 0.9999
vn -0.9999 0.0000 0.0109
vn -0.0110 0.0000 -0.9999
vn 0.0000 -1.0000 -0.0000
vn -0.0000 1.0000 0.0000
usemtl None.050
s 1
f 241//181 242//181 243//181 244//181
f 244//182 243//182 245//182 246//182
f 246//183 245//183 247//183 248//183
f 248//184 247//184 242//184 241//184
f 244//185 246//185 248//185 241//185
f 245//186 243//186 242//186 247//186
o Cube.373_Cube.000_Cube.373_Cube.002
v -31.377220 0.114654 -24.231209
v -31.377220 1.305654 -24.231209
v -31.364170 1.305654 -23.040279
v -31.364170 0.114654 -23.040279
v -32.555096 1.305652 -23.027233
v -32.555096 0.114651 -23.027233
v -32.568146 1.305652 -24.218161
v -32.568146 0.114651 -24.218161
vn 0.9999 0.0000 -0.0110
vn 0.0110 0.0000 0.9999
vn -0.9999 0.0000 0.0110
vn -0.0110 0.0000 -0.9999
vn 0.0000 -1.0000 -0.0000
vn -0.0000 1.0000 0.0000
usemtl None.050
s 1
f 249//187 250//187 251//187 252//187
f 252//188 251//188 253//188 254//188
f 254//189 253//189 255//189 256//189
f 256//190 255//190 250//190 249//190
f 252//191 254//191 256//191 249//191
f 253//192 251//192 250//192 255//192
o Cube.374_Cube.000_Cube.374_Cube.002
v -31.364162 0.114654 -23.039658
v -31.364162 1.305654 -23.039658
v -31.351116 1.305654 -21.848726
v -31.351116 0.114654 -21.848726
v -32.542049 1.305652 -21.835682
v -32.542042 0.114651 -21.835682
v -32.555096 1.305652 -23.026609
v -32.555088 0.114651 -23.026609
vn 0.9999 0.0000 -0.0110
vn 0.0110 0.0000 0.9999
vn -0.9999 -0.0000 0.0110
vn -0.0110 -0.0000 -0.9999
vn 0.0000 -1.0000 -0.0000
vn -0.0000 1.0000 0.0000
usemtl None.050
s 1
f 257//193 258//193 259//193 260//193
f 260//194 259//194 261//194 262//194
f 262//195 261//195 263//195 264//195
f 264//196 263//196 258//196 257//196
f 260//197 262//197 264//197 257//197
f 261//198 259//198 258//198 263//198
o Cube.375_Cube.000_Cube.375_Cube.002
v -30.189972 0.114655 -23.052519
v -30.189972 1.305655 -23.052519
v -30.176926 1.305655 -21.861589
v -30.176926 0.114655 -21.861589
v -31.367859 1.305654 -21.848543
v -31.367859 0.114654 -21.848543
v -31.380905 1.305654 -23.039471
v -31.380905 0.114654 -23.039471
vn 0.9999 0.0000 -0.0110
vn 0.0110 0.0000 0.9999
vn -0.9999 0.0000 0.0110
vn -0.0110 0.0000 -0.9999
vn 0.0000 -1.0000 -0.0000
vn -0.0000 1.0000 0.0000
usemtl None.050
s 1
f 265//199 266//199 267//199 268//199
f 268//200 267//200 269//200 270//200
f 270//201 269//201 271//201 272//201
f 272//202 271//202 266//202 265//202
f 268//203 270//203 272//203 265//203
f 269//204 267//204 266//204 271//204
o Cube.376_Cube.000_Cube.376_Cube.002
v -30.202988 0.114655 -24.240562
v -30.202988 1.305655 -24.240562
v -30.189941 1.305655 -23.049633
v -30.189941 0.114655 -23.049633
v -31.380867 1.305654 -23.036587
v -31.380867 0.114654 -23.036587
v -31.393913 1.305654 -24.227516
v -31.393913 0.114654 -24.227516
vn 0.9999 0.0000 -0.0110
vn 0.0110 0.0000 0.9999
vn -0.9999 0.0000 0.0110
vn -0.0110 0.0000 -0.9999
vn 0.0000 -1.0000 -0.0000
vn -0.0000 1.0000 0.0000
usemtl None.050
s 1
f 273//205 274//205 275//205 276//205
f 276//206 275//206 277//206 278//206
f 278//207 277//207 279//207 280//207
f 280//208 279//208 274//208 273//208
f 276//209 278//209 280//209 273//209
f 277//210 275//210 274//210 279//210
o Cube.377_Cube.000_Cube.377_Cube.002
v -30.216076 0.114655 -25.435015
v -30.216076 1.305655 -25.435015
v -30.203030 1.305655 -24.244085
v -30.203030 0.114655 -24.244085
v -31.393955 1.305654 -24.231041
v -31.393955 0.114654 -24.231041
v -31.407001 1.305654 -25.421968
v -31.407001 0.114654 -25.421968
vn 0.9999 0.0000 -0.0110
vn 0.0110 0.0000 0.9999
vn -0.9999 0.0000 0.0110
vn -0.0110 0.0000 -0.9999
vn 0.0000 -1.0000 -0.0000
vn -0.0000 1.0000 0.0000
usemtl None.050
s 1
f 281//211 282//211 283//211 284//211
f 284//212 283//212 285//212 286//212
f 286//213 285//213 287//213 288//213
f 288//214 287//214 282//214 281//214
f 284//215 286//215 288//215 281//215
f 285//216 283//216 282//216 287//216
