# Blender v2.79 (sub 0) OBJ File: ''
# www.blender.org
mtllib project27.mtl
o Cube_Cube.001_Cube_Cube.008
v -2.910549 1.013664 -11.012922
v -2.910549 3.013663 -11.012918
v -2.910549 3.013665 -13.012920
v -2.910549 1.013666 -13.012922
v -0.910551 3.013665 -13.012920
v -0.910551 1.013666 -13.012922
v -0.910551 3.013663 -11.012918
v -0.910551 1.013664 -11.012922
vn -1.0000 -0.0000 0.0000
vn 0.0000 0.0000 -1.0000
vn 1.0000 0.0000 0.0000
vn 0.0000 -0.0000 1.0000
vn 0.0000 -1.0000 -0.0000
vn 0.0000 1.0000 0.0000
usemtl None.2463
s 1
f 1//1 2//1 3//1 4//1
f 4//2 3//2 5//2 6//2
f 6//3 5//3 7//3 8//3
f 8//4 7//4 2//4 1//4
f 4//5 6//5 8//5 1//5
f 5//6 3//6 2//6 7//6
o Cube_Cube.001_Cube_Cube.002
v 17.815901 1.013664 5.404802
v 17.815901 3.013663 5.404807
v 17.815901 3.013665 3.404804
v 17.815901 1.013666 3.404802
v 19.815899 3.013665 3.404804
v 19.815899 1.013666 3.404802
v 19.815899 3.013663 5.404807
v 19.815899 1.013664 5.404802
vn -1.0000 0.0000 0.0000
vn 0.0000 0.0000 -1.0000
vn 1.0000 0.0000 0.0000
vn 0.0000 -0.0000 1.0000
vn 0.0000 -1.0000 -0.0000
vn 0.0000 1.0000 0.0000
usemtl None.055
s 1
f 9//7 10//7 11//7 12//7
f 12//8 11//8 13//8 14//8
f 14//9 13//9 15//9 16//9
f 16//10 15//10 10//10 9//10
f 12//11 14//11 16//11 9//11
f 13//12 11//12 10//12 15//12
o Cube_Cube.001_Cube_Cube.000
v -44.871933 1.013664 5.404802
v -44.871933 3.013663 5.404807
v -44.871933 3.013665 3.404804
v -44.871933 1.013666 3.404802
v -42.871937 3.013665 3.404804
v -42.871937 1.013666 3.404802
v -42.871937 3.013663 5.404807
v -42.871937 1.013664 5.404802
vn -1.0000 -0.0000 0.0000
vn 0.0000 0.0000 -1.0000
vn 1.0000 0.0000 0.0000
vn 0.0000 -0.0000 1.0000
vn 0.0000 -1.0000 -0.0000
vn 0.0000 1.0000 0.0000
usemtl None.053
s 1
f 17//13 18//13 19//13 20//13
f 20//14 19//14 21//14 22//14
f 22//15 21//15 23//15 24//15
f 24//16 23//16 18//16 17//16
f 20//17 22//17 24//17 17//17
f 21//18 19//18 18//18 23//18
o Cube_Cube.001_Cube_Cube.003
v -44.871933 10.214632 -23.838873
v -44.871933 12.214632 -23.838869
v -44.871933 12.214634 -25.838871
v -44.871933 10.214634 -25.838873
v -42.871937 12.214634 -25.838871
v -42.871937 10.214634 -25.838873
v -42.871937 12.214632 -23.838869
v -42.871937 10.214632 -23.838873
vn -1.0000 -0.0000 0.0000
vn 0.0000 0.0000 -1.0000
vn 1.0000 0.0000 0.0000
vn 0.0000 -0.0000 1.0000
vn 0.0000 -1.0000 -0.0000
vn 0.0000 1.0000 0.0000
usemtl None.056
s 1
f 25//19 26//19 27//19 28//19
f 28//20 27//20 29//20 30//20
f 30//21 29//21 31//21 32//21
f 32//22 31//22 26//22 25//22
f 28//23 30//23 32//23 25//23
f 29//24 27//24 26//24 31//24
o Cube_Cube.001_Cube_Cube.001
v -44.871933 1.013669 -23.838875
v -44.871933 3.013668 -23.838871
v -44.871933 3.013670 -25.838873
v -44.871933 1.013671 -25.838875
v -42.871937 3.013670 -25.838873
v -42.871937 1.013671 -25.838875
v -42.871937 3.013668 -23.838871
v -42.871937 1.013669 -23.838875
vn -1.0000 -0.0000 0.0000
vn 0.0000 0.0000 -1.0000
vn 1.0000 0.0000 0.0000
vn 0.0000 -0.0000 1.0000
vn 0.0000 -1.0000 -0.0000
vn 0.0000 1.0000 0.0000
usemtl None.054
s 1
f 33//25 34//25 35//25 36//25
f 36//26 35//26 37//26 38//26
f 38//27 37//27 39//27 40//27
f 40//28 39//28 34//28 33//28
f 36//29 38//29 40//29 33//29
f 37//30 35//30 34//30 39//30
