# Blender v2.79 (sub 0) OBJ File: ''
# www.blender.org
mtllib bin35.mtl
o Cube_Cube.004_Cube_Cube.006_Cube_Cube.004_Cube_Cube.019
v 2.075396 1.046351 -1.564718
v 2.075396 2.376918 -1.564718
v 2.075396 2.376921 -2.713525
v 2.075396 1.046354 -2.713530
v 3.373177 2.376921 -2.713525
v 3.373177 1.046354 -2.713530
v 3.373177 2.376918 -1.564718
v 3.373177 1.046351 -1.564718
vn -1.0000 0.0000 0.0000
vn 0.0000 0.0000 -1.0000
vn 1.0000 0.0000 0.0000
vn 0.0000 -0.0000 1.0000
vn 0.0000 -1.0000 -0.0000
vn 0.0000 1.0000 0.0000
usemtl None.2907
s 1
f 1//1 2//1 3//1 4//1
f 4//2 3//2 5//2 6//2
f 6//3 5//3 7//3 8//3
f 8//4 7//4 2//4 1//4
f 4//5 6//5 8//5 1//5
f 5//6 3//6 2//6 7//6
o Cube_Cube.004_Cube_Cube.005_Cube_Cube.004_Cube_Cube.018
v 3.517500 1.046351 0.223100
v 3.517500 2.376918 0.223101
v 3.517500 2.376921 -0.925708
v 3.517500 1.046354 -0.925710
v 4.815280 2.376921 -0.925708
v 4.815280 1.046354 -0.925710
v 4.815280 2.376918 0.223101
v 4.815280 1.046351 0.223100
vn -1.0000 0.0000 0.0000
vn 0.0000 0.0000 -1.0000
vn 1.0000 0.0000 0.0000
vn 0.0000 -0.0000 1.0000
vn 0.0000 -1.0000 -0.0000
vn 0.0000 1.0000 0.0000
usemtl None.2906
s 1
f 9//7 10//7 11//7 12//7
f 12//8 11//8 13//8 14//8
f 14//9 13//9 15//9 16//9
f 16//10 15//10 10//10 9//10
f 12//11 14//11 16//11 9//11
f 13//12 11//12 10//12 15//12
o Cube_Cube.004_Cube_Cube.004_Cube_Cube.004_Cube_Cube.011
v 3.517500 1.046351 -1.564718
v 3.517500 2.376918 -1.564718
v 3.517500 2.376921 -2.713525
v 3.517500 1.046354 -2.713530
v 4.815280 2.376921 -2.713525
v 4.815280 1.046354 -2.713530
v 4.815280 2.376918 -1.564718
v 4.815280 1.046351 -1.564718
vn -1.0000 -0.0000 0.0000
vn 0.0000 0.0000 -1.0000
vn 1.0000 0.0000 0.0000
vn 0.0000 -0.0000 1.0000
vn 0.0000 -1.0000 -0.0000
vn 0.0000 1.0000 0.0000
usemtl None.2905
s 1
f 17//13 18//13 19//13 20//13
f 20//14 19//14 21//14 22//14
f 22//15 21//15 23//15 24//15
f 24//16 23//16 18//16 17//16
f 20//17 22//17 24//17 17//17
f 21//18 19//18 18//18 23//18
