# Blender v2.79 (sub 0) OBJ File: ''
# www.blender.org
mtllib factory38.mtl
o Cube_Cube.000_Cube_Cube.000_Cube_Cube.000_Cube_Cube.007
v 8.025032 1.128448 5.181113
v 8.025032 3.128447 5.181113
v 8.025032 3.128448 3.181113
v 8.025032 1.128449 3.181113
v 10.025032 3.128448 3.181113
v 10.025032 1.128449 3.181113
v 10.025032 3.128447 5.181113
v 10.025032 1.128448 5.181113
vn -1.0000 0.0000 0.0000
vn 0.0000 0.0000 -1.0000
vn 1.0000 0.0000 0.0000
vn 0.0000 0.0000 1.0000
vn 0.0000 -1.0000 -0.0000
vn 0.0000 1.0000 0.0000
usemtl None.3040
s 1
f 1//1 2//1 3//1 4//1
f 4//2 3//2 5//2 6//2
f 6//3 5//3 7//3 8//3
f 8//4 7//4 2//4 1//4
f 4//5 6//5 8//5 1//5
f 5//6 3//6 2//6 7//6
o Cube_Cube.000_Cube_Cube.000_Cube_Cube.000_Cube_Cube.000
v 33.148239 1.128448 4.989493
v 33.148239 3.128447 4.989493
v 33.148239 3.128448 2.989494
v 33.148239 1.128449 2.989493
v 35.148239 3.128448 2.989494
v 35.148239 1.128449 2.989493
v 35.148239 3.128447 4.989493
v 35.148239 1.128448 4.989493
vn -1.0000 0.0000 0.0000
vn 0.0000 0.0000 -1.0000
vn 1.0000 0.0000 0.0000
vn 0.0000 0.0000 1.0000
vn 0.0000 -1.0000 -0.0000
vn 0.0000 1.0000 0.0000
usemtl None.054
s 1
f 9//7 10//7 11//7 12//7
f 12//8 11//8 13//8 14//8
f 14//9 13//9 15//9 16//9
f 16//10 15//10 10//10 9//10
f 12//11 14//11 16//11 9//11
f 13//12 11//12 10//12 15//12
o Cube_Cube.000_Cube_Cube.000_Cube_Cube.000_Cube_Cube.001
v 21.659550 1.128448 -1.117660
v 21.659550 3.128447 -1.117660
v 21.659550 3.128448 -3.117660
v 21.659550 1.128449 -3.117660
v 23.659550 3.128448 -3.117660
v 23.659550 1.128449 -3.117660
v 23.659550 3.128447 -1.117660
v 23.659550 1.128448 -1.117660
vn -1.0000 0.0000 0.0000
vn 0.0000 0.0000 -1.0000
vn 1.0000 0.0000 0.0000
vn 0.0000 -0.0000 1.0000
vn 0.0000 -1.0000 -0.0000
vn 0.0000 1.0000 0.0000
usemtl None.055
s 1
f 17//13 18//13 19//13 20//13
f 20//14 19//14 21//14 22//14
f 22//15 21//15 23//15 24//15
f 24//16 23//16 18//16 17//16
f 20//17 22//17 24//17 17//17
f 21//18 19//18 18//18 23//18
o Cube_Cube.000_Cube_Cube.000_Cube_Cube.000_Cube_Cube.002
v -4.243010 1.128448 5.254074
v -4.243010 3.128447 5.254075
v -4.243010 3.128448 3.254075
v -4.243010 1.128449 3.254074
v -2.243010 3.128448 3.254075
v -2.243010 1.128449 3.254074
v -2.243010 3.128447 5.254075
v -2.243010 1.128448 5.254074
vn -1.0000 -0.0000 0.0000
vn 0.0000 0.0000 -1.0000
vn 1.0000 -0.0000 0.0000
vn 0.0000 -0.0000 1.0000
vn 0.0000 -1.0000 -0.0000
vn 0.0000 1.0000 0.0000
usemtl None.056
s 1
f 25//19 26//19 27//19 28//19
f 28//20 27//20 29//20 30//20
f 30//21 29//21 31//21 32//21
f 32//22 31//22 26//22 25//22
f 28//23 30//23 32//23 25//23
f 29//24 27//24 26//24 31//24
