# Blender v2.79 (sub 0) OBJ File: ''
# www.blender.org
mtllib factory39.mtl
o Cube_Cube.000_Cube_Cube.000_Cube_Cube.000_Cube_Cube.006
v 16.224951 6.300106 10.785395
v 16.224951 8.300105 10.785395
v 16.224951 8.300106 8.785395
v 16.224951 6.300107 8.785395
v 18.224951 8.300106 8.785395
v 18.224951 6.300107 8.785395
v 18.224951 8.300105 10.785395
v 18.224951 6.300106 10.785395
vn -1.0000 0.0000 0.0000
vn 0.0000 0.0000 -1.0000
vn 1.0000 0.0000 0.0000
vn 0.0000 0.0000 1.0000
vn 0.0000 -1.0000 -0.0000
vn 0.0000 1.0000 0.0000
usemtl None.3218
s 1
f 1//1 2//1 3//1 4//1
f 4//2 3//2 5//2 6//2
f 6//3 5//3 7//3 8//3
f 8//4 7//4 2//4 1//4
f 4//5 6//5 8//5 1//5
f 5//6 3//6 2//6 7//6
o Cube_Cube.000_Cube_Cube.000_Cube_Cube.000_Cube_Cube.005
v 8.904943 4.498518 0.986664
v 8.904943 6.498518 0.986666
v 8.904943 6.498519 -1.013334
v 8.904943 4.498520 -1.013335
v 10.904943 6.498519 -1.013334
v 10.904943 4.498520 -1.013335
v 10.904943 6.498518 0.986666
v 10.904943 4.498518 0.986664
vn -1.0000 -0.0000 0.0000
vn 0.0000 0.0000 -1.0000
vn 1.0000 0.0000 0.0000
vn 0.0000 -0.0000 1.0000
vn 0.0000 -1.0000 -0.0000
vn 0.0000 1.0000 0.0000
usemtl None.3216
s 1
f 9//7 10//7 11//7 12//7
f 12//8 11//8 13//8 14//8
f 14//9 13//9 15//9 16//9
f 16//10 15//10 10//10 9//10
f 12//11 14//11 16//11 9//11
f 13//12 11//12 10//12 15//12
o Cube_Cube.000_Cube_Cube.000_Cube_Cube.000_Cube_Cube.004
v 33.148239 9.760622 20.378407
v 33.148239 11.760621 20.378407
v 33.148239 11.760622 18.378408
v 33.148239 9.760623 18.378407
v 35.148239 11.760622 18.378408
v 35.148239 9.760623 18.378407
v 35.148239 11.760621 20.378407
v 35.148239 9.760622 20.378407
vn -1.0000 0.0000 0.0000
vn 0.0000 0.0000 -1.0000
vn 1.0000 0.0000 0.0000
vn 0.0000 0.0000 1.0000
vn 0.0000 -1.0000 -0.0000
vn 0.0000 1.0000 0.0000
usemtl None.3217
s 1
f 17//13 18//13 19//13 20//13
f 20//14 19//14 21//14 22//14
f 22//15 21//15 23//15 24//15
f 24//16 23//16 18//16 17//16
f 20//17 22//17 24//17 17//17
f 21//18 19//18 18//18 23//18
