# Blender v2.79 (sub 0) OBJ File: ''
# www.blender.org
mtllib magnet36.mtl
o Cube.001_Cube.048_Cube.001_Cube.179
v -12.059914 5.422794 1.501267
v -12.059914 7.422794 1.501267
v -12.099731 7.422794 -0.498337
v -12.099731 5.422794 -0.498337
v -6.834305 7.422795 -0.603188
v -6.834305 5.422795 -0.603188
v -6.794486 7.422795 1.396416
v -6.794486 5.422795 1.396416
vn -0.9998 0.0000 0.0199
vn -0.0199 0.0000 -0.9998
vn 0.9998 0.0000 -0.0199
vn 0.0199 0.0000 0.9998
vn 0.0000 -1.0000 0.0000
vn -0.0000 1.0000 0.0000
usemtl None.685
s 1
f 1//1 2//1 3//1 4//1
f 4//2 3//2 5//2 6//2
f 6//3 5//3 7//3 8//3
f 8//4 7//4 2//4 1//4
f 4//5 6//5 8//5 1//5
f 5//6 3//6 2//6 7//6
o Cube.001_Cube.048_Cube.001_Cube.000
v -12.059914 28.564774 1.501267
v -12.059914 30.564774 1.501267
v -12.099731 30.564774 -0.498337
v -12.099731 28.564774 -0.498337
v -6.834305 30.564774 -0.603188
v -6.834305 28.564774 -0.603188
v -6.794486 30.564774 1.396416
v -6.794486 28.564774 1.396416
vn -0.9998 0.0000 0.0199
vn -0.0199 0.0000 -0.9998
vn 0.9998 0.0000 -0.0199
vn 0.0199 0.0000 0.9998
vn 0.0000 -1.0000 0.0000
vn 0.0000 1.0000 0.0000
usemtl None.3906
s 1
f 9//7 10//7 11//7 12//7
f 12//8 11//8 13//8 14//8
f 14//9 13//9 15//9 16//9
f 16//10 15//10 10//10 9//10
f 12//11 14//11 16//11 9//11
f 13//12 11//12 10//12 15//12
o Cube.001_Cube.048_Cube.001_Cube.001
v 6.266531 35.692368 1.501267
v 6.266531 37.692368 1.501267
v 6.226713 37.692368 -0.498337
v 6.226713 35.692368 -0.498337
v 11.492140 37.692368 -0.603188
v 11.492140 35.692368 -0.603188
v 11.531959 37.692368 1.396416
v 11.531959 35.692368 1.396416
vn -0.9998 0.0000 0.0199
vn -0.0199 0.0000 -0.9998
vn 0.9998 0.0000 -0.0199
vn 0.0199 0.0000 0.9998
vn 0.0000 -1.0000 0.0000
vn 0.0000 1.0000 0.0000
usemtl None.3907
s 1
f 17//13 18//13 19//13 20//13
f 20//14 19//14 21//14 22//14
f 22//15 21//15 23//15 24//15
f 24//16 23//16 18//16 17//16
f 20//17 22//17 24//17 17//17
f 21//18 19//18 18//18 23//18
