# Blender v2.79 (sub 0) OBJ File: ''
# www.blender.org
mtllib tm32.mtl
o Cube_Cube.000_Cube_Cube.000_Cube_Cube.000_Cube_Cube.000
v 3.467205 11.559376 -6.291833
v 3.467205 13.559375 -6.291833
v 3.467205 13.559376 -8.291832
v 3.467205 11.559378 -8.291833
v 5.467205 13.559376 -8.291832
v 5.467205 11.559378 -8.291833
v 5.467205 13.559375 -6.291833
v 5.467205 11.559376 -6.291833
vn -1.0000 -0.0000 0.0000
vn 0.0000 0.0000 -1.0000
vn 1.0000 0.0000 0.0000
vn 0.0000 0.0000 1.0000
vn 0.0000 -1.0000 -0.0000
vn 0.0000 1.0000 0.0000
usemtl None.3355
s 1
f 1//1 2//1 3//1 4//1
f 4//2 3//2 5//2 6//2
f 6//3 5//3 7//3 8//3
f 8//4 7//4 2//4 1//4
f 4//5 6//5 8//5 1//5
f 5//6 3//6 2//6 7//6
o Cube_Cube.000_Cube_Cube.013
v -2.712784 0.837606 1.356209
v -2.712784 2.837606 1.356211
v -2.712784 2.837610 -0.643790
v -2.712784 0.837611 -0.643792
v -0.712784 2.837610 -0.643790
v -0.712784 0.837611 -0.643792
v -0.712784 2.837606 1.356211
v -0.712784 0.837606 1.356209
vn -1.0000 0.0000 0.0000
vn 0.0000 0.0000 -1.0000
vn 1.0000 -0.0000 0.0000
vn 0.0000 -0.0000 1.0000
vn 0.0000 -1.0000 -0.0000
vn 0.0000 1.0000 0.0000
usemtl None.3354
s 1
f 9//7 10//7 11//7 12//7
f 12//8 11//8 13//8 14//8
f 14//9 13//9 15//9 16//9
f 16//10 15//10 10//10 9//10
f 12//11 14//11 16//11 9//11
f 13//12 11//12 10//12 15//12
